<mxfile host="65bd71144e">
    <diagram id="yQ1NKh-PU761OOfQEgjS" name="Page-1">
        <mxGraphModel dx="1881" dy="907" grid="0" gridSize="10" guides="1" tooltips="1" connect="1" arrows="1" fold="1" page="1" pageScale="1" pageWidth="1400" pageHeight="850" math="0" shadow="0">
            <root>
                <mxCell id="0"/>
                <mxCell id="1" parent="0"/>
                <mxCell id="76" value="" style="shape=image;verticalLabelPosition=bottom;labelBackgroundColor=default;verticalAlign=top;aspect=fixed;imageAspect=0;image=data:image/png,iVBORw0KGgoAAAANSUhEUgAABisAAAIECAIAAADn74oeAAAAAXNSR0IArs4c6QAAIABJREFUeJzs3XtcVHX++PE3ihe8VOYMIZi33CJRKwELHWp11/XC7DIOrbvJbi2rfpfUav2mZuiv735bRRNbqk1zV1xqv4uVuzOOLdrFTWsdpRW8loZ5J0GEUdBK8MrvjzMMA8zgADOcAV7PB48edDjn83mfOZ8zMm8+788JKC8vFwAAAAAAAMBnOqgdAAAAAAAAANo4MlAAAAAAAADwLTJQAAAAAAAA8C0yUAAAAAAAAPAtMlAAAAAAAADwLTJQAAAAAAAA8C0yUAAAAAAAAPAtMlAAAAAAAADwLTJQAAAAAAAA8C0yUAAAAAAAAPAtMlAAAAAAAADwLTJQAAAAAAAA8C0yUAAAAAAAAPAtMlAAAAAAAADwLTJQAAAAAAAA8C0yUAAAAAAAAPAtMlAAAAAAAADwLTJQAAAAAAAA8K1AtQMAAAAAgLZv3aF17x19b9/ZfRcuX1A7ljYruFvwQ2EPPXrPo+MGjFM7FgB1BZSXl6sdAwAAAAC0WQdKD8z5eM7u4t3K/3YN7KpuPG1WgFRerVS+nXz35NfHvd69U3d1IwLgjAwUAAAAAPjK/pL98eb48sryh+58cEbU9O8PeLh7Z9IivlJ6qfT9rz7842crv77w9YOhD2Y/mt2pQye1gwJgRwYKAAAAAHxl7Dtj9xTv+XVkUuoPf692LO3FxcvfTNswY/sp6xNDn3j1h6+qHQ4AO1YiBwAAAACf+NvBv+0p3hNz50Okn1rSLV16/lH/as8uPd/64q1DtkNqhwPAjgwUAAAAAPjExiMbReQ30TPUDqTdCelxx69H/EpE3jv6ntqxALAjAwUAAAAAPrGvZJ+IfH/AI2oH0h49PCBWRA6UHFA7EAB2ZKAAAAAAwCcuXL7Qo3OPrp14+J0Kbu96u4hcvHJR7UAA2JGBAgAAAAAAgG+RgQIAAAAAAIBvkYECAAAAAACAb5GBAgAAAAAAgG+RgQIAAAAAAIBvkYECAAAAAACAb5GBAgAAAAAAgG+RgQIAAAAAAIBvkYECAAAAgNar1JzYd9r6Uq/uCQDeRwYKAAAAALwgPf0Phw4dUjsKAPBTgWoHAAAAAABtwZGvvjqwf//w++4bP37CkCFD1A4HAPwLc6AAAAAAwGsO7N+ftvylps6H2v1KUN+QoL4hQX1f2SUiIoWWaUEzXlk6Q9kYsnS3fcdCyzRlS+LbBQ036XJPx0bXbb72SgP1eoWWaUGvvbK0Jsi8pbWb2vVaSNBrefa9a0r/StZXn0WipUSqD1z6WvUpzzAXOjbaQypZP8Oxc/3DAbQuzIECAAAA0IrZbLb63ztvFBGbrW4ypc4ODufcbPfElStXHN8f2L//wP791+671rljZ48bKDUnxn/+1t7iKVoptEwbPMN8dI1RROT9ZbKxuGKNFFqmDY5/5Qenfzuy1Dx/tih77not5BGJi3ffpos9S83zZw/79PTakSKFlmmDV5sfX2MM87xNEVn++V17iyu0IlKyfob+i9cPVBiCpdSc+MC09XvXThm9QOKtu56OGilSuGOTeWLccq3sem34E8OyK9ZEieQt7Tt86Z3Fz0eKiLz4eb+jp4vDJG9pX/18iy7L4LpDd4cDaD3IQAEAAADwF0piyGazVX9T6th+rnZ2yV0KyUGj0dx0S28PttQ/yp1jx45dv37d8b8dOnQICAjw8FgRJVkz/8ksrYhImOHJF2a/saPUOFpEJq56PFJEJOzOYTV7ToxbrhURGfnYKuPyTQ21WX9PrTHrdPUOBZtE4hrVpojIxLjRWhERKbVufH/BM2uClWafmT/z1R0lUwy6F0T/8e7fjoyUwoJNLySvDZO8vy6Pe2tvlIiIRD3+etzgHXlKCumFZGOYiEi/uybKF277y/vYxeFRDUUIwO+QgQIAAADQQmw1SsUpr5Sfn19/ZyX1o/y3t0bTW6NRvr9HRKPRilNuqP43qvjoww+vXr0qIp06dRo/YcL48RP+mdlgGqeOwoJNsnxT0PKaLS8UyGh3ew57Mkz5H22/oQ236WLPvKV99S+KiIhxYpyLPT1XUGCWZea+y2q2zC9wzjF9vHzBD06LlBZ8IZtefCDkCcduE+MKpZ+nvbg+PKrR0QJQExkoAAAAAF6mJJny87+U6jSTc47JkVrqrdHcEx4uIqN1sc75JnUTSc3hyD316NGj0QeH9YuT+U9WPF1rak/h12723FRgT8GUFnwhclcDbdbbs9DyxosTVx1dYwwTKbRMM2+qt6fn+vUzyoJnTv92ZJ1+R8cZZ1t3jZYX5+ueFyX5FRe/d+0UrfNeeeIh14cDaF3IQAEAAABoFud80+H8fEeySaPRONJMSo5JUz2PqU36wQ9/2MTckyJsdJxx9hvrH1s7RSuy+5Wg+M/f2rvW5RyosNFxxtkz/7rb+HykFO7YZBZxt2aT2z3fLygUCZO8v87eJBPjqvfctKPUOEUru96eaW54HSgHrS5+4vBXLVOzDMHK1KovXj+QZQhWtj8SH/fW3t+KiEjUD+ZveuTtvClPR4mUrJ8x/Ilh2RVPu2yx310T5QmlyK7UuvF9pUbQ5eFU4QGtCxkoAAAAAI3gyDfVmdykZJccyabw8HB142x5CQmPNq8BrTFrY0FQda3ZCxuLp2ilsIE940NeFJH5C16Qz2/SZu09wwxPvjBb/0jfZSILPt244MX4gkKRMK1x+eubBj8Q8oTIC6+vMoqHBYTBU9ZkH+s7PGi2iIjMz64wBCvbR8fFiVQvFyUy8ukDb80YHtRXREQmrjr6dJSbOVDBU5IXPBGvD1ouMnHVW/Nlo9vDAbQuAeXl5WrHAAAAAMCv2Ww2q3W7iOywWpUlwJVkk0aj0Wi07TPf5IngPwZ37tj56BwXq1z5t1Jz4gMF9WvrWpUvS/LHZP5Q11eX/Wi22rEAEGEOFAAAAID6bDZbfn6+zVbqqKpTpjiN1unCw+8l39QW7X4laHU/ZXGoXW/PNE9ctfzmxwCA58hAAQAAABCpnujknHISkdE63WhdrE6nUzs6NKjQMm3w7Pp1cws+9XweU+TUt2T44L4zqw80imVaUDPbBIAaZKAAAACA9ssx12mjxSIiyiyne8LDmejUyoQZ1lYYmtlG8JQ1xVOcN3ihTQBwIAMFAAAAtC+OpcSV6U5KeV28waDTxbbhB9UBANRFBgoAAABoF+oX2Y3W6eINk5nrBABoAWSgAAAAgLYsPz8/P/9L5yI7sk4AgJZHBgoAAABoa5TpTiLiSDzFGwwGw2S14wIAtF9koAAAAIA2ok6dXXh4OIkn9QWoHUC7xSsP+BkyUAAAAEDr5px4UursRutidTqd2nFBtEHawm8Lz1ecvz3odrVjaXdOXzgtItpuWrUDAWBHBgoAAABolZTE0w6r1WazscCTf3oo7CHTYdP7X32YeN9jasfS7nx0bIuIjOwzUu1AANgFlJeXqx0DAAAAAE/VTzyFh99L4sk/fXD8g5+/9/MBt/X/OOmj7p27qx1OO5JXtFv/f/EicnjG4Tu636F2OABEmAMFAAAAtAr1E086XaxGo1E7LjRkwqAJP/neT9478t40y3+9FvdKcHcqwlpCXtHu32ycKSIpMSmknwD/wRwoACIiuWdy3zv63t6zey9cvqB2LGjvAiSgT48+MWExP7v3Z32691E7nBobvtqw5eSWr85/dfn6ZbVjgf/q3qn7UO3QuLvixvQbo3YsNQ7aDm74akNecd65inNqx4KmuHbt2vnz5yorLwcGBnbv3r1r165dunTxVuM9O/ccHjxcf5de15d1o3zi4pWLRrMxrzjv1i63/DoyKba/jjWhfOf0xdMfHd3y131/E5HH7n3sjfFvqB0RgBpkoID27tK1S//98X+/8+U7agcCuPD/Rv2/Z0c+q3YUsrNw54JPFhwoPaB2IGhNxg0YlzYmbcCtA9QOROZtm7dm/xq1o0AroL9Lv2LsipDuIWoH0gZVXqucu23u3w7+Te1A2pGUmJT5D85XOwoAtZCBAtq1i5cvGsyGPWf3BHfTPHP/b8b3HxMcxGR+qKxKqo6UHTcf27TqwF9E5NfDf/2HsX9QMR5lCQ8ReTgsZlpE4oN3RHbrFKRiPPBz5VcufnJ6x6r9f8kvOxLaI9Q82RzeW83VeRI2JHx86uOgjl2fjZwZN3BcmD/NK4SfOFdZtvXr7a/vzzhxsWBwr8EbjBvu7Hmn2kG1TV/Yvsg+mr3v7L5vrnyjdixtlrabdmToSOP3jCE9yKUCfocMFNCu/WrTryxHLOP7j8kav7o3E8LhZ/5dmPPopqTSinPLvr8s+f5kVWI4+93Zh/7vobLKsv95cN7vHuJPqWiEpC1PvXnoneg+0Vt+tkWtGOZum5uxP2NkyIi3J/x50K391QoDrcKV61d++dHM9V9tfOTORzYmbFQ7HABAG9RB7QAAqGbrqa2WI5YBt9z597i/kH6CH3o4LOZv498QkZc+e+nqjauqxJCel15WWTZj6C9JP6GxMsf98eGwmNwzuZmfZ6oSwBe2LzL2Z3QLDHpn4hrST7ipzh07vzsxY0Tw8E+//vTv+X9XOxwAQBtEBgpov/5x+B8iMi9yds9OPdSOBXDtR/3HJAzWl1WWWb6yqBLAu1++KyILR85RpXe0dguinxERtT7Mmw+bRWRu5KyBt/RTJQC0Rs9FPi0ipq9MagcCAGiDyEAB7dfus7tFRD/wR2oHAjRk4oAfisju4t0t33X+ufyyyrIHQyL7syQKmmRi/x90CwzKPZOrSu9Kv3EDxqnSO1qpHw8aLyK7inapHQgAoA0iAwW0X7ZLNhG5s0eY2oEADQnr0UdEzleeb/mulU5DeSwUmqFP9zuu3rh64fKFlu/6XMU5EenbM7Tlu0brFRTYVdut9/nK8zeqbqgdCwCgrSEDBQAAAKBaldoBAADaKDJQAAAAAAAA8C0yUAAAAAAAAPAtMlAAAAAAAADwLTJQAAAAAAAA8C0yUAAAAAAAAPAtMlAAAAAAAADwLTJQAAAAAAAA8C0yUAAAAAAAAPAtMlBAe/HWW28WFxd7q7WcNG1AL+UraV1RQ3sWm5ICemkDeqXneKvvpio2JQUkmbz2Ejja9I+zy0nTBqTlqh1F63b8+PEP3n+/qqrKS+3lLrHfI9oEU0mjjvTC1SwyJVTfm/4zSt1yihZN9uc//enUqZPebrVkXVKDAzgv3ZdD62a9NwejDgCAFkcGCmgv9u/b9/yC5958M/PMmTNNa8HxqbjYlDTq0OozZaVVZaVnMiQxooGPH7lrp2cv3lJaVTYnpmm9Nsx7HyGa9Jnfx2fnEp+afOndd9/57zm/bXoequbqlKxLmrQn42BVWWnVwdUyPWJJnpdD9ZgaoxRqKC4u/t3//E9z8lD13waLTc8lWrwRnO+pnoX3xR85AABoYwLVDgBAi/r0k08+/eSTR77//fHjJzS5kZCEzKqE6u9j9EbJPlEkMaHudtcPdPujNsBfzi5mXqm3pu60c+Xl5e+++86HH34wfvyEnsNuaWozwVMzS6cq34bGJhjEdKpEooK9FeTNhSaYyqrvUr8ZpWgBOTk7c3J2xsSMGj+h6W/y1XLXThejwQtRAQAACHOggPbp008+SXl+wXfffef5IcWmpFGpIqmTGvNH5twlvSYtkuzECKWMoqYoyT4fpMiU0Ct9SZqyRam2MNn3STIVF5kSHN8r7eWlB9Qqa8pdEpFsluzEiAbmBJWsS7JXC649Xn+jvTSp7tnV7ciTs3OqTLS/RCXrkrRL0tKdtriI7San7Nhin1njfMq12nf++3+9SFzISdMmpKUnOPqq21Ht4peaQhuXFzFpSVpSrR5rTdTKXeLYuf7hHsvJ2Zn0qyeSfvXEW2+96aOvTZs2ObpT8lDLlqU2JkY3A7Jou8miT4hpKP3UwCVzUfFac7EcL6PTkK51CZxGadrvnSZo5C5pcCZd/U5z0rQBaelL6kRSU+JXM2hz0rQBaabqeNJzai569WRJp/hrn2/JuqSagVFsSnI7gGu9dbh6AWuVhtUMZjfR1j0v57vJeWJL/cM9N2vmkz4dvW+99abNZqu5gjk7f/c/L5w+fdrzCOu/yeekTZItLyU0fJiIiJyofmXsly8vPSApfUlS9Uta/4q7fN8QcfMWsb3uELpp8C7ew+vdI05y0hosU61pzf3Iz0vvMz1bLMl93I2NVjhoAQDwOjJQQNtntVrnzX22rKysOY2EJGTuTBFJ2Vw1L9p5e05WstmgH+t6hkX0wrLNi0UWbyk1JUhNUdKWlEXjHL/Hp+4ZdLCqrHRhlIiIeXrB2LLSqrLNiy3JfRbKyrLSqoOrjZbktXkikrtk3IGsg6VKC+bpWTkSvfDgaqPosw5mTnUzxaPY9FyiKAWDMyU1u2bjkM1VZaVVZQezDKkrTCW1z65+Rzc9u2CnysTNi1MnOXI3iw71O1NWWudFc3aTU45IHrFFiWR4YkR6/VOu375TJAezDk1qYAkVc6rMLSutykwIcdFR8Fi93py93f6BZ1uqpOhialeW7am5iNmLZKay0Zg6yX1qyd3hjfPJtm3K18ULF7z79d2339bpK6Bx/0rWH5Al65K0ARHJ5pSZ7oaoNHzJ8tIdFa87U7ITs3JFStYtrL5YB1fvGaekUJ2G9CHnS+A0SudNWGzJ3qq85nnWRW5vW5ediohI6oGBB6s3LnR86h6+U+lXkvs4PtinZssS+/01qpfVPsIldYWppE78xtRVTsMgeKxev2ibPYG7NTt78Ri3N47zW4eLFzBKt1hSt9qTpNUZwJpoS3cOcY623nm5eVlcH94Yvhu9Fy9cuH79ehNCcqj7Jl9kWnFo9bQoTw5NTTw+s+57uyVVZpVWlWVODXV3xeu/b7h+i6h+kzyYZUgd5eZlv+l7uPt7RHLStKNks/syVefWhtcb+dWDIWrOmQy9GFafyUwIcf9CtcZBCwCAF1GFB7Rl+fn5Gy0b8vPz4w2GT7Ztu3DhgrI9MjJy/PgJ/95mrayobE77xaakUan6rIMN/MJdTfl9ekmwiEhUYpYh1ZRTMjVGRGrNDTFmJMaIiPQfaBCjPjZEREL7jbD/MHphWaa931MHRIZ7EGDJ1uxso/6lEBGR6GkZ+kXZIkoVoX2HUycsIvo6R3mlo+3FCbEi1WfhXkOnnGddZFh9RvkEGJWYZYjYmjenTrVjvfadI3EqBHMpRRfjvqOFMXrj9OytSxKmhpacOKTPWhItRSaTJWVuZrCISGjC3JTkFdUXMSsxWpwjd6lou4vDEzwtTIuJGfXn//2zhzs3zfHjx3//4v8q3wcGBv5o/Pjb7uv1783bm9Fk8NTM0qmZJeuSIgLS6mZvq7m4ZDlp1T+MmlNlH4wlJw6JDLFvXrTSNC0zISQ0wVQmIlIsIqmr1iVmTg0NnppZKiLiIrsXPTYlW3nNc7alGvUH3Y5MN51KdR5t4CC9HBKxpyY3xyiRz0pJHGfNUc7RvmfwwCEiQ3SOEb6n+hztDRYVmEWcp9iExOiN060586Jj7KPFXYji9NZRsjU7e/GszBBHGCu3FyckjE2RUdtyF0ZFS1GBOWWmKVRyslKNGQeVMR+TuNoYUSfamvNyKWebi8M9X1pr5ao3bu1yq8e7N8WL//u/J07Yp3oOHTZs/PgJh/ceOXTO/Sk1pGTdwuyEJZkh4skq4NXvAI739v4ikjLWnr1yd8XrvW84/zNhLyMtWVfzJhk80DEUb8LNe7ire8S0UGse4u7edMhOzMqdOi/acWu4HAwDbx5YKxu0AAB4HXOggDbrpWVLX1q2tLdGk7biZYNhcocOHUQkMjIyJWXh7Kee/t7ddzez/WJTUp/p0sD8o1qKCswyvHmL0dTUUMzK9vCQUycsMqK/PccR0r/6c0hNScWqPS6WOGluR95SfOqAWJL72EONSLTInlM3/TTYlEhcdxSaMDcl25RTIkXbTaIfG6pcxNRR1bUto1LFfPxUI7pp5uEtJTAwcFJc3Mt/SP/pT6d0797dG00GT52VIqlWN5PpGrxkNeVLz5kcrWUezJLq65VkKhYJScg8kyGJETd5PGXMmBRz9vZiKTlxqMGqQBedulRy4pAYB/VvaBdXaoqPVh4w1vlZaGyCIXVrnkhRgdmRIb2JUycssmhcdZvjUsVScEL5vJ1qzRHJ2Za6eEy0Eq15eoR9t4hksxw40YhZeM08vOUMHTbs2bnznn127tChQ5veSl5W4pCGJu7V5nhvd50kauiKO/PCPxMKF+/hbu6RbLPoa0/Eqy96YdnmxamTnCrmmj8YGLQAgHaKOVBA2/TSsqU2m+25Bc+Hh4crWwYNumv8+PHNTzwpik1JfaYP3+n507VC+91swfKbyctKtKTYe8xLD/Do8Uz9BzqtAF186oBIP5GSdStTjRkHTQnBIiXrkrLrfsZudkfeEtJ/uBj0dWs6bvL5oSmRuO5ISVis3J4j2aLM0AntZ5SUuXUuelGBp924PNzPTIqLGz9+wi23NHkBcteKTx0Qg97NFImGLllOVrK5uioqJ01rtm9WplaJshjZLH2sKSHY8XyAnDTtqIWmsUtcdRWlW2xZtXWWmES/0v2d6KbT+oIHDlHSiI0Z9kWmFanVhYpFpgRLnSxv8Fi9vs+23LGSunhMqesW6uo/0CCLZ9kreWuExiYYIrbm6SQ1Zew8e7RGvXLj13D/HM86XB/uV7r36P7s3HnNSjxVy9mWKqkS4FgGzRIRcPymE4XEPmluUO1tN7niTpr/z4TCzXu4q3tEn7Ukc6w+qc9C09iGqueiF5aVLhSRIlNCxKQlY0rHuhoMjVlliUELAGinmAMFtDU2m01JP6WteNmRfhKR2U895a30k+Sl95kuWQcbk0oIjU0wZJtySkSUjwc3WZjZDeXvtyXrVnq4PnTwWL2+eiGnkq3ZNZ987LNv8rLcPGi8SR3ZV03KXTs9+6bFdx6J0i22Lwhln5biwerdtddv8vDx5O46itIttiSPmj58rvIBJjQ2waAs5SPKgsFuF5kK7TdCHJfbusi+0ePDVTJo0KCf/nSKl9JPzku5NzwkbnbJDhUoS8WvsA9G55Xd+w80yIj+wc5HDRyklyH93PQVPTYlO3FcstntDu46dS1mjGNuV8m6lani6aylbGUiRk5Wcv30VkiM3pg6aVSq58/vCx6r1y9a6bRIs33F5eCxev2icZP22Gu4JGZMzbJuxaakBlaeHjhI7zgvx/uG54erpbnznpzEzCutKiutXixPjBkHG0w/Vd/Xbt/bG7riNZz/mag1zpug7nt4A/dISMJLWZI8y93bkfNzFUL7jRD9wNDmDwYGLQCgnSIDBbQpNpttbcYaEUlb8bLXG48ZkyKpkwKSTNnbUkWyq8sZPHyuWfDUzM0jlHKAcamLt3hWu+csKjHLoHT6nMxabVQ+YITGJhiyEyPcBhCSkLkzRan8ijgxJMUeyawUUUoqtul2ptizUY6zK3bZ0c2EJGTuHKIURk1alLLZS39zjl54cPWecfYCCsk4uDDKs1O2R6IddWj1mZtPW3DTkYhI9NgUp+WinC/iTU4zelqG3l79sa1flqGxh7daNVenESfbwCWLSVxtVAokF8rcDL0cKih2vli9IhKHbF4YJTHzDmYdslcJ9Zk+fKf7ix4zJkVEGlzh22WnbkTNOZNxQLm/EsWzwRaaMDfFXn+0dczmxdW5CacdYhMMIg0slF5PrRcwNWVn9WSWkBi90XmluZpotQ3n0EMSZi62V4w+J/qUxh7eetW8DTbuuJQEec7te/tNr3iNWnfNnpo3okYG7+o9vMF7JHjqrBTz9Odc1+KFJpi2DK/+927SnoyXpoa6HgwhMXqjJbmPZ1keBi0AoH0KKC8vVzsGAF7jmP3kyc53/emucxXnbjxdEhAQ4OvAgCb74NTWiZafTQmf8ucJvl2JvL6dhTsn/X3S5LvizPo3W7hrXykyJUQU+HktZE6adsWgtlM6NPjN6GMXTp568pSvVyKvb9T/jTp07lDh9M9Du3thUibaj+A/h5dWnDv/zPkOAfytGgDgTfy7ArQdGRlrPE8/AWiHinOyPV7hWy25W1ObVqULAAAAv0YGCmgjrFbrDqt12vQZ6nRf83Q55y+3z+TytponH9X68mQJJE809+x8HF6Dap5C5fzV6CobNJ+aw8ARgHP9kT+Ojbz0mkIncX4qX62vZiwPhKZS+U3ewXf3kZdaZtACAOAeVXhAW5Cfn//SsqXxBoPBMNnzo6jCQ6tAFR5aNarw0OpQhQcA8BH+XQFaPeXhd6N1ukalnwAAAAAAaDFkoIBWz2rdrtFopqtVfwcAAAAAwM2QgQJat/z8/I0Wi2rLPwEAAAAA4AEyUEDrtjZjzWidLjw8XO1AAAAAAABwiwwU0IpZLBtEpMn1d7d1uU1EiitKvBkT4G1nL5WISMuv4uzotLTC1vJdo80orTjXIaCDKgP4tq63iUjxd7zJoxGu3bhWWnHu1i63sgw5AMDr+KcFaK1sNlsz6+9GhIwQkQ9ObvVeUID3bTn1qYjcH3x/y3cdoYno3qm7teg/JZdIQqEpPjm94+KVbyJDIlXp/YE7HhCRDwt4k0cjbD75LxEZcccItQMBALRBZKCA1mptxprw8PDm1N8ZvmcQkT/secN7QQFellOcm3X4H10Du/7kez9RJYBH73lURJblvapK72jtVuxZKSLGu42q9K68yb+y90+2ivOqBIDW6OU9q0Rk8t08XRcA4H1koIBWyWq15ufnN3MB8ri74n444IdfnPvysff/y1uBAV70xbkvn/hotojMHTm3Z+eeqsTwTNQznTp2St+7+tV9f1YlALRe//3v/7fpxJbw3uFPPvCkKgFE94n++b0/L7lkS/wwufzyBVViQOuSvHXuvwtzIkMiHx/6uNqxAADaoIDy8nK1YwDQaEm/eiLeYDAYmvsnytPfnI43xR8rPzbk9nvmPJA8fsCYO4K0XokQaLJXciZ5AAAgAElEQVQqkSPlx/5x5J9LctOv3biWcE/C2olrVYzn3S/f/c2HvxER42D99IhfxPSJ6hYYpGI88HNllRe2FVpX7l9rLfpP907dNxg3jOwzUq1gKq5V/PgfP84rzruzR9jcyFn6gT/q26OPWsHAb527XPavgk//uC8j9+xebTetxWiJ0ESoHZQEVFzr9MW5jqe/Cai8rnYsgMpu9Ox0vf8tV4dp1A6klo5F3wUePt/RViHXqtSOBY1Q1bnD9ZDu14bcfqNX15bvnQwU0PpYLBt2WK1pK172SmuF3xbO+XjORyc+8kprgHfNGjFrycNL1I5CNh3b9Nwnz53+5rTagaA1iQyJXDFmhbIYk4q+vfLtMx8/YzpsUjcMtAqjwkb9Yewfwnur/4DdLlu/7rrta7l2Q+1AAD9y47YuleP6Xx0RrHYg0qH8ctfNJzp9ziqZrduVUaEVPx7Uwp2SgQJaGZvNNm/us16ZAOXsgxMfWL6y7CvZV17JewLUF9ozNCY05uf3/nyYdpjasdhdv3H9L5//5aMTHx0+f/jK9StqhwP/1b1T96HaoXGD4qbcO0XtWGp8WvCp+Stz7pnc85WsCdUqXbt2rbKy8tq1ax06dOjcuXNgYGBgYKC3Gu/Zpedw7fAfD/6xsnaY6rq9c7jT/lIRkQe08r1bpGdntSMCVFVVJecuy6HzcuSCiFT+oN/lH/ZTMZyORd92e+tQh4tX5JbOEqmVO7tLp44qxoNGu3RNTn4j/zkrN6qu9e956dfDqjq33OpMZKCAVsa7E6AAAEBrYbPZrNbtO6xWm82m0WhG63Q6XaxG41+FOc3UdfOJLtsLRdNVfjpI7lRnBUDAT+0/J+8eFZFLU+6++oBKM6Gqqnq8srdjySWJ1Er8AAlkXelWq+yymI7L8YtXh2ouJbbc1FcyUEBrokyAem7B8815BB4AAGjV2moqqmPxpR6v7pEAkaeHyx2suAfUs/+cvHv0Rq8u38yPVqX/Lh8XdP1XgYT3ksfvViUAeNPl6/L653Lu8qVf3Hs1onfL9NlxwYIFLdMTgOZbty6r4tKlqVMT1Q4EAACoplu3buHh9/7oR+N1ulgR2WG1brRYdlitly5d0mi03bp1UzvAJuqyvTDw1EUZEybDW+izENDKhHSTr78NKPzuRki3G8Eq3Ond/nEkoPKa/Gyw3EJ5bOsX2EGCAuVQmVy9cfW+FnoaldcKyAH4ms1m22G1PrfgebUDAQAAfkGj0RgMk3W6WGVW1EaLZaPF0npnRQWeuigiEtFL7UAAPzbkdvnqQsdT31wd2tI3eIfzlR3KKuWOIAnr3sJdw1eG9Za/Hws8ebHFOiQDBbQaFssGjUZD/R0AAHCm0WiU3xAMhsmtOhUVcPGKiEhvFR4QDrQavTqLSIdvVXgoSsA3V0REenGHtiGBAXJr54ALVwKu3ahqkVW9yEABrQMToAAAQMNafSqqqkpEJEDtMAC/FiAiUqVGz9yhbVOLjigyUEDrwAQoAADgoYZTUeHh9/IbBQCg5ZGBAloBJkABAIAmcKSipk+f4XiCHqkoAIAqyEABrYDVup0JUAAAoDmUZcsds6IO5+eTigIAtCQyUIC/s9lsGy2WadNnqB0IAABoC5RUlIjUSUXdEx6u08WSigIA+AgZKMDfKROgdDqd2oEAAIA2xTkVlZ+fv8O6/aVlS5VUVHj4vfzuAQDwLjJQgF9TJkDFGwxqBwIAANos5W9dOp1OSUXl53+5NmPNRssGRzaKiVEAgOYjAwX4NWUClPL3SQAAAJ9ypKLqLxfFxCgAQDORgQL8FxOgAACAKhwP0ROnGj0mRgEAmqOD2gEAcIsJUAAAQHXKxKjnFjyftuLleMPk3hrN4fz8l5YtnTf32YyMNVarNT8/vwnN/vOf7129etVbQRabkgJ6aau/0nO81S5cK1mXpE0wlTSzlZw0bUBabrNay0vncvvIyZMn8/LyvNhgzU2aZCr2YrvuNH5sVA9I+BBzoAD/xQQoAADgPxw1elI9MSo//8sd1u35+fkajUZElLlRjslTDcvZufODDz4YP378hAkTO3fu3IR4ctK0o2Rz1bxoETlxPNuYcdCUENyEdvxCkSkhIjvhYObU0GY1U2xK6pOtP5OZEOKluPyT86WH76x8/Y+DBw8eP35CVHSTXmrnUZ2X3me6ZB0snRoqOWnaPmn9WvXlayc3mi+QgQL8lMWyQUSYAAUAAPxQ/WyUzVZ6OD9/bcYa5afilJASEZc5qUvffbfBbP7www+VPFQzwik5cUhGjGm16afWJ3hqZulUf2gtak5VmdfiQH1Hjx49evR1JQ/1oPbuJreTsy3VmHFQSbDGzCut8lqAaGWowgP81A6rlQlQAADA/ynZKINhslKppxTrxRsmi8gO6/aXli19adnSpF89MW/us/PmPvvSsqUZGWsyMtaUl5crhyt5qKdmz7p48aLnnRabkkaliqROCkjLFTl1wqIf6OHsobx0eylQWvqSXtolSplRkSnBXsGXtK5IRKnH8axiqGbPtFzlfxPS0hMcB9ZruVYMvZTqs9wlEclmyU6MqNd7wzVBNe0krStSpplkiyW5jz3m3CXVvTidZvqSNMeWeju4O0FHGEWmhF5J64qc6ubqxFB7/2JTkuMFrDkp55dCxFGFV7uU0vHKl6xLqlVfWevSO1Va1S/yykmzX2VXndY9xwavWu06wZpOXb7CSUvSkmpdPvuLphycWzPqPHv9XTpz5swHH7zv06+dO3c6ujt69OjKla+vWvnHxsToPKpzt6bKiP6e5YjrjShpzMV1DLMl227Sj/sBWfun9sFcsi5JuyQtPaCXNuC3z9a+0eqpe6PVa61WhWDN6PLwNN3dYi1d59gkzIEC/JHNZrPZbDpdrNqBAAAANIIy40mZG+V4cJ6tmojk53+pbLxx/brzgVeuXLl69ap07OJhRyEJmTuPV5diFZn2SPaiCG2iiIgs3lK6MMrdcblLxqUqOxSbkvqILFY2RiSP2FJqihLJSw+ISB+4RUYdWn2mLCFEJCdNO8sU666+r9iUVL1nybqkiATTwbki5lTZWVZqctly2ZwYyV0y7oBSjiR56QHjsnIS5iw8uHpPdb1S/Tbd9F67nYWmsZlzzmQcqC4OKlmXNGlPxsGqhGDJSw8YlzTwYOZUEZHUPYMOVpUFi/MORaaEiKR1bmoAY8akyDhrzrzoGJHinGyzQb8yVLa6jSHB9Qufl+78ko7Kyp1arwgrJCGzKqG62V6TZFZCiEix6bnEIZurMqNFStYlRawwJZqcL32e1dF+n+nDd5ZlxkjJuqSImiKv1AMDD5ZWhUpOmnbUQtNY92VTDV+1sXp9Yvb24oSEEJGcbamSsjnG5QsoIpK9SDZXlWVKkSkhYtKSMaULXedGPX39XSooOPXu/q3ufhoWFuZpQ/UUFha6+1F5+UXReN5StNOozl0i+oFiSuiVbBYRw2r39WsuRlRIzcWtXcFX/+LmpY9KTdlZNkcZBiIpbqNrcEC6ugdFRBYd6nemrDREpDj2/M2q8Bw3msvWdItl0ta8OTFRIkXbTRZ9wpJg8fg03Z2R68P9DBkowB9ZLBuUZ9CoHQgAAEBzOf9W40hLHT927MyZM8r3YWFhEyZO7L2jq5RfbkoHRQVm0WdVLzdjz7a4/DCfZ10kKTujRERCEmYunp5dZ6O9qisvXSzJa2clLIySmHlKVsKlkq3Z2Ub9SyEijlKynDSRFF2MozvD6jP2lhOzDBFb8+bEREUvLMtUfl586oDI8PptLp6VaW9zVkriSnviw5XsROWTc9ScqkwRkZqJD46PtfauU005JVNjRESfEBNcvUPK3MxgEZHQhLkpyStySqa6THVF1XxaPnFcic151fC6MZxwGWn1T5WSSRni+nyUHZTUjMl+mTKrK7ZOnbCI6F0fU50VEvuLNs6ao3z8TpmpjISBg/RyqIFOb3LVFsbojdOzty5JmBpacuKQPmtJtBSZXLyAMSKiz0qMFhEJ7Teige48f/1defDBhzJ//oSHOzfNyZMn//d3/+P438ioqIT7x8qmJhc9Zieu1J8pKzXVSRG63LP2iFIq+JSrE5O42hjh9uLWHQYW9+E0NCBd3oOxImLUx3q88FP1jebmjh6bIqO25S6MipaiAnPKTFOo5GR5epouuXyVYjyNtuVQhQf4HZvNtsNqjWcFKAAA0NaFhoZOmz598ZLUZk39jppTVVadcopKzDJkm3JcP1it+NQBMfQbeNONUXOqtqQsGnfTCqlTJywN1RYVnzogluQ+9gqaiESL7DlV4lxWNivbdZuOrgPGpYqlwHVOR6IXlm1enDrJdb1eUYFZhjdUmVhUYJbUUdVVYKNSxXz8lJtdo6dl6BdtyxXJ3ZqaMrbW/LIGY6jVnaOu7Tn3GT0RkZy0iMQhm2umfdXUZK3a43aBipITh8Q4qH+DDXvK9VULTZibkm3KKZGi7SbRjw1t1AvoSjMPb0GRUVEpCxfNnv1U3759m9PO4lkJjiyMpFrdPKWu/ogqOXFIzNMj7Fsiks1y4ITrgsrawyC0n7GBaBoakJ7fg55w3VpM4mpjqjVHJGdb6uIx0Y05TZeaeXjLYQ4U4Hes1u3KegpqBwIAAOBDv542LTb2YV+07C4rFNJ/uFgKTmRKyM02StScqrI5ojz0alz62LI5rmYT9B9oENOpEoly352hXqlOXnqiRSkUEslLD6g7TaP/QIMsntVAIaGz6IVlpQtFHAVf0xw/Ce1nlOwTRRLjLgkV2s8oKXNdn1e9E4nRG6dbc8bIohRdvTWk68Yw1lULOVnJ5hT70+ty0rRmNx3Z65UyHbNjStatTK1+ymHJuqRsN9mr4IFDlAyOF1ajd33VRGLGpJhXbs+RbFFmvbl8AYsKPO2mMa+/WiKjoiZMmDh48OBmt9R/oKH25Lh6iWAn9UbUEDHq69aiukpg1R4GRQVmkblu+mhwQLq8B0uamoRyc0eHxiYYIrbm6SQ1Zew8e/CenaZLrg/3Q8yBAvyLzWbbaLGMJv0EAADatNSly7yVfqq9Fu9ziZY683ScROkWS+rWPGXPVYvqbVQWjV6VUdNgSP/h7j8tB4/V683Z253WDK49CShKt9iSvNZpsfPq6VTK9ISSdStTXba5aKXTOsQNrXZcvYJyaL8RUnst9tDYBMdcsLysRIujJsh5h9QV9tW1c5f0clppu77Q2ARD6qhxB+z1ZQ3GMHCQvnqGS8nWbKdZXocKlEW+V9Q/aYWykE291I99clBeVgNFVTFjHNNqStatTK0pqWsCd1ctSrfYkjxq+vC5yod8z1/A0H4jxHEtrPZR16jXXw133nnn7NlPeSP9JLVHdcm6laluy9lcjaiYMSnm6VlO682nu8vLxIxJkdRV9uW6t7kbZ9XcDkiP70GPuGsteKxev2jcpD0ZiTHVwXt4mi5vMc8PVxdzoAD/okyAMlCCBwAA0KCYMSkyblLAodVnMjPPSFKfXskiIqLPOtjAvJLohVtSAsZpF4kYM1Yvlmz7xoOrEyK0ASIisnhL6cwoeaBM69ygu8VflAXR7XsaVp/JjD6RVrs7p5aNGQcXRolIYpYhNTFCmyj6rC2rjRZlplJsgiE5MUJ7YkvpQuc2JWVnmZtFoEITTFsKAqrXXzdmHFwYKhKjN05P7mMp2Fk2Z2rm5hO9IgKm209qaqhIraqcYOcdJGVzVUOzJ4LH6vWiVJ/dNIaEmYunTxrVK1VEn5WRorzGMYmrjRHJfSzJYli9M0Nvzi4oljrLANmUfNyoXo58QMrOsjlTZ6UkjpsUkCqSsnlniow6fkokuObSz6reN2rOmYykPr209gvRrDWYXV41EYkemyIijtyWqxfQdd1T9LQM/aLpEQHTRVJWZ9lnAzXq9VdBx44dm9tE7VFdc5M2cLIuR1So08WtvsFdp1eUYRChTRQxpqQ0UIXX8IAMcXEP1soPhjjdaDfNdbpqrboRkZrUcJSnpxni6hZzebgfCnA8BhWAP5g399nROh0ZKAAA0N70fCm3Q/ll+V2UdG72R1+P5C7ptcrtmuWAfzpyQTLzr96nvfTze1q4544nL/T40+dyby/55d0t3DV86KV9cuHyxRdHVXVqiQo5qvAAP6I8qJj0EwAAgE8UmRKqi1OKTasWNbxWNwDAq8hAAX7EYtnAClAAAADNVfMANeevpHWSMDfF/gCyPtPF40KVmqfX1fpq4NFv3tRSvdc8HazWl/tHAbY+OWmuXslmrfKDpmmhUe3bK94ObhmvowoP8Bc2m23e3GenTZ/BU/AAAEA71OJVeEArRBUevIsqPKB9UtYgJ/0EAAAAAGh7yEAB/mKjxUIJHgAAAACgTSIDBfgFi2WDRqNhDXIAAAAAQJtEBgrwCzusViZAAQAAAADaKjJQgPpsNpvNZtPpYtUOBAAAQDVVnTuIiFRcUzsQwI9VXheRKlVW6+8S6AgAbUflNekQ0DLLkAsZKMAfKCV4Go1G7UAAAABUcyOsp4jI8YtqBwL4sRMXReR6SLeW7/n6Hd2kQ4Cc+kau3mj53uETX38rl69f79O9xTokAwWozGaz7bBa41kBCgAAtG9Xh9wuIpJzVu1AAH9Vdll2lYjItSG9Vei9Q8DVYRq5USXWYhV6hy/sLBaRqxEtN5zIQAEqs1q3azQaHYtAAQCA9u3qUM21AbfI6e9k40m1YwH8z+XrYjouN6qujAq9cVsXdULQhYqIbPlaPj+vSgDwpk8LZf+5G7d0vqILa7E+yUABKttosbAGOQAAgIhUGgZXBQXKf85KZr4cvaB2OIB/uFYl+2yy8gs5fvFa/1sq9APVCuR6356VcYNERN4+IptPia1SrUjQLF9/K+8ekw9Pi0jl5MEttgiUiAS2WE8A6rNarSJioAQPAABA5Pod3b6bNjTIdKTjkQty5IJ06iA9+MCC9q0qQMovK99eHdK7YsrdEhCgYjiXdaFVHSXoveNiLRZrsfTsJIFqxoNGq7yhPPDhRs/OlcbBV8Nvb8nOA8rLy1uyPwDOMjLWaDQaMlAAAADOOuec6bS/NLDwW7nGmsdo76q6drw24NarkXdcHarG8k+udDhX2TmnqNPhsg62CrVjQaNdD+1+dajmii6sJWc/KchAAaqx2Wzz5j773ILnw8PD1Y4FAADAHwVc5tHvaN8CAqo6+/HiOdduBFyvUjsINEJVl44q9s6kVkA1yhrkpJ8AAADcUffDEoCbCOxQRVIBHvPjZCrQ1rEGOQAAAACgnSADBajDYtkgrEEOAAAAAGgfyEAB6thhtcYbDGpHAQAAAABASyADBajAZrPZbDadLlbtQAAAAAAAaAlkoAAVKGuQazQatQMBAAAAAKAlkIECVMAa5AAAAACAdoUMFNDSLJYNGo2GNcgBAAAAAO0HGSigpe2wWpkABQAAAABoV8hAAS2KNcgBAAAAAO0QGSigRbEGOQAAAACgHSIDBbQo1iAHAAAAALRDZKCAlmOxbBAR1iAHAAAAALQ3ZKCAlnM4Pz/eYFA7CgAAAAAAWhoZKKCF2Gy2/Px81iAHAAAAALRDZKCAFsIa5AAAAACAdosMFNBCWIMcAAAAANBukYECWgJrkAMAAAAA2jMyUEBLYA1yAAAAAEB7RgYK8DllDfLw8HvVDgQAAAAAAHWQgQJ8TlmDPDw8XO1AAAAAAABQBxkowOdYgxwAAAAA0M6RgQJ8Kz8/X1iDHAAAAADQvpGBAnzLat3OBCgAAAAAQDtHBgrwIZvNtsNqZQ1yAAAAAEA7RwYK8CFlDXIdc6AAAAAAAO0bGSjAh3ZYrZTgAQAAAABABgrwFZvNZrPZdLpYtQMBAAAAAEBlZKAAX1FK8DQajdqBAAAAAACgMjJQgE/YbLaNFgsleAAAAAAACBkowEeUCVAGw2S1AwEAAAAAQH1koACfYA1yAAAAAAAcyEAB3sca5AAAAAAAOCMDBXgfa5ADAAAAAOCMDBTgfaxBDgAAAACAs0C1AwDaGqvVKiKsQQ4AANDeFH9XvO/svvLL5WoHArdCuoeM7DOyW6duagcCtEdkoAAvy8//Mt5gUDsKAAAAtJzPij5Lz03/8MSHageCmwuQgF8O/eWChxaE9ghVOxagfSEDBXiTzWbbYbVOmz5D7UAAAADQQv6070/PffKciGi6aWL764K7a9WOCK5VSdWpCwVbjv7rr1/89Z9H/5kxMeMH/X+gdlBAO0IGCvAmZQ1yHYtAAQAAtA/vfvmukn5a+MjzTz00S+1wcHPnK84v+/fyv+77W+I/E//1s38N1Q5VOyKgvWAlcsCbdlitrEEOAADQTlRer1z474Ui8uqkP5B+ai1uD7p9+fhlM0cmV16rfMH6gtrhAO0IGSjAa2w2m81m0+li1Q4EAAAALeHNA2/aKmyT7zX8bNgUtWNB47wwZtFdtw/aempr7plctWMB2gsyUIDXKCV4Go1G7UAAAADQErYVbBORnw59VO1A0BTGIZOl+iICaAFkoACv2WixUIIHAADQfhy/cFxE7uszTO1A0BRDgyNE5ET5CbUDAdoLMlCAd1gsGzQajcEwWe1AAAAA0EKuXr8qIp0COqsdCJqic2AXEbledV3tQID2ggwU4B2H8/OZAAUAAAAAgEtkoAAvsNls+fn54eH3qh0IAAAAAAD+iAwU4AXKGuTh4eFqBwIAAAAAgD8iAwV4AWuQAwAAAADQADJQQHPZbDYRYQ1yAAAAAADcIQMFNJdSgqd2FAAAAAAA+C8yUECz2Gw2SvAAAAAAAGgYGSigWZQJUJTgAQAAAADQADJQQLPssFqZAAUAANAeHD16VJV+S9bPCEm0lHh1z1Zg12shQa/lqR0FAC8iAwU0nc1ms9lsOl2s2oEAAADA597M/MvKla+rlYdqSXlL+4Ys3d3eugbga4FqBwC0YkoJHsuQAwAAtBN5ubl5ublR0dHjx08YPHiw2uG0aSOfLq5QOwYAXsUcKKDpWIMcAACg1bE11bVr15QW8nJzlyz+/R/+8PLly5cb23ve0r4hQX1DghwzfUrNiX2nLX1tmrKxpu6s1JyobJmx7ljDTbrc07HRdZuvLHVbr1eyfob+RZEX40OW7pZdr4UkvvZKYt+QoBnmQqUyzt7stPWlIvZauVeW1t7o3LtjQlOhpfocnWc57X6leuMru+p17Yi85tgZ5kJpXL8A/AZzoIAmstlsIsIa5AAAAL6j/MZV+7+ldX4qIueqv3HeWOd7r/v8wIGLQy5K50YcUrJ+hv6L1w9UGIKl1Jz4wLT1e9dOERHZ9KJkV5xeK6XmxAf0S0cXPx9Zsj5lpih77n4lKF6Mce7bdLFnyfqUmUM3FmdFipSaEx94Y/1ja6doPWwzeMqa7GN99bKx+PlI2bVDzMvl09PFWSKy+5XBn686etoYJrLrtZBH3s6b8nSUiMjyz+/aW1yhlV2vhTySYh69RrejVu+v7Dr925Gl5vmzh316eu1IkULLtMGrzY+vMYaVmhPjP39rb/EUrRRapg2eYT26JvsFp67tdr8y2H5syfoZwwe/1q/C834bcXUA+BoZKKCJlBI8taMAAABolRxJJZvNpiSVbDbbOaeNLo9y/Pbl+Ka3RiMi94SHO/a5R0Sj0bo8yl1rHlqRtvzs2bOO/73//gc+67rru8rvPG6g1Lrx/QXPrAkWEdEan5k/89UdJVNGi0jcW49FiYho+w2t2TMuPjVYRCRy6lsTl21sqM36ewZPWVNs36GgwCwS36g265ivs+dxIn9bsUb5ruTk5yLDHDs8OUUrIhLWL04+t297UckxaY1Zp0U5X/s3IoUFm0TiRKRwxybzxLjlyrGGtRUGEXGx9PiuHctkfvZI5bySFzwRb92lZKA86ReAHyEDBTSFzWbbaLHEGwxqBwIAAOC/lERSfn6+kmM6nJ+v/K/zPkoaSKPR9NZoems0Go1GSSE5J5v85M9+gYH2T08PPvjQ+AnjBw4clJn5plR63kBBgVmWmfsuq9kyv0BGu9tz2DP2PFrwgGGu9mlwz12vhTyyXEREJsYZXezZJKXmxAdmmkVE4owTG9gveMqaAzJj+OC+M0VEJq46usYYJnlL++pfFBER40T75KvCgk0y7Mmwm/RacvJzMcb18yA+l/0C8B9koICmUCZAUYIHAADgoMxdys//UkQO5+c7Z5qULJI9wRQeHh5+r4iEO01cai0cuacmHd2vn1EWPFOnNKy0wM2em06Wykit2CccucvAuNyz1Pzq8ri39q6dohUpNSe+v6nenk2x6+2Z5vnZSgXcrtdCzA3tGzxlTfEUEZG8pX318y265fLGi9UpoULLNPMmEWXu0qaCQolqME8UPGCYmAsKRII9iLFuv1kGT44C0DLIQAFNscNqZQ1yAADQnrnLN2mq00yjdbEajaY1ppncmTZt+sBBTcs9KbS6+InDX7VMzTIEKymSL14/kOVyDpRWFz9x5hPKQkul1o3vK1Vrjdpz07ECEa3senumWeLiq/fcuKNkiiFYdq974v0G1pZy7/OCQokKKzW/ulxkvrud8pZWr+Uk0u+uiSJ3BsvXIu8XFIqESd5fZ2+SiXEiEjY6zjh7045S4xStKEtTfXraxW/YI0cvkHjrrqejRkrJ+tX2irxdHvYLwI+QgQIaTfl9S6eLVTsQAACAFmWz2azW7S7zTcrMpraUb6qveeknkepFvocHzRYRkfnZFYZgKW1gT33QchFZ8MJ8+eImbdbeU2t8Zv7MR+JDXhR5YWP2C6I/ViCiDZ6SumrjA8ODZovMX/XWRHG/DlTUD+bLI/EhX7x+4BmnrSMfW2VcPnNw35kycdWnr8eZNxUUSpTLw5/fuyrxgZAgqT7NSJHIJ1+YrX+k7zKRBZ9uXPBifEGhSJjWmLWxIOiBkCdEROLe2rt2pIjU7zryt0dfnza4b4iIyMRVR5922ambfgH4kYDy8nK1YwBaGYtlw01J/N0AACAASURBVA6rNW3Fy2oHAgAA4FuOiU6OrJOSb9JoNG0+3+SJ+zPvP3nh5FfPfHlL155qx9I4JetnDD+WrEwXare2nfj0sfWJU8Kn/HnCn9WOBWgXmAMFNBprkAMAgDZMmegkIhstFmWLRqMZrdPFGyaTcmrV8pb2feMuZXGo3eueeD/urVS1IwLQvpCBAhpHeaQLa5ADAIC2pE7WSZnoFG8wMNHJb9Q8h66WFzZ6Po8p6vHXZbC95E1e2Fg8RcyJfZvZJgB4jgwU0DgWywY/eR4wAABAczgq7HZYrTabzZF14i9tfklrzDptbGYbYYa1FbUm8nuhTQDwGBkooBFsNtsOq3Xa9BlqBwIAANBEdVYTVyrsmOsEAPA1MlBAI1it2zUajU7n4imxAAAAfqt+kR3rOgEAWhgZKKARdlito0k/AQCAVsJ5upNGo9FoNBTZAQDUQgYK8JSyVoJOF6t2IAAAAA2pk3gardON1sUyiRsAoC4yUICnlBI8liEHAAD+SUk8OZYVp86uBXTq0ElErty4LNJT7VjQaFeuXRaRwA58KAZaCDcb4KmNFku8wXDz/QAAAFpQ/cQTy4q3mLt63XWk7MiB4s/HDhqjdixotM9LvhCRQbcNUjsQoL0gAwV4xGaziQjrJgAAAD+hJJ6cVxbX6WKZrN3CxvYb+8HxD9794u9koFoj00GziHz/zu+rHQjQXpCBAjxisWzgVzoAAKC6OjOe4g0GEk8qemLYEy/nvrzxy/ce7h+beN9jaoeDRnjh49+dKDs5bsC4qD5RascCtBcB5eXlasfgVv65/G+ufKN2FKira2DXwb0GBwUGeb3l0kulX1/8+nrVda+33EwXLlz442uv/fgnP7nvvvtaoLteXXsN7jXYFy0fKzt2vvK8L1oGWlKHgA5hPcNCuod4veUr1698df6rimsVXm8ZcOjZuWd4b5+UR526eKr0UmlVVZUvGofqLly4sH//vgP795eXX7jttluH33fffffdf+utt7ZA17d2ufXu2+9ugY5aqX8c/sf096eLyHOx834b83RAQIDaEeEmzn5X8tK/09YdeLtbYLePH/v43t73qh0R0F74YwbqyPkjf9zzR/Nh87dXv1U7Frg1fuD4/7rvv34w4Adeae3/Dv5f5oHMPWf3eKW1NkATpHn0nkd/G/XbkB5e+Ix9vvJ8em76+vz1Z7872/zWAD8RoYl4POLx3zzwG6+0llOY88beN7KPZd+ouuGVBoEG9Ozc03i38anIp7zy94Yr16+8nPvy24feLrhY0PzWAJd6de316D2PPhP1TN+efdWOxR9l7M+Yu22uiNza5dbYAbrgHsFqRwTXqqqqTpWf2np8m4hou2kzJmY8cucjagcFtCN+l4HKOpQ1+6PZVVIlIg+FRPUO6qV2RKjr0tWK3SX7L175RkSeinzq97G/b05rFdcqfr351+8ff19Ewm4Ju1szuGO7fxpFyTelB84eEJHbuty2avyqSYMmNae1f53818yPZpZcKhGRB7TDQr2R0gLUdf3G9SMXjh8rPykisX1jMyZm3NH9juY0+NJnLy39bKmIdO3YZWTIiJ6de3gnUMCVcxVlnxXniUiHgA6vj3t96pCpzWktrzgv+cPko2VHRWRo73v79Qxj/gW8ruSSLffsXhHp1qnbynErJ9/Nspgu5J3JS89L33Rsk9qB4OY6d+z8i4hfPPfgc838/QFAY/lXBsp02DTt/WkiMjdy1rwRs4O7UdDuv1Yd+Mucf/+/K9evPDXiqd8/3PQk1GTz5G0F2+7R3L3w4ed/9L1xXoywVSsoL3jts9f/tn+diGxM2NjkP858VvTZxPUTq6TqV0N+nhI153u9eNIH2o6Pv/73wp2p/yneHRkSueVnWzoEdGhaOyt2rVi8c7GIpOl+9/T9Mzp37OzVMAEXzn5Xmrbn9Zf3rBKRv0z6i/FuY9PaOVp2dPz68ecqzhkH6194cO59mgivhgnUOP1t0bLc11YeWCsi7/zknQmDJqgdkZ+yVdj2l+wvqyhTOxC4FhAQENIjJDokmn/uAVX4UQbq26vf3p95v+2S7Y2xacnDfqV2OLi5nWdyx5gMV65fMU82j+0/tgktpP0nbUnOkgf63P/uz96+pUtPr0fY2qXvfPWl7Wnht4d/9vhnTWthzNtj9p7duzB6zuJRKd6NDfAHVVI1fsOULQWfzBoxa8nDS5rQwt6ze8e8PUZE3je8O6FJ72NAk73xeebMrfO13bT7kvZ179S9CS1M2TjloxMfJQ/71Rtj07weHlDfit0r51l/N+DWAfuS9qkdCwCg9WniX4x9IWN/hu2S7RfhPyX91FqM6hOd/vDvReTP+//ctBbe2PeGiCz90RLSTy7NGfXMwwNi88/nv/PlO004fOORjXvP7h3dZyTpJ7RVARKwasxyEVm5Z2X55ab8QUV5+/p9zPOkn9DynhyWlHjPo6WXSjP2ZzTh8M+KPvvoxEff6zWI9BNazNzIWT8ZNOHkhZN/OfAXtWMBALQ+fpSB+uD4ByLyX0MfVzsQNMLM4b/u2anHB8c/qLxe2dhjt57aer7i/NhB378/pCUeMNdK/eK+qSLy4YkPm3CsctT0ob/0ckyAPxl828DEex4VkX+d/FcTDlcWoZs5PMnLYQGe+a9hj0v1r0CN9dGJj0Tk181bRgporBlDfykiH538SO1AAACtjx9loA6fPywio0NHqh0IGifyjvtERFkDtVGOlB0RkftD7vd+TG1IVGikiBw+d7gJx351/isRiekT5eWYAD8zMmSEVL+lNErRt0XlleVDe997e1eeegF1KL/2KL8CNdZXZV+JyEMhvMmjRY3qEy0i+efy1Q4EAND6+FEGqvJaZVDHrk1eShZq6RYYJCKVVxs9B+rK9SsiEtQpyPsxtSHdOncT+f/s3Xt8U2WeP/BvuMhFEapJTQu2FhiJFFGhRdueLoJTgRKnIZll1mZ33Qx1twOOUuVm2vW3w7ThUrSMI0x3KdNxxtYZx9TghDqCA4OkxKEVHaAlKNKhQhuSSvDC/ZLfHye3Jidpkp72pO3n/erLF6bnPOd7nvM8p8k3z/McunLzShT7Xr5+mYhuHT6a55gAYgzbyK9cj7ibsLuMxl0IhDNUNHTk0BHs7TpSV25cIdzkoc/dOuxWcr/HAAAAiAjSPQAAAAAAAAAA0LuQgQIAAAAAAAAAgN6FDBQAAAAAAAAAAPQuZKAAAAAAAAAAAKB3IQMFAAAAAAAAAAC9CxkoAAAAAAAAAADoXchAAQAAAAAAAABA70IGCgAAAAAAAAAAeteAykCZyyUqva3PD2ur1fB+XFutRiKKk4jKG3kt1q2pQhRXYe6VooNqbT3JZ3EHX5WOerWJzxL7QtO6CdJ1H/dS4efOneOxNHO5RBTH/mhq20NtadVrRHGSvm9R3JFo9Fbey4yNszOX99oNoTfFVNg3btzgtTz3jTqKe3XPb8LtepW7b8ZOKw3KJ9r+RIi/lSG0t/dGDXb3HqZ3K6E33kG59dNW10Mx1mgBAAD89N8MVGNZnKTMJwNhLpdk6ngrnb+Psv5xhqWpRm3QHnDYnSvTeQghNpw48cXLL286evSo0IHw54xhyain684IHYbb1i2v1dbW9CQP5UkWWPWazJbKDofd6bB3VJE6NcTb2cbtBcbS3Xanoygj6gOHwN9HiKhSIb18dkEOGs1NI5CQn754OgW+ffvNN6tWrvjLBx/0oAzvqZnLU9VT650Ou9NRX6rLFeL7D1dIQrTS3iZkE4qptKkvvf7t6l//uqOjI+oSAk/Nql+tNvQ4sj4h+HXp7p0hGi0AAED3hgkdAC8ay+JySxTaUoXukNCh8EaRlCJ0CLw7euTI0SNHpt1//7x586dNmyZ0OAPQ7l27du/alfP44/PnL7jjjjuiLkeqqnaq3P/OkCvJ2NpOGYnBNpenBP3VABArZ5ex0u4UOoYoxFrYdrv9jTd+9/77f543b/5j3/9+T4ryObX0uVoqOXmKKJ6HEMOUqNI73L00ZlrpQJNW5HQIHUNXH36478MP982e/ei8+fMTEhJ6XF7j9gJSKngIDGJF7DVaAAAAX/10DJStVpNbQlSS4/q6ae5uu7NaHU7KxjO3qKzcO1DZPYVB4vp2q6kiocBIhsKEEF92tetVrl1qWgNfdE3K8I8zrJlNTRWiHB0ZChPiNLWf6FVxFWXlElFcQAmuL7vYEez6Mk/83sC6GcPV6j5r71d2TRXsK2yBvfRV3tEjR17eVP7yy5us1ogHmTWtmyAdNUE6asLmv/i84p7XZnvraanaYHO9aKhTsxu/2kQfbx7l+bd77NJbr7JFLXnLbnvrac+/6YxhiXd+n71OPWHzQc5YPt48+Zmd9N7SyewwKLv7cBO80wMPvup+JWCo1BnDEvZwvWD3rl0vPF9UW1sT0Zwjq16TqSPS5UbyPWpjWVxuCRnVqa5pFJzts6y8gn3FXC4RlevdE5cqzNToareeKQP+PaixLLWwjozq1BBjeTwzoTTbTwa+6Crc/+zcTV0UF2ICSGRnx1lE96fsfYXtcV1uGuZyiaq8QhUnEWn0Rp+vuP1vWZzBe6vOL07/ynHdRtgD+cbmrSVv/XPexLrG438KnrC5b1/hHZdfbB5q1coVBxoaItnP/5bu1rhHR6VzQg1ZDXHJOKrUpyO4DxQw4881xs2nlZb/3KfwxrKQtRd4UHO5RFReUdbNxfVsGVFH9q1Ab9VZ9ZogHSdoL2D/QPt33qYKkfsPpU+P5pojyR1Ylz7Y5V7hO6HJu2/IGuO4dvzbt++v2hfX/Ka6+sqVy+HvFXiTN5fn0u4NqtC7EVHgG4amCpGmokzjPvHAim3Xq+I0ZeWa0LXttj/gxthd8Bz38FCzYs3lIaepct1zInxnGIuNNkjnFabRAgAAsPrpGKj4/Or6VkMu7bYXpxFRekZaePs1VWTqtAccRRlkq9WkEmnZFxMKph9wVGcQmcslCeVJzpVFHVWHE4zyjmqVlLsgW21xIVU1O1Xx1FQhyiGl3PXijN12fRpRu16VurVWXd0lzqaKzJbKDodKys4ZrGnM55xkl1bk3E2iHDrgKMpo1+tJd2his9MRT965USopNZbF5aomNutVRER1BW0rHHYnNZbF5SZQZYfDrm/Xq1ILty9TFQetGZ36ZL3TUU1NFaIcTUpzdT7pVTm60t324jSy6jUJRKXhVSqr9Odr4y7GhdjASSTy+d+jR458fvYERfS9/cFX5WtXGS89m0b2OvVDRKtCbbx2J504ba2x16kfko9aZbx02kofbx6V96u3ntyeRUTvLf2i0HrpNB18VTr7IXr9E+ulbba3np7+1JtNl55cqHzGdPDZtFlEZxp21q36SQ3nAWYuP/Hakck7F57YphxPtre0S6ftsNbMJLLXqR/61VtPbl/ctnn2ka0nTivHEx18VbrKwNS4v2g+Y1gyeedC9lfhOXvWqvmPp8KuKSKi3bt2tU9pp1Hhbi9VVR84Kcmker+5n+aawjpF5RbuK5Ve7KinOFcLD9Y+S1qSOhx2KZG5nEhnpGa7s9pWq0nNjNMecLfbTXq1XkWBPai4ufJQqlHVXJ0fpKlY9avV5D0oKeSuF6fWO6vTiWy1mtRNerW+y9k1luUcrmm25yeyCd8as4pz+lJkZxdU6FPW5B5i7yTtelWqpra5y03DvJfqdHTAYdcTmcsLXQVy3LIC7yTpPlVnq/WJ06rXBFQOEXkOZKvVpGaWM86V1KWWivVzq1VSzpuYfzz1zq6n4L5SQW5f4Rw3RPX6qN+581RVa/fbudnt9h07DDQ1/D38/vQQeSaAKyo7QvwZCrxkc7y/CqjS5K4docLsKErp2qTLmuzFrh7h20oby+K27ilT5ScSNZlKFPKOYDfYYH+MdIdTmu3ORDKXSzLdV9wdua1Wk+ptbBF25Hx3Bc6VyxP2NhanpRPZ9hiNpcuqu61n314QvPO6/1A2VYhyVtdmVM81B9RYGtff6ESbXx9Maa4+oHXfK5pM7pAay1Jd+1r1moTUihRHEVeNZe8JuHZhTo28cuVKpDf5ffv+enzSZzQm3O39b/Lt+k0tlVtW0p7udw18w0Bk0NFuu7OaiGy1Gs4rbiyheqejmtr1qtTcsjn24jT/2q5t3kDe9zCemwDHWyNpd/fw4H2EzOWSTKp3OoLliBs573URvjOMvUYbtPPy1mgBAACi0E8zUFEy79WRtj6DiCg+f5mWXfvAvFenrGpm/9xmqCuVqSbzyvRuhlO179cb5KqyeCKiNHWNQqdny6x2D2lpb6sj8v9eMa3I6XqzbWttobA/9shVGezMDtseo1Ep3yAlIkpfUiUvMe63qrKJSFmlziAiSk5RkFKeLSWixKQZ3RVbo073xm+2zSVjnaJySxoRkVS1tLTAGGZ8rCefzJ86NtQpffLJJ3v3et/oDh06NOnupKM3msM/RNNfNtJLO9KIiCTK51YtrQu59UuFyvFEJEmaRjQtK42IKClJSUdcv16w9d9nEhGNT1pICxZmSYgo/p77iYhIwuQtmP6Xj5fPmmlr2LnzpcLtYcQWv3ib+0vRtrY6ojz23+8t/e3Hyhdn0qxnrTVERG1EdLRyyWRi81bhGzcu7vnnXwi9zZtv1vquDxIfHz9mzJivr38dwWECWPWaTJ28pjmcFEDw9sm2SZZ2aX4iEcWnTCWaynja7SGi7ntQWAclYmcRujY41WogkvvtlV7scHVF66nDRNO7P06YZ8cpxCm379cbtCuq44mIElUrtIWbzLZ8v9PWMn4fBnzuYxHMcfPEGaxy3LeR+BRvPzaq2dyE597FdRPjiidwYEu3t6+Qxw1P+qxZhZP+K8QG33377f9t+z/fV+5J6el054yVdudKMpdLEjQU7EsLjiryfEoM8nehZIt+SbVKmqjSO4iIrESkYz98ursJx/im9Lla4yazLV8Vb96rU8qbg7bMYH+MXG2VUibKqcUv8vj8ZVp1jsnMfoiNtiNLM+TKApN5ZXqGq/EHC7Erby8I1nm1K1RsP0pS0mHXa341xhmY719z98RGjpEyTaYS0h7w/n3M3dNUNJerxijg2oVp+PDh3d7k3/3Tuyc+/9zzv+Pi4u68886zV89GcBgvW22xUVVWLaVw1i/zf8OQn0xE2rmurGuwK+7ey/OGhKO2bbXcN4HQgjQDrj6iL5bUTfX/ZiWA/z0nmneGfoRutN11Xh4aLQAAQBT66Sy86NhaW0g5MTnwxbqCVNdA5dTCOjrc2u28j/a2OpruXnfD+57JO69hy2Elx16ecc6r9dHEf6rVQDOS+VpnhCP+npg0efL906eH+ElIdB1v+PDhcvkTFZt/kZGZGckR7G1HaeGkJNf/jU9ayEPU3OKzFi5c29BE1PbFe2semxnWPt4Jd5VHXNd+5vJLO9aszXO97nkEXh2R8r2lv43siXgjRowIXb33T58+evRoduOkpKSnn/7PDRvLx40bF9FR/Fj1moQCqgk+/qgrHtpnNz2ou4NKk93v7L1THrYe4ljixDvTYVm4iVZ+e59be1sd6TLd0x8ydVR38lR3+3DexyLRTeV4pBc76kt1uQEza/xuYmHGE34Fch03PBKJJHQfuW+q92aXlp5eXPLfP/nJ0vDLDyFDXak0GPdw/+0IWUUcVRqfX91cQ4UJPtNnpKrqjipSp3YzOTFjjrbOuN9KttYWz1cXYR408siDC9WRE7NVCt2eJqL2trqA7GoYwu28nDXGEViXv+ZBWU8dDm9xRo5rF6YhQ4Z0e5O//fbbXYe5665/+/d/r6jYPH58JF9l+GqqUU9dGt69nbp9wxDurTu82g4DRzMI0keMdSRX6raGnM8beM+J6p1hJNFy4rXRht95o2+0AAAAURhUGaj4lKmBH/DiU6aSsqrZ6bC7f8L4vJ2YpPS+HbG1sl8ites36eQ1zXanw+4s8x90QexsJi374KTqFdEkfZJTFHToFO+PW3LH3/vY3NPLr1SofvjDMWPCnjngIkmaRju/aHP935m2nXyH5zU+a6Fyo+ngx6a1q5hZ4exgr/vFxoWvf2K9dNp6SeeTGpu5/NJp66XT1hOvLVyb51pP6qXC7TU71nj+l1ds7ulna3+emZXVw6Kseg07gD/sjyg9bp/d9aBuD2o9xX6NbKvdonN3aq4lTjzPmnTY9cvCGQDlfyDeJCYpyRWJ66f7x19y3sfC113ldJFezEbVXKnU5ZY1cd7Ewownogr0Py6/2NzTsmXPTJ48mbdCQ30mDFVFQf4uxOdX211P2TMULtPbiB285rA7HfYDWqO6OMinxDSm1GDc07RfT/K5wXtu2H+Momps3XTk+LlyecneRvNeXeiVs7hF0nn9a4wzsC5/zYMXlTydDG3hzfDkuHY8YnNPGzZsnDv3sZ6UY96rI1fOJVVtoLqC1PCyvVxvGMK/dYdX290L0gy4+oi8pqx6SxUF7TIufvecqN4ZRhgtJ/4abUSdt3cbLQAAgK9BlYGijDla0plcK+9u0XlerCuo8Vm1McSD590Ss1UKo7qGHRSwX+99krGRfU9grinkniLW0mYl9u1aFOHHz5XL64z7rUTs47e7n/4Tim6TaznMGrVBrsqIl6qWlhoKtzcREVn1W0uiLzkIpzPa3JNL2mOraG0lu6R30182si8mTVpAaxuaiIjsph3v8RMqSZi8Betn561XJiV1v7GLKzt28E3X9EB2vXN2AfLxd99PC5K831XPXL5v1frZr/L7yXru3Md4yT0RsetHUE1zRItB8NI+u+tBnAd19V/bHqP3+2XXO++mmiAPGmffvnvvA2EdiLfe55aYrVK4eyI1loVaFt3L5z7W7dPBuXVXOUTkWeiajTNphudpawE3sfDiCbsCgx2XD5cuXy4uKeEr9+SzyLqtdosucL6kRzdV5F+lvs90T05R0IzkeN8F3VMmymlqUpDmlz5Xa1TnFNYF3SDYQbuNvJtz7CpUR5ZmyJW63Exd1Fc2rM4bpMYCAkvMVimMerO3D3JnPNOYUtLt8f599ExA88Nx7SI7uZBSU1N7nntiZaz05FaaaxSkrGoOmf72f8MQsEF4t+4wazss/s0gRB+RqjbUUPDECtc9J5p3hpFEy4nfRht25+3dRgsAAOCn/2ag0udqqSQnrA9sXmlFB7TsnJfVJNd6XuyoOsxOhPF86pZmyJWGwoSg7zni86vdY7ZT22awJSWqVmipJEciipPsmVNf6nrT4I0zQ12pNBQmxElExbSiSu76ABAJqar6wFR2pHRuibZer+rJuwStilaL4iSiHF3pbvbLvfTi5spDORJRnCTh5PSIliEPR87jj0ede3KZ9ezh12np5AnSURN+RavYoUbxiwvX0Eb5qAnSUVrKC7k2eSTisxYuJFqYlxWqisdnLVS+t3TyhM0HJcrnVhE74e4vWcaXaOcXbTResX3f/Wy00lF5R17XdVn4adaTW5Ub5esim4sXWs9zTxlztKTLFWn0xr06IqN7LkC4z8fpafvk7EFstjc1aABSVbW7U6e2TmW7Ynz+Mq3r6/29zAGtK+HiOTtrmrpGwZ7dalpWGeZ38rz2Po/4/Or6Ga65Hp5iu7u5dbllTT8QbKFu7qrjrhyu3VX63dPdbSD3UNWG/ETivolxxMNxCuFWINdx+ZKQkDB58vd6VobPLX1lc02LexQJVXaE+AAf/JJxVan3ViyKS1VPrS9OI59jSRIKph8IfqyMOVqibh7MF8EfI2/k3Z2jB/efQt8NslUKIkWoUVpBe0HYnZejxrgD69IHD1U1F6f53Ct84vH+fQyVnee4djzqee6J69TCEfiGwUe3V9yLo7ajCZ6rGYTsI/H5y7R1Bau55+Jx3nOieWcYY4023M7bu40WAADAj+j8+fNCx+CS8FoCOZ0Xn/myj47XVCHakhT8aXeDXGNZXJfnPYWwcMeT9f/44IMffZCWENnbll9+/Mv/3v/fxbNf/Okjy6IMsxd9vHlUZVKE64X3hvOXz8t+MW1S3KSPn4o4XcW8wRztPPrlkr9PuI2/D/EAsWd7c03BB8uXpy3/H+Z/Itqx9XzrQ795aJZ0xt9+9H4vxdbX2vWq1LYVsf00K3O5ZNPEZp7SuAPBqNcmDBENbX8m4vlp/7zjn3e37j74L7vS73qoNwID4HTl+tWRW8ZLb5VanrYIHQsAAPQz/XcMVDSsek2XSRPdzlOAQetgw3rlQkbo9BMAQESsZmNUK3z3pcY9upALpQMAAADAADUwM1DeR4f4/mj0pFpaqgtv0gTL+8CgLj98rYwbLE7eHkTifeiV70/Q5ygBq2ndBOnsI1s3KlyfkLzPufP9ca/xNEgI3Ja8zxLq8hPJg9JC6fHZ9XpfDgHdPGYI2QyI2G7SZf5RDLaNpoqukyt7uWtD+GKltfRek+Cp5F5+ZwgAADCwDeJZeMCTAToLL1ZgFh5AtzALD/o1zMKD/gWz8AAAIGoDcwwUAAAAAAAAAADEDmSgAAAAAAAAAACgdyEDBQAAAAAAAAAAvQsZKAAAAAAAAAAA6F0xlIEaOmToDbopdBQQsRt0g4iGDhka6Y5DREOI6IbzBv8xDSBs/QyJqquyF+X6TdQwDHDXb14n9y0lImwfwV0IhHWDbkbxN5TcfxquO6/zHRFAKFG/8QMAAIihDFTSmKSrN64ed5wQOhCIzPFzJ4ho/Jjxke44YcwEIvq883P+YxpALPbjRJR0e1IU+9495m4iaj6HR9XAAHfs3GfkvqVEJPG2RBGJ2JsYgCCOnfvs2o1rUd7kb7+biJo7j/MdFEAoR+wt5H6PAQAAEJEYykDNTppNRDWWt4UOBCLw51N7/vHNlw/e9WD86PhI982akEVExs/qz18+3wuhDRDvHDMQ0T/d/U9R7Mvu9aaljueYAGLMHz9/l4iYCUykOw4bMuzRpEe/u3ah9ri+F+IC6B7b9mbfPTuKfbMni8LD4QAAIABJREFUZBPRHz438BwTQEi1n+mJ6NGkR4UOBAAA+p8YykD927R/I6KfH3zZ3NEodCwQlss3rmgbSonoqWlPRbG7eJRYPVV95fqVn+0t5Tu0AWLXid1vfFo7YugIdao6it3VqeqxI8bWHH+b/XwOMCC9sP+l9gvW3Im5995xbxS7P3X/U0RUYtadvWjnOzSAbhzoaCw9+Aq53wJFKu97ed+743sftO371ZFqvkMD4Lb71F9f/XQbEUX3zgQAAAY50fnzMTT8pMxcVv638jtH3rE9Z3PexAVChwOhHOk89sxfV394xvz9e77/tiLKkWvWC9bZtbPPXjirfuDJ/5nz0pgRY/gNsl976+jbz+0scpJz/ez1hQ8VRlfI60dff+6D54ho22MVBdP+ldcAAQR2/eb1VaafVXxSOXLYyL/m/1V2hyy6cpa8t0R/XP+gZFrl3E0PS2fyGyRAMIYv6pd8sPzcZceqh1dpM7TRFbLzi53qP6mJaFP2z16YsZTXAAH8/f6zd368+9lL1y//jPnZc2nP8VWs6CLWMgPomSHkHDmsl8oWXbtJ17BY8+DiHDmUhoh6qfDYykAR0Qt7Xth+eDsRZSc+MuduRjzqTqEjAn8Xrl1oPPtp3QkjEWWOz6x9onbcyHFRl2Y+Y36q/inbBdttI257Yop8ivje4UOG8xdsv3T2u7P7/vHh362HiWjFrBUlmSU9KW3j3zbqzDoielAybV7y3PG3JfATJYBwbty8cdxxQn/iT/ZLX40aNuo3C38zL2Ve1KXddN588t0n3299n4gW3pOTmThrzC238RcsgL/OS1/tPW3af+YjIip4oGDTnE09KW3b37et3LuSiKbETV6YkpM85m6RqLfeNcKgdfaC7S9f7v/I2kREP535059n/7znZd7SeHb4p7Zhp76hG86elwYwyDlHDr0+adzVmXddv+8OXgoc8u3VWxrah7d8NcR+iZcCoX+5MeG2a/dLrmQnEt9vKmIuA0VEv2v+3SsHX2n9ulXoQCCUUcNGLZuxrIfJEdaZb8/8/MDPf3/s9z0vaiCZJp624uEViu8pel7Uzi92lv+t/FPbpz0vCiCm/GDyD0oyS6Kbf+fn5YMvv3boNcdlR8+LAgjHxHETi9KKopt/5+fDLz/c8LcNDacbel4UQAiyO2XPpz+/WLa4h+UM6bw06u3Ph536hoho+BAaewsPwQEMZjeddO4K+8+rD8VfWtzT90W3HLKNNJwQsUOfbhtOI/Hsy0HmwnW6dJ2IbopHXVJOvp4ylseyYzEDxTKdNh2xH/n6ytdCBwL+Rg4bee8d985Nmjty2Egei23/rn3/l/u//PZL9sHqMaWzs7PBZMp5/PHRo0f3weHiRsQ9JH1oVsIsfov92PrxobOHzl065yR82Qj921DR0PFjxmeOz7xn7D08Fut0One17jruOH7x2kUeiwXwM3bE2Psl90exdn5oRzuPNnY02i7YcJMfkC5evNjW1vZVZ2dnZ+fo0aPvTkoSi8Visbhvjj5uxLgH73rwkcRHel7UkG+u3vp/h4d8dZmSbqNHx5Ms+nH0AOB13Umf2OmD0/TttWuyOy4+NTXqkm45ZBv1x8+IiB6+ix6Jp7v64uMPxJxT39J+K7Wco2FDviuYdiP5dr4Kjt0MFEBMWbnihSyGUSgWCR0IAAAADF6dnZ0m0/7jFovFYhGLxVkMI5PdJ5NFuRBe3xv9u2PDW76iB8T0o0lCxwIw4HxzlV4/Th0XL38/6cpjSVEUMMRxecwrh+j6TVqUQukRP+scBpr3v6R97Teko797bgZfRQ5ds2YNX2UBDGAXL17cYTAwTHbfDIMCAAAACDR69GiZ7D6GyWaYbCI6brHsMBgaTKaLFy8SifpsVFR0hp36duR7rRQ3gn4s671lbgEGrxFDKfFWarIPPfPdFWZ8FL1sxF/ahp36hjKlNGd8bwQI/czksfSP74Z8+Z1z3Igbifwsk4oMFEBYZLL7GkwmsViSlBTN9wkAAAAAPOqPqahbDrQPa/uWHh1PKbxN6ACALsbeQtZLoo6LNxNvuxkf8Rfno+o+F125QT+aTKN66+F60M+MGEJHzpGTrj0o4aU8NCyAcE2RyRpM+xmG55U7AAAAAKImFovZVQI8E/R2GAyxOUFvqPUiEVHKGKEDARjQ7hlDzeeGnr1wbVpkj5UXXbg25OurdOcIumNEL4UG/c/E24loqPUCX+UhAwUQLobJ3rB+XWdnZ2x+rwgAAACDWeynokRXbxARnqsF0LvY4UtXbkS6n7uHIkUAPkYNI0/b4AOaF0C4ZDKZWCw2mfZjPXIAAACIWX6pqAaTKdZSUQAAMDghAwUQgSyGOW6xCB0FAAAAQPfYVJRCsQipKAAAiAXIQAFEQCa7b4fBgIl4AAAA0I8gFQUAALEAGSiACGAiHgAAAPRffqmoGFwrCgAABjBkoAAik6dYtL1qG8NkYxgUAAAA9FOxv2w5AAAMPMhAAUSGYZgdhncsFgvDMELHAgAAANAjwVJRU2QyhslGKgoAAHiEDBRAxKbIZA2m/chAAQAAwIARmIrasH4dUlEAAMAjZKAAIsYw2RvWr8N65AAAADDw+KaiLBZLg2m/JxUlk92Hb+AAACBqQ4QOAKD/8axHLnQgAAAAAL1FLBYzDLN6zYvlm17OUywiou1V21aueGHD+nUGwzsWi6Uvg7HqNaI4ifunwtyXxx6UzOUSUXkjT4XYajUSld4WTRHtelWcpra9h4HEiB7UQ7/QVNG3PbSxLE5S1hTJHk0VA+ru0T9PBxkogGhkMczxvn3jBQAAACAINhVVUPA0m4q6UyxuMJk2rF+3csULVVXbTCYT514bN2x4//0/9+S4vkmQ1pNGZVWz02F3OuxOR1FGT8oVBE+ZFKteI9LorXxEFMv4P00hM1mRJ0r6xNfnz5dv3PD3v/+9B2X4nFq7XpWjK91tdzrsHVWHM/t7K+2mwQh5TXnJDgsIs/AAoiGT3bfDYMBEPAAAABg82FQUOxHPM0dve9W2HYZ3iChwxajfv/nmn//85/nz58+bN79nR7a1ttCMOfE9KwQikLHS7uStsPj8ant+dLsmqvQOFW+BCKwH9dA7WlpaWlpapk6d+vi8+Q888EBPirKajXXaen0aEZFUVe0cMBctlqUVOR1CxxA5jIECiAY7Ec9geEfoQAAAAAAE4DtHb0nB01kM81Vn54b16zT/8RQ7Nurrr78movMOx+/ffLOoaHmk46Gsek2mjkiXKypvJDrVapCnJIa3p2cqUHlFlwEarvlBrnEN5nL3nL7uBmt4tyxvZP9XVV6h8uwYUHKXGOLYWVeNZamFdWRUpwYcPfRYBm85mtp2oqaKhAIjGQoTXDE3lrmP4nOaFWXl3lfCOlCXuTyumWLecRZ+MXQdguE7WMl7LP/BI64yu06llATd0fc0fYeiBFZ1U4XIfb7uqubkW/+2Wo2krLzCXSe2Wo3f7E5brcZ9iX0nlAXUQ7BT9p6mRm8lW60mt4SoJEdS1tRlFl7ApYnguPxqaWnZXPFK+cYNx44di2S/Lqe2x2hUTkwOaz/vdfQZRhT+xfV2cO7Rl17+3bCLrpeJqEvXLn+xa4cNfuIBN4TAg3KfiE/D8/RNn5rx6bBdunmXG6Nvz+W8xZVXlPnVKmfl9y1koACilKdY1GAydXZ2Ch0IAAAAgGDEYrFMJlMoFrHZqNVrXmQXjTp//rxnGzYPdeLE5+EXK1VVH9ASaeudK9Opve0QGdWp4XxwaizzTAWaeLjE82Jq4YzddqfD7tw9XZ1aYW6qyGyp7HDYnQ77gamFy4IvzWPVa9xbNte05LKfHut0tMJhd1arpIElu2I4XNPMvqitK6gxU3pxc6WS5DXN1fmJ3GUGORdPOdPVxXprWlFHlZwUlR3VKinZajW5h9iZibu1JTmej8q6QxObnQ57cVrYB0pjSkm3x5XD2q83yFUZnuFmATEEqynfKtUa1TUcCS+pqto9j7K+lKh0mUrKuWOX0/SpDXdVd1SRu6q95+vcra0rWB0kR9Ol/omopCWpw2F3rky36lerp9Y72SpS6Da5q8h1iR3NNQpdZnkjdz1wnnJTRULB9APuppVQfiq/ur6UqHS3vTjNG5DPpakv1XkvTVjHDc+f33tP8x9PeX5eXLPa70dXVuq7fUtLy6+3V4VdPBHF+53ajORT7nxHiMWJbLXF7i7TXHkox91lOPoRcV1czg7OKbAb+vC/TK7m6u7aK9d1bTChT7zLDYH7oP4n0qXhteSWNfnXjFK3tbadyLebN1ceytHsyfC5MfqeLGfv0B1OaXa3z2K9lbvy+xoyUABRYhhGLBb38TKcAAAAADGLzUaxi0YlJ3cZEDF06NDRo2+Nstz2tjqSez7X+WRbAjSZSkg71zUVaGlpwIuUVuRaRspQuL2JiChjpV2vCja/z7bHaFTKs6VE7BQq15ZaJsNTsqJyiatkdY2CzeOkFztcH1ytpw5zlulKvlB8/jJtnXF/8LSCO6+RVuTsko7pmipKU9cojHozm8Xw5I/CP1D6XC2V7G0kImpvq9Mu7fqpO3gMvry/tbW2BD0fNjD2Q3Wx54qEs6P/lXWnzEi7gr0oiUnK0If14b6mJFVVuz/Jn2o1+GxQpc4gIopPmep5LaAeuCI379V5mkfGSnvXNIGHb7tKX1Il91yasI4bnvvuuy8/X+35mTv3Mb8fhsn222XsuHFhF8+hJMc015WP04VeB6pki95K7BTLogwK1o+I4+JydnBuobqhea/OXdWUoa5U6kyuXIyna0fEu1ewg3K1UleOKT6/ms1kef7B3vHYf/h080SV3sGZEQveO9x9OWWi3LOtf+X3OWSgAKI3RSZrwBPxAAAAAIIbPnz4E0/84Bev/jIxMcx5dAHSipyej15dsi3+rKcOkyIppdsX04qcu7UlOd0OqjrVaqAZyUHXn7KeOkyGwgTXuI9UtYEOnbL5zq9ZZuQu03NoUY6ODG2t3MWnFzvqS3W53NPo2tvqaHrImYnhH8j7Idy8V1c6xzdpEjKGLvF4Zves1ocIishcnqqeWu/N+oW3I+eV5YF3ztTWQ4oQ23HVA0fkttYWCmMyWjftqpvjhif5nntyHn88xM8/zZ7t2TgpOfnp//zPkpL/Dr/8QF1yOgbjHu40cXx+dXMNuXuNRm8N2o84dG0GySmhLlmIbmhrbaG6glRXraYW1tHhVn5mOIbu+15SVXVHFbnHdQZMzt1y2JWo6r6bE0XQOzgqv+8hAwUQPYbJtlgsmIgHAAAAEIjNPVVs3qxUqW69NdoBUFyCfXqXJk8PzLNwvkhpReyMsI4qeUnQ2SjJKYqgH4ZdJStc87DYH70qnppq1AYtO8FHv2w6Z5nsNKIwHu2XXuzwzMrJ7ZIpS0xSdvOxOZIDJWarFLo9TY17dO7BYuHE4MNcU1inZWcVVa+Yyr0NeWaf+YwMCnNH7ovYU7baLTr3MxY3dLd2tn89cEUenzKV6k6e6u643bSr0MflF5t7+tnP1mZmZvWgGN9BW6wQeZP4/Gr3ZExD4TK9jbsfcenaDLoMW/MXqhvGp0wln2dr2p3BxhZFqpu+34VnUqprily7fpPOPdKzzD1kqftuThRZ7/Cv/LB24hUyUADRY9cjN2EYFAAAAEBXkydPdueebuthUb7LXVv1q9WGwCyJm8+SRlb91pKAF9mHrG+t8hYoTZ4efPhA/Fy5d4YUx0PQ05hS92w+dkSMO0HAfmi01W7RcZbpmgjDlhlsJILvItyJSTOo61rsidkqz1iwphp1l8WbIjyQZ+Oc3EPuYSwhYkiZKCfXrCXbHqPPSI+WNnZp9k2BJ81iF98JnErW7Y4UeGWDt4EIuRJGTTXqEOmMYNciIPKMOVp35XRpt135tqvG7QWeGXlhH5cnfOSeXDLmeJc9MtcU1gWdztbofT4AJacoaEZyfPB+FCCNKSX3cl1NppDrQFGIbugbrVWvCblwVaRC9H0v35tJykQ5TU2SEhEZ2WSTuabQNQvPt5t3qbquwu0dXJXf54b1/SEBBpIshmkwmRSKRUIHAgAAABBDlKqePo89Y46WcnJFLZUd1dUdpEmIKyQiInlNc8hBQ7u1ohxJCZGyqrKUjK4XmytVqRIRERGV7rYvTaOHHBLfAoMtryNVVR846d5SUdlRnd5a3vVwPiUrXWsbqWsUOnWqRE3ymt2VSoOxtZ0yErNVikJ1qqR1t73Yt0zSHnAEWdwnUaXf3SZKlag9hScSZciVBYUJhrYDjqL86vrWuFRRgeuk8hOJuo6VkIZ5IHbjDLmSyD+NxRmDamlpQW5mnI5IXlOlZes4Q12pTC1MMBSSovJAlbzO2GYlvyWQOtnP5Jlxnk/m2gOOIs4dpZ7TbE7iqurQbYCLt/6bfbKN8fnLtOqcXJGOSFt/QEuZJ08Rcc2h46wHzsjTijqqNAlxEvcJqqREc7WUmSM5VLXP0yW6XBptvVMVT8Q1GoXzuDwZO25cj3NP6e5Ta9aripy7K0TsiSsqO6o5F8Aivy5D2npnmv+Lrn7EnYRit0wVFRAptKUhZuGlcXVD7299L5OrOXVJQvl2WI5sjvfEV4R/UB8ZK5trNKmiOFctHHCkE6Wv0BZm5khKiEp315fqclvbiRLjfbu5sqpZn0ZE7hvjMr9q6dI7uHJqnJXf10S+T6kAgEh1dnauXPFC+aaXxWKx0LEAAAAAxK7bKg8PPfUNFU0nyag+OWBjWdzWFO6nWQEMXIc66e0vrmSPv5wb2cJZQxyXx2xsovG30rJpvRQa9EvavzlHD/vmvx/hpTDMwgPoEbFYLBaLDYZ3hA4EAAAAYNBr16vcE2qs+q0lYSziCwAAfQYZKICeylMsajCZsB45AAAAQB/xPsLM90dTS6oVWl1mnEQUJ0kooLDnanmfYNXlJ5JHj/VAnx1d2NPsE8EaBj9POoMIeJ/s5vvD+/PXeveKD4Iu0+cwCw+ABytXvJCnWMQwjNCBAAAAAMSoPp+FBzAoYRYe8Auz8ABizRSZrAFPxAMAAAAAAAAIAhkoAB4wTLbFYsFEPAAAAAAAAABOyEAB8EAmk4nFYhOGQQEAAAAAAABwQQYKgB9ZDIP1yAEAAAAAAAA4IQMFwA+GySYii8UidCAAAAAAMUnk818A6CU3nVHuKELnhGB4axvIQAHwQywWT5HJLJZjQgcCAAAAEItujrmFiKjzitCBAAxo5y4TkXPsiEj3u3nbcCKic+ih4KPzMhHdvP0WvspDBgqANzLZfZiIBwAAAMDpevIYIqLmc0IHAjCgHTtPRNfvHhPxjsOGXE++nS5dJ8t5/qOCfqr5HBHdSLmdr/KQgQLgDcMwYrEYE/EAAAAAAl2bcRcNH0of2+lzfL4F6B37O+jsxRv33H4jKfIMFNG1mfFERHtO8xwV9FOdl2nPGSK6+mA8X0UiAwXApykyWQOeiAcAAAAQwDlq2OWcJCKi2hNkcQgdDsCAc+AsvddGRJe/nxRdAVfTpdcnjaXTF+j14/TtVV6Dg/7m9AV64zO6dvNqZmJ0CU1OovPn8RUEAG8sFsuG9evKN70sFouFjgUAAAAg5owynryloZ2IaOodNGUcjeVteRGAwct+iY58RW3fEdElxeSrD0ujLmnIt1dH/6ZlaPt3NHwIpcdT8hgaMZS/QKE/uHCVvviWDtmJ6FrqnRf/9T4ey0YGCoBnK1e8kMUwCsUioQMBAAAAiEW3fNQx8oM20YVrQgcCMKDcSLj18uPJ12V39LAc0bWbI/908pZGKy9RQX81RHRl7t2XH4tyPF0wyEAB8MxgeGeHwYBhUAAAAABBOZ3DD3cObftmyMXrPD7nG2AwEtHNsSOup9x+/d44Hksd8tWl4RbHkLMXRddu8lgsxD7nqKE3Em+7NvVO5+hhvBeODBQA/1aueCFPsYhhGKEDAQAAAAAAAIgJWIkcgH9YjxwAAAAAAADAFzJQAPxjmGyLxdLZ2Sl0IAAAAAAAAAAxARkoAP7JZDKxWGzCMCgAAAAAAAAAIkIGCqCXZDFMg8mEYVAAAAAAAAAAhAwUQC9hmGwislgsQgcCAAAAAAAAIDxkoAB6hVgsniKTWSzHhA4EAAAAAAAAQHjIQAH0FobJxkQ8AAAAAAAAAEIGCqD3YD1yAAAAAAAAABYyUAC9iF2PXOgoAAAAAAAAAASGDBRAL2KY7M7OTqxHDgAAAAAAAIMcMlAAvUgsFstkMkzEAwAAAAAAgEEOGSiA3pWF9cgBAAAAAABg0EMGCqB3MQyD9cgBAAAAAABgkEMGCqDXZTHMcSwFBQAAAAAAAIMYMlAAvY5hsi0WCybiAQAAAAAAwKCFDBRAr2PXIzcY3hE6EAAAAAAAAABhIAMF0BewHjkAAAAAAAAMZshAAfQFrEcOAAAAAAAAgxkyUAB9JIthGkwmoaMAAAAAAAAAEAAyUAB9hGGyOzs7LXgoHgAAAAAAAAw+yEAB9BGxWJzFMJiIBwAAAAAAAIMQMlAAfUcmuw/rkQMAAAAAAMAghAwUQN/BeuQAAAAAAAAwOCEDBdCnsB45AAAAAAAADELIQAH0KYbJJiKsRw4AAAAAAACDCjJQAH1KLBZPkckwEQ8AAAAAAAAGFWSgAPoaw2RjPXIAAAAAAAAYVJCBAuhrMpkM65EDAAAAAADAoIIMFIAAshhmh8GAYVAAAAAAAAAwSCADBSAAhWKRWCzGeuQAAAAAAAAwSCADBSCMKTJZAybiAQAAAAAAwOCADBSAMBgm22KxYCIeAAAAAAAADAbIQAEIg12P3GB4R+hAAAAAAAAAAHodMlAAgslTLGowmTAMCgAAAAAAAAY8ZKAABMMwjFgsNmE1KAAAAAAAABjohgkdAMCglsUwDSYTw2SLxWKhYwEAAAAAYRy1H333xLt/t/396ytfCx1LPxA/Ov7hxId/OOWHd916l9CxAEAEROfPnxc6BoDBq7Ozc8P6dXmKRQzDCB0LAAAAAPS1azeuvbD3hd8e/a3QgfQ/IhIVZxavmLVC6EAAIFwYAwUgJLFYPEUmazDtRwYKAAAAYLC5dP3SorpFH7V/NGbEmIKZP559zz+JR98pdFD9QNvXX/758/d/++kbpQdKT3196pc5vxQ6IgAICzJQAAJjmOwN69d1dnZiIh4AAADAoPLT3T/9qP0jJjnrNfmr0tswoSxck++cPHfiHFWq8j8Nhb9r/t2kuEnL05YLHRQAdA8rkQMITCaTYT1yAAAAgMFm76m9bx9/O/H2xCrF/yL9FIWHJ8yqzNtKROvM685fxtoyAP0AMlAAwstTLNphMHR2dgodCAAAAAD0kbePv01Ez8z6ybiR44SOpb/KuPuRxdP++cqNK3Wf1QkdCwB0DxkoAOExDINhUAAAAACDysGOg0Q0/955QgfSv+VMfoyImqxNQgcCAN1DBgogJmQxTIPJhGFQAAAAAIOE/aJ9iGhI4phEoQPp38bfPp6IOi/hXTRAP4AMFEBMUCgWEZHFYhE6EAAAAAAAAAD+IQMFECumyGQNmIgHAAAAAAAAAxEyUACxgmGyLRYLJuIBAAAAAADAwIMMFECskMlkMpnMYHhH6EAAAAAAAAAAeIYMFEAMyVMswnrkAAAAAAAAMPAgAwUQQ2QymVgsNmE1KAAAAAAAABhYkIECiC1ZDLPDYMAwKAAAAAAAABhIkIECiC0KxSIMgwIAAAAAAIABBhkogJiTxTBYDQoAAAAAAAAGEmSgAGKOQrGIiDAMCgAAAGDAePPNWofD0ffHtb31tFRtsHW/ob1OPWHJW/ZeCCFUyU3rJkjXfdwLBwWAWIQMFEAswjAoAAAAgIHk4N/+9nzRcqHyULEPqSiAwQAZKIBYxDDZRGSxWIQOBAAAAAB4s+v99wdfHkqirDm9fbGE83dpL562vjizjwMCAKEMEzoAAOAgFounyGQNpv0MwwgdCwAAAEA/5jeoPPT/+rzO83y0y5cve/696/33d73//uUHLkc6HqBp3QT5WiIiemmH9cWZRPY69UM7p62itRt3EhGtMl56No2IfX1pHREtWPNSyBLPGJZMfmYnESlXrQl80Xsgvy03Hsn7hDOp1LRugpx8d9m58ISOVj20k93+4KvS2RuJiGjB1hPblONd2x+eVClfS0R5UtphfTHJHbzP0QFgQEAGCiBGKRSLNqxfZzKZkIQCAACAQYvNEHX9r93vt1+5s0idAf8Ih1gsjvq34bt+/brfKzdv3owoA2V762n50dcOX1LEk71O/dCStz7ZvpiIaOdaMl46vZ3sdeqH5OuyrC/OtL2lXUrslh9vHpVHyoVBirTXrXqGXv/E6soN0cI814v37zu9fRabQqqs+/dtyvGcW3JIe2wVzW5oenFmGpGtYedO5cJ148nk+uXHm2cf2XritHI80cFXpasMTI2C/UX84m3GL1ypK9tbTy+dtsNa48qvbT54evmsCGoJAGIZMlAAMQrDoAAAAGAA8ySVOjs7PUmlzs7Or3xeD9zLkw9i/3GnWExEU2Qy9sUpRGKxxG9LCsgi8ZVUikjR8ufOnz/P/vuBBx54fN78vfv2fXP1m7ALsJt2vLfmuW3xREQS5XOrlv6iwbY4i4gWvv5kGhGRJGmad8uFebp4IqKZ+a8vWL8jSJFnGnbWLVi4UUJENOvJrUp2IJVEWXPavUHbTqKFQbfkMitrDeWZDj6bNovavmAD9h1N9t7S336sfHEmzXrWWkNE1MZZyFo27eUTCQAMCMhAAcQuhsnesH5dZ2enIO+TAAAAAHqOzSVZLMfInWAKzC6xb3XEYvGdYjGbTsoSS3xfHzDvhdjc09SpU4mI9kW0a1tbHa2vm7De+8qqNsoKtuX9z7kycfH33B+0yDNtO+n+n4xn/8eTwPKZ66dcsJBjy9Bm5r++YPpfPl4+i0xrVzEvdvnV8ks7aFSetMtEQn/xi7cdpqenT56wlMixxLEsAAAgAElEQVQzWQ8ABgZkoABil0wmy2KY7VXbVq95sfutAQAAAATlm2w6brH4ZprYLBKbYGJHKondBA257yQnJz/9n//lyj1FIylJSWue85uSZucaQ5SUpKSd/7DTLAkR2f5xhCiJu8jxSQtpZ9sZShtPRPa2o0STiM4YfrXWnfc5Y1hStzNgy27EZy1c+FRD02O0/qUsq/8vZy6/dHo5sfP78jY/dppzqH/84m3WxURsLmyVgalRxHd/WADoB5CBAohpGAYFAAAAsamzs9NisXR22tmRTZ5n+LJ5JTbTJJPdN6jSTCEsL3q+ZwVImLwF039hyK9RxLOpmaOvHa7hHAMlYfIWLH3qzabFz6aR3bTjPXYiHYfxWQuVz7imxZ1p2FlH5Frd6b22M0Tjqem3z+ykBQvdW+5ssCsXS+jgm0vrgq4D5SlWPnvB1hPPdnndtTD5NuV4ovF3308LkrjyWb5rmSdNWkB0N9JPAAMGMlAAMQ3DoAAAACBGeIY4HbdYfPNNU2SyKTJZFpMtFotl7iWZgHfsct3TRz1DRESrjJcUXZdY8t9SPmojEa15aRUdDVakRFmzo801LW7VmpfoCBGNV/zkpWfksyesJ1qzb8eatXltZ4jGS5QbX9s5+SHpU0QvvbZVSUHXgSJiU2BECxm/BNN4xfZ9bVLX9Dpa+Pony8dTk/uXaY+totl50qOvHa75ZKv6Iekocp8mnoUHMHCIPOvhAUBsslgsG9avK9/0Mr4/BAAAgL7kSTl1dnY2mFwPNBOLxVkMQ0Qy2X3IN/XEPb+655ur37Sv4l6MO4bZ69QPtfnPBxTMoY5Pcn/7xOMpj7+V95bQsQBANzAGCiDWYRgUAAAA9JnOzk6TaT8ReQY6saOc8hQKpJwGsY83j6pMYifQHXxzad2CrRuFjggA+iFkoAD6AawGBQAAAL3Hs6LTDoOBfBZyylMsQsppIDhjWDL5mcB5c2v2hT+OaWb+6+R+Ph2t2XdaSYYlo3pYJgAMOpiFB9A/VFVt+6qzE8OgAAAAgBeeGXYNJhP7LRebdcJApz7Tb2fhxRbMwgPoRzAGCqB/UCgWbVi/zmQyMQznU2sBAAAAusdOsvOdYZfFMMg6AQBAH0AGCqB/YN8g7jC8I5PJMBcPAAAAwseZdcIMOwAA6GPIQAH0GwyT3WAymUz7FYpFQscCAAAAsc438cRmnbKYbAymBgAAoSADBdBvsO8dG0wmhsnGMCgAAADgxCaePKs7YbgTAADECGSgAPoThWIRhkEBAABAIDbx5HmYHVZ3in1jR4w9f+X8uUvn7hh1h9Cx9GNfXfiKiG6/5XahAwGA7iEDBdDPZDHMDoMBw6AAAACAiCwWi8VyzJN4ylMo8Cahv3jwrgdPfXNqb+s+1VR8sxi9D0/tJ6IH4h8QOhAA6J7o/PnzQscAAJFZueKFLIbBMCgAAIBBK3DEE94Y9DvvfPaOpl7zgHT6+0/VCx1Lf3XS0cpsm33TefNTzaf3jL1H6HAAoBsYAwXQ/ywpeHp71TaxWILFRAEAAAYVv8RTnkKBxFP/tejeRdsPbzedNi2vf2Fz7stCh9P/nL1g+6nxuZvOmz956CdIPwH0CxgDBdAvGQzvNJhMq9e82AfD7K9cv/KnL/70ydlPzl/B7QJ4IyJR4m2JGeMz5iTNEToWHpw8f3JX667PHZ9fvnFZ6FigL4y5ZUzqnam5k3LvHHWn0LHw4N3P3/347MedFztJJHQoEMSVK1fOnrW2nWojohEjR951V3xSUnJEJYwZPuaBux5YOHHh7SOwXE4M+fzc5z/Q/6DjQseD0gf+a9bTc1IeHTdynNBB9QNnvjmz87P3fvnRFvsF+6NJjxqUBqEjAoCwIAMF0F/1zVy81w69tvGjjd9c/aZXjwKD2TTxtJLMkvkT5wsdSJTOXz5f/GFxTUuN0IGAMIrSi/5f1v8TOoro/ebIb9Z/tN56wSp0INBHbhl6y/Ppz695ZI3QgYDX547Pl3+wvOFMA/u/w4dikko3nE66fvM6++8n73tyy+NbhoiGCBsSAIQJGSiA/spisWxYv65808u9Nwxq6a6ltS21RPTD7z3xeNIc6a3xvXQgGIRuOm9+7jhZd2Kn2dpIROtnry98qFDooCJ28vzJf3n3Xz4799ntt4zRTH3yYenM2265VeigoC+cu+z46+mG37T8nogeS37sj4o/9sfPP9p92q2fbCWihffk5KZ8f8JtiSIRBkENWPaLX+09bXrD8kcikk+Sv/HEG0JHBF3oj+sNnxs+OfvJ11e+FjqWWCcSie4afdcjiY8svm9x9oRsocMBgAggAwXQj/XqXLy1DWtfaXzl7tvGv/74a3PuxoJT0Fu2HN7+zN41RPSHvD/MS5kndDiR+f7vv99kbfrh956onLvpzpF4lvagc/SrYz/e/Vzj2U9+dN+P/nfe/wodTmS2frJVu09767DRNQsq8yYuEDoc6CNNZz/V7H726FfHfjz9x6/MfUXocAAAYHDpf9/XAYAHOwXPZNrPe8nHzx1/pfEVIqqT/wbpJ+hVy6Yv+eWj64io7ECZ0LFE5rVDrzVZm+bczfwx99dIPw1O0+68790fvDH+1oQ/HPvDrtZdQocTAcdlx9qGtUT0trwa6adBJe2uBw1P/HbsiNt/ffjXH7V/JHQ4AAAwuCADBdC/ZTHMDoOhs7OT32L/cOwPRLQm7bm0ux7kt2SAQM88UPBwwszD9sMffvmh0LFE4I2jbxDRzx5ZLXQgICTp6PiXHl5BRL+3/F7oWCLwh2N/uHz9sib1yfnJc4WOBfrapLH3lKQ/T0RvHntT6FgAAGBwQQYKoH9TKBblKRQb1q/jNwl1oP0AEf1w8hM8lgkQgmLiAiIynzELHUi4rBeslnOWyeNSshMfEToWENjie/OIyPSlSehAImBuNxORcpJc6EBAGGyjbTjdIHQgAAAwuCADBdDvsXPx+E1CnfnmDBHdGzeJrwIBQps8diIR9aMHclm/sxJRyu2RPQ0dBqRxI8beNVpiu2i7duOa0LGEq+O7DiK6dxxu8oNU0pgJo4aNPPPtGaEDAQCAwQUZKICBYPWaF4nXBaGc5CSiIUNwi4A+MkQkInfD6xfcfQQPDgMioiE0hPphAxYRGvDgJSJRP2qxAAAwMODjJcBAIBaL8xSLGkwmg+EdoWMBAAAAAAAA8IcMFMAAwTBML61KDgAAAAAAANBDyEABDBwKxaIshlm54gUkoQAAAAAAACCmIAMFMKAUFDyNJBQAAAAAAADEGmSgAAYaJKEAAAAAAAAg1iADBTAAsUmoDevXIQkFAAAAAAAAsQAZKICBqaDg6Sky2coVL5hMJqFjAQAAAAAAgMFumNABAEBvKSh4WiwW7zC8Y7EcUygWicVioSMCAAAAAACAQQpjoAAGMoVi0ZKCp49bLKFn5O16/30eD2oul4ji2B9NbXuoLa16jShOIoqrMPN4+KhY9RqRRm/lvczYODtzuURU3tijItr1qmBXM8SvBpAzZ858+umn/JXXWObqIxKV3hbZrk0VPW1UPpcsdlppUDw0MFutJmg989A7+oN3d+y4cuUK36WGqlgiPtpqT47eE8Lf1kKcXW+eOAAAQC9DBgpggJPJZOWbXmZn5G1Yv85isQSmovbu3fN80fJdu6LPQ3k+xVn1msyWyg6H3emwd1SROjXEx4/G7QXG0t12p6MoI+oDh8DfR4ioPqP28tlxEvZTk/Cf2XrXLzZXbFi/rgd5qMayOElZExHZajW5h6qanQ67s7mSClLLmngMM7KQBGilsWpgp6KOHWt5vmh5T/JQgfVj1a9WG/gIrvcJfnF740sOioHzAgAAiBRm4QEMCgUFTzNMtsm0f3vVNiLKYhiGyfadl+dwON6srX2v/r35C+bPmzc/6gNJVdVOlfvfGXIlGVvbKSMx2ObylKC/GgBi5ewyVtqdPSwiUaV3qLr51cDNPXlYLBaLxSKTyebPX0AJURcTn19tz2f/mZitUpD+lI3S4nmKMQxdrmastNLe5FPhAXjoHf3ExYsX33mn7v33/zxv3vx586O/ybs1bi8gpYKHwIBLiEYbqj0DAADEOGSgAAYLmUwmk8mIyGB4p8Fk2mEwEJFYLBaLxV9//TW7zfnzjt+/+ea7O979bsp34Zds1WsydUSUK6J658r08HZqLIvLLSGiVIm+qlmvijeXSzJ1RESkZQux1WpSW6dqS3Q60tbUtKj18soZBYUlRKSo7CijZamFdey/q1VSImqqEOWw+5OyqlmvOlWWWlhHVJeqoebqfO7P2LZaTaraQETyUm3gi0SkPeAoSvE7O/8DcSYOIjo77kozl0syqbKmpVBtYCNh9rBlkvYAO2KlXa9iK4HkNc3V+YmNPqe8gYq95R+g3Ez3pQmIJEC7XpVqVLkrzVwuyaR6p7rN/aJP/bAluLZf2upb4e2eWmJj46x/roO3t+/dsyfcrfvQ+fPnPf9m81BD7x5Kd4ZfgK1Wk1tCRDkS2m0vTnO/3L5fb5CrykKln0JcMu+vPPXsbRVU6jpQiEvmbqXaZ+taprq6EjWWxW1NCX7VAg9qLpdkkrZUpyvxjYTIqtckFBiJvP00klbtd762Wk1q6zJX1Vn1moSTS4N3HPeOrjPdQMWpenmzXhXv0399g6/vmLjVp5sn+9dY2Pb99a/DRLH4zsrTgNk81M6dxo6pHeHvHniTN5fn0u5m1Rajvrt9W/WazAIjeRpkU4VoC5WSrsQgr2muzqeAK96uV6UaZ2ipRGf0vkjkva962zYR7S+LK+zShLoNnuMeHtBHfJjLJZm6oIUHtigKbPlNFQkFRiJjApG7l3URutF6e5yrH9lqNal6efMWWs1LowUAAOhLsfg+CQB6lUKxSKFYZLFYiMhiOUZEJ0+e9N3g4sULV69epeHhFihVVR846fMG2s1cU1inqNzC/Tk2vdhRT3G57Kdx99w9lZQay+JyVROb9SoiopKWpA6HXUq2Wg3VFbStcNid1FgWl5tAlR0Ou75dr0ot3L5MVZzWWJZzuKbZnp/Ifh6oMauKipsrD/lkUgJZ9avV5D0oKeSuF6fWO6tdSaJNerW+y9lxHIjrY0lEZxeczkjNdme1rVaTmhmnPeA+/U16NZtim7Hbrmc/0aVWpDh8T9lW61O+udxzyp5IbLWaVJWeK4OWmK1SFOrNtnxVPFHjHh2V7k4navNWmk/9lDXZixPdp+w9emNZqk8tFevncn3o4vTZZ5/99i+vh7ety513RpAHCuGrr76KaPvOr76KJAMVn19d32rI9Uk/uT/0auv1wTN0HJcs2f27pgr3r8hcLsmsacxfmVxb7G4V7XpVaoXZUZQS4pJ5W2ljWdzWPWWq/ESiJlOJQt4RLCSOg6YTEekOpzTbnWxCh73iTRUJBdMPOKozyFarSU0oT3LdH0K1auoa/9ZadbV7rEf8XLk8YW9jcVo6kW2P0Vi6rJozwIw5WsoxmVemZxBZzcY6hXxLIrmTml37b7F+brVrLJjvTcyq1/jXWBrnoTi88cbvhjgjWN+Ar9ZLETbgq1evXrx4gUaHu73/Tb5dv6mlcstKCiNbrFOfrHc6qqmpQpSjSWmuzicig452253VRGSr1XBecWMJ1Tsd1dSuV6Xmls2xF6e5566q4qldr0rV1DZvIPL8XbDValIzyxnOzIu0u3t48D7izg05giV0OFqUT8snc7kkoTzJubKoo+pwglHOmX6i0I22a49bps/We0YZ89RoAQAA+hIyUACDFDseiv3v3z76yGp1rVAhkUjmzZ/f+I+PL357sSflW/WaTJ28pjmc1INtj9GolG+QEhGlL6mSlxj3W1XZRKSUZ3t2V1apM4iIklMU7tcTk2a4fple7HB9HLWeOkw0PYwAAw9KxM4idG1wqtVAJPfbi5cDcZwdN+3S/EQiik+ZSjSV8Zz+IWLTBJUd7GeMNHWNInVPU5HfbMeA8n0jCTXFY65crjbut6pU0va2Q4rKLWldZ9jpttaqq/MT4/Or7UTBJt8Z1WxuIq3IyZ0o4Pboo49ufmxzBDv0lTNnzpQUe0fK3X///UkZ9/z14L4eFBmfX23Pr7bValJF5cHGLHBdMs+iUd66tbW2EE11vVyyRb+kWiVNVOkdRERWCueSpc/VGjeZbfmqePNenVLeHLRlBjmou61SykQ5tRARmffqSFufwUa+TKvOMZnZcwzRqskdIRG1t9UR+c78lGbIlQUm88r0jPb9eoN2RbB2lcaUUu6epqKMNGo9aSxdVi0l3zWb/VtmK2chfjUWtm1V228ZektEu/QNdhFA9t9jx46dN2/+l9+cOWeNbgUyW22xUVXmV7HByGvU6UTsbUqnN9vyk4lIO9eVHwl2xd17eW7yvqMFXdNIbbXevwvxKZ6m2I0g93CuPqIvltRN7XY8kX+LMu/VKaua2W8mMtSVylSTeWV6SuigQjdaA/tFC2WstOuJKFi1R9toAQAA+hJWIgcAF4lE8q//9m8byzc99tj3e1iUVa9JKKCwp1+dajXQjOSerINjq9W4niy2zBjmLl0OKk12fw5pqnA/yG/rIY4lTnp6IL5YTx0mQ2GCK9RUtYEOner202C4kUhVS0sNxj3tZDUbqWsaS6qq7qgidWroZx2mFzvqS3W5rpocWAvl3n///S+sWPn8CysmTZrER3nx+cu0pDMFWbA/5CVr16tcDWC1eyZUfH51cw25G4ZGbw33klHGHG2dcb+VbK0tclVG8EbCcVBOttYWUk5MDrUJF++TNLccVvr9LjFbpdDtaSJqb6vTMsGXTk9fUiUv2dtI1LhH58l0uH4VTssMs8b6o7Fjxy5e/KOXX6lYkJsrEomiLKWpRj11adhTa6e7FxrjThKFuuK+2tvqvEX1BMc9PMgVN9aRXKnbGrIBBLYoW2sL1RWkul5JLayjw63dN6HgjTatyLlbW5LjijnYUwsGcKMFAIABBhkoACAi4iv3RK700/QDjvBX/0lOUYSTQAmuqUZt0B5w2J0Ou35ZOOOS/A9qPXWYiIhstVt0SvYhZY4NHCtv9/hAfJEmTyeF65mD7E+QFamiiyR9rtaoNzfuMVJgMkKqqmaPeEBrVBcHe7pTejEbWHOlUpcr3LPe+OTJPU2bNo3HYq2nDpMiKcgQiVCXzFxTWKetdzrsTkf1Cu9n+/j8arZJ1JcaCpfpbRTmJUtjSg3GPU379SSfG7znBjlooPiUqVR38lSILTi06zfp5DXNdqfD7izzH3/Ijs4r2dto3qsrnRNqWIo0Q67UmcxNphKORFVYLTO8Rt7PLF78o00v///27j+o7fvO8/hbgH/HSbAlAtSLi+02jpX4GldkK4p7izc0KdGlKtqbm0O3nWrW16F2cjtM7UsiaPZmFqtxcdbd69nl1qTczBb2blsRdcsx7dJ1tjWB1BBy8Y5snNhmwbYggI0d/8I2oPvjKwkBEgjDl68Ez8doJkb66vt96/v9fEW+Lz6fz/evvlZYmJycPJf1tL7jkkDmYrR7pH63MbaUub/r9JTnZjjiYTKzimKKcmYS5Ts80hG31B6oOVItMzWASS0qLXubBH+JKI+YfhVO12hNpf7A7WUt5QVRby+7KBstAGDxIYECIN9/4+C8ZE8iIu2HM3ZLrXdWN3dP22Wx1Dec6BNRbg8/8/C0CJSLk/66I65ZbHR3bauIMtYp9ELgsrm9NsqNxh9oQ3P9dFOY8io8JW8p188+ty3638ajVDLDbbzN+c763YVTezqEvyt7k0W2ZUX4LD63LfRH+MysHYvibmsZGRnzlz311zkMNreSK03fJGY6ZKd7+kS5jFd+bjsw3hI2Zltlx8a0mA6ZiBI72gtK6qMuEG2jkZnzQ327+uuOuGS6XkvhGpSUobU2ODt1mHSzpchVmOuaqUVl7rRZXbkFpwIjuUJia5kx77FE8t19+79WWJiSMg9zL5j3h7IVb61Viqq9045Tcx1Smnp7rd0TsXvddEd8XOZOm7XB3Ro4aw7E9I0XzeTv8GmOeLrtYK0EktwIIrUoc74z+JtF+twOXWrUzGiCKI22z+1QOjNK4A8PkdPqRdloAQCLEvNAAZgH5nynFBTqTlf9cptLROxGgz34UkXTzFOiKjOqZqSWiIg4G/22tKhTXURkstdaXXajwS6W2qaqIk9Dl0/MmTtt1hK70dAVpYDANK6pLhGpcDrltAQnrCnUuUScjS1Oyb3QLZIW+nS9NRE3pPKniyynzFtlMxqUgTRF1d4yk4iEPrI34lXKhEqsVb010a8bTXkVIjKlp4l5v7fWYdSlKj85W4ZyxBeYpFzCdri7qUcXbANF1d6yxE+gkpLm/gebnF1OyS0wdFR73TWNXalG3W4RCTWJyCIcsvZm5SWzvarIWJLhKRFrVUu1pb6hp09s4a1CnI1+k4gp+iGbyJzvFNcM3YsibTTK8qbS3mpHRqohUHksN+fKtO1zluQWGMpFKpoaK1yFXT6R8MaTudNmlfppe2mJiJLcydTFMm1TW2YoHQg7zafsscQ39+wpbP/EemMBERFx2uQVXWrgXnjFmROnIZvxiI9LKw47a4qqvW6T1D1I8RG+w4un+VoL/FJ4pc4cqStTpBYlmWEtXyyBv8eYLUW7SzI8PVHvqRel0U74BhBLrbc0fIqoxd1oAQCLki78DtMAoHjyrScv3bh0c2/3mpSY75YEzEH9uQbb/3V866lvxedM5FN98MkH+X+X/9xn83/19b/XupZ54nPbjD37ol4hx4XWSsOhTZHu4ai1zGNP9t7+pP/l/viciXyqgv9T0Nbb9tE3f/+51E1a1wJtrDmSNSb+vpcYsQcAWDiMwgMAANLX2jDtDN/xoO24a9qJ0gEAABDHSKAAqGz87nLhjwW7Wc/4nY8mPObrBm1z/nTjt4IKfzgWYh5ZDTeNiVRupbEVkLF7e0twrFw8to32w7rUwo7qg4HBUON35ZvwWBzT3icYjb/kQ9Q7j+ZpzTRaAMCSxyg8ABEwCg8LjFF4SGiMwkPCYRQeAGDh0QcKAAAAAAAA6iKBAgAAAAAAgLpIoAAAAAAAAKAuEigAAAAAAACoiwQKQARrlq0RkWvD17UuBEvF9Xs3RGRVyiqtC4mVUuqnwze1LgRx4cb9m8uTlyfKNOQisjpltYhcv/ep1oVAG/dG790euaP8rgcAYMGQQAGIwKg3ishvL7doXQiWimbfexJseAlh6/qtK1NWvvdJ+437hFBL3Xt97Tfv30qg1isi2/TbROR3l1u1LgTa+OdL74rIk/ontS4EALC0kEABiKBwc6GIHP3wJ1oXgiXho6HzP/HWichz2c9pXcssvPi5F/1+/w8/+J9aFwKN/Y//95aIWDZbtC5kFpQv+ap/+V9aFwJtHDn1ExF5YfMLWhcCAFhaSKAARPAnj//JF9O/+G7vye+eeF3rWrDI3bh/8z//U6mIvLTjJcNqg9blzMJ3vvAdEXm99Y36cw1a1wLNvNlxtPbszx9b81jJ0yVa1zILOzfsfH7T8x9fu+BoelnrWrDQ/vLkm/9w4VebHt307S98W+taAABLi+7atWta1wAgHnX0dbzw8xfujNx5cdPz/9X08pczntG6IixC//ujt//bez84O3Qu9zO5jf++UetyZu1H7//oeye+JyKvmv78O9u/lbV2g9YVYeGcGjz9ww+qak7/nYj81PJTy5ZE6gMlIt3Xuwt/Xnj5xuX8P8h7zfTnBVl/pHVFUN37/R/+VceP6866ReTtorfzs/K1rujBJftuJl+6qbszIn6/1rUA80GnG1u7fPSzD4+tW6l1KfMj5aOh5IE7cn9U60KWKP+KlLHMh0Y2rtW6kMlIoABE9Z7vvZebXv546GMRMaxan7YqkfqnIM6N+ce6Pu0eHr0rIi9sfuFvnv+bBJ0T98cf/Pi1376m/Dv74SxlgmcsetfuXr98q1dE1q1c98Nnf/jilhe1ruhBdF7t3PuPe9/ve19EUlc+mrk6XeuKoKKrd4d6b30iIhlrMv762b/+avZXta7oAS07c3XFOxeTL97QuhBAFfe3rb/7bNZoRkL+T5FixfGeFe/6dLdHtC4EMqZfdfffbrhnekzrQsaRQAGYjt/v/1HHj9xn3R/2f6h1LVhslicv37lhZ/G2YtvjNq1rmZOzV88e+/BY4/lG302f1rVg4Xx+3edf3PLinqf3rFu1Tuta5uTYh8d+1vmzk70ntS4Eqnti/RPWz1lf+uJLCZr4i8iK4xdXNnWLiKSvki2PyNqEuQElMAO/yNVhOT0kN++LTnf7Pz5+/ym91jXN3sjYmr89k/LRkIjI44/KhjWyPFnrmpaq2yPyrzek+4aI3PvDjDvWzVoXFEACBSAmwyPD1+9e17oKLB460aWtSdO6inl2/e714ZFhravAQnho+UOJew0f0cjYyJU7V7SuAtO5evXquXPn2k7+/uOPz61bv27Lli3PPPOHW7ZsifHtD694eFXKKlUrVNvy3/eu8pwXEbFmyzOL7TcIEPDri/Jbn4jc/M720ayHta5mdlb/9Mwy7xXZ8JC8+FnZsKh+SyaqM0NSf0Fujdz9ow3Dz31W62pESKAAAACABDI4ONjZ2flu84nOzk69Xv/41q15eTu3bt2qdV3q0g2Prn3jpO7uqBR/Xp5M1bocQE2/uSTHL49kP3zr29u1LmUWln8wsOrvz4phlZRsk1UpWpeDoIs35cdeEbn50hdGP/OQ1tVI8quvvqp1DQAAAABisnr16qysrLy8nXl5O/V6w9nOzl94PO82N/f09KxevUavT8CROzFY8fu+ZWeuytMGyc/UuhZAZZseln+5mnT51sjnU/2PrNC6mlit+ofzSdfuyjeyJZPeT/HkkeWi08mFTyVJN7JV+3kDyCYBAACAxKPX6/Py8vLy8kK9og6+8f3F2isq5fw1EZF/s17rQoAF8dQ6+afLKeevjWbF3b3MIltIDzoAABKNSURBVNINjyb/66fy0DIxap9xYLKnDfKbSynn4mL0GwkUAAAAkMCWQhSluzosIpKR2FNZAbF6bI2IJA0lzOSSSdfviogYVmpdCCJJXS4rU5KuxkVzIoECAAAAFoNFHEXp/Mp/kjSuA1gYyh3k/BpXMQtjfhGRJM7QeKUT8cdFeyKBAgAAABaVaaKorVufyMvL07pAAMBSRAIFAAAALE5To6i3qo/9wvM2URQAYOGRQAEAAACL3KQoqrPzjBJFiciX8/K2bn0iocfoAQASAgkUAAAAsFSEoiir9RuDg4PNzSfebW7+hcej1+uJogAAqiKBAgAAAJYcvV6v1+uVvEmJos52dipRFGP0AABqIIECAAAAljS9Xm+1fkNEJk0XJYzRAwDMHxIoAAAAACITp4uiYxQAYH6RQAEAAACYYNIYvVDHqLeqj4XSqNACAADEIknrAgAAAADEL6Vj1CuvvlZ56M3KQ29+3fqNK4ODb1UfO/jG9/fv+2519bHm5ubOzs553GJ7W9s8rq3P7dClGoKPw63zuGpE0lpp0FXO9QgGV9Jf5zDY3P0Psor2w2odbp/bluqo883ypUXk4sWeS5cuzeca2w8v7BnadiDVcKB9Fm+Yl1YdxXSNXM3taoM+UAAAAABmptfrRSQ0TE9ElL5Rv/C8rfyo9Jxar9fPsYfULxt++etf/+qrzz2Xk/PMg62htdKQK43+/Tki0nWhoaja67alPdiqtOdz24wNNm9NceacVtPndmQ0WHprbOnzVFd8Cj/0WpqnoxafUpJTnM7XvpyX9/zzX9uwYcMDraPtQGqhNA2UmUR8bluBq6JpoMwkfW5HhsOd0K1UpRMtXhr2nJFAAQAAAJid8DRKRAaDOjvPXBkcnHsmde7cuXPnzm3e/Ovnnn/wHEpERPq7TsuO/ISNnxKQef+Af95WllZcM1D8YG81lfqH5q2OCTJt7iHbDC8t9m5QIvJuc/O7zc1KDrUxOfWB19PX2lDvbHSbRETSbTX+KLt28Zqukc/r2RQXSKAAAAAAzImSNIlIaKryaJmUBNOr0D/WT/xRrzfcunVLeeb8+XNHj5zLzPQcWPncI5IcYzF9bkeuS0QKddLo3y9dHkv2gdje2X5YV+ASEXE6K1yu8Q4axpJ6ERFLrbemOFNaKw25LhERsVZN39NhfElno39/Tmul4ZA4xeWqV944Zc0TahApqva6bd0HjCX1IvVGh0zaunPaDhHj67HUemuKfYczdjeINGSI9NbY0qXtQGphuYiIVIx/zJ4dTle5K/BMTBtqP6wrkJahUrOISH+dw+i2ePddMAY6a0yqIXNCP47wriLj2wrfFWHrPCKvZOxuGN9uYM/31zmMdo/ylLNlqDQ7/NDnN4dq63M7Am8PHrLWSkOuOCtcrvIIGw0zsStToH57T/DJsAKUvRRYfk9X+FHzTd4PMbp27dqFM6djXXoBXb1yJfRvJYd69okv7ZGnYl5Bf52jsFxECgzS5M1uaCiyHIzpfVNalEiEM1RplhVOV7lLJHAepU14u9NZMe12ojdIkSjNKXBqf+Xr8rvwEy3SmkNdmQKt5aCUGd0Wr9uWFu2U6d10NOw7bePkVpdQSKAAAAAAzLNomZTyj+AzA6F/XxkcvDI4KCLvDjZfCT6p8Pku3zDceCTl0Rg3nW6rabkQvMzzuTukodxosItIKG2JrO1A+FAgkQrlSWPJjqYBt0mk/bDOeDi7SXJPV/UOBS4797p3Rhvf1+d2BJfsr3MYbW7vPpF6l7QMDbgjrnmo1CxtBwpO1XoHglfRta220jJvVUcwBJm6zihbn7ieMveumtLe6lPBxKe/zlHYUe31B654HdnemmIREVfHJq9/KC1i8ZE3ZMqrkMLj7aVmk4jvhNtjsR1IkwvRaojSuaX9cPguza1tK55yUR3WNabtQGqh7LWli/S5X7Fva/TX5ChB1SG33R1+6NubQ+vP2L29ZajGLP11DmNGZVbgot11Kts74Fcu8svcuyKGiZk7bdYSd2t/sS1NpO24SyqackR6god4QgEH2gfKAlFFTthRaztgnLwfYhyfderUqaMnfhfbsgvLL6Kb8MT5cx+LPvYEKq24prHLo4zC668T2bGx+0CqsVxESRLNkd8VoUWlRz6PZLwxtx/WFbxSZ64pzox4gkcyfYMcb07SWmkINafQqd3nHp1mFJ453ykFza37c8xK5y+r5UimHI/+AZUXwr/T+tyOya0u6ndaPCKBAgAAAKC6UCY1o7/4i9d7urtDPz5bUJDmS5Or9x5kq76e+gk9IxzZ0TqhtDeXi7MlMBRoT4XSxyHsycCorvbD4il5a6+tzCTm/UqWFFH/8YaGIsvBdJHQKJvWShFnnjm0OWtVb2DN9lqr8Xh7qdmUUzZUo7ze131KZPvUdVbsrQmsc6/TfuREny1anNFgV66cTaX+GhGRvvF9EoyKApt2uVv7i80iYrGZ02a5oZxdTsl9p63MlCO+nnrnHnemhM0kPbmGroiVBl9VhkzKtsifR1lAyc7GR2wFnu/u8ohYIr+n9R2XOBvNoc9S0NyqBArOPUpLyN5kkag9jdJ2WSz2hhN9Nlu6r6fDWnXENHGEnetonb2mODOtuGZAJNrgu8n7IUZ5eXlfsH5zFm9YKH29va+//r3QjwaD4Wvm52UO82WXFzS3DA34lcTHkRW9a+GUPRnxPBIRce5TMtPMrCI5FVhy6gke0bQNsvUdV1G1VzmLzfaqImOoOeVFCc4mrXw8tO26oJxl4XOQx3bKTGp1CYV74QEAAACIR88WFFQeetNu/08pKQ/6h3NTqX8oGDmZ7LXWBndr5HtO9XWfEmtW9oxPmkr9Tc7ygsDN9aLfTqu7yyM7Nkadf6qv+5R4SjIC9/8y2j3S0d2v3BVLWfPeCBfI3V0eCW1aV+AST0/kC1TJKRtqrHAVBpacdC8tX0+9bM+ebixY7BsSs72qyNXcKtL6jqsiP7zv0rQ1TKjHbQvsh1eiJ3oiIq2VRvu2xvHeWOM3UDvaYY32pv6u01K0aeO0K55Oum1PhafhuE/6WhvEsjN9wks1vdViNyo1RLsFXsz7YYqkpKRlcSl0Pqalpf3pn37zB5WHvmSOKX6JpqjaPp7peBqOx7wno5xHEUw8lzdmR20w0zfI/q7TUr/bGKjBWFIvp7pmN+dXzp9VW8rfaRNpO+5y7prQfSmmphJbq4tfJFAAAAAA4ksoe4qx21TsoqVC6Ru3T81ZIj4pplL/0IB/aKC32lJeEO3m8RuzrVEvhgNrtlb1Dg34gw+3LU3aa+0eZ4vy497tU960MdsqFU3jb/FHHa8kIjllyjLeqiJX4YSkLDOraIbL5tlsKHOnzeo63j71cnraGsK01pbUOxv9QwP+oZp90TtABQYGjo+H6q874iqq9vqHBvxDB6PPXp2WvU3qL3RHfX1mObucDe7WtuMNEuwjNi7dVqPsohZng73M3RdxBbHth8SiZE8Hf1C564//eI5ryp580KeJRyfvycjnUSQTz+XuLk/UgqZtkGnZ2yTY6pTHrG93mG62FLmaW9ubyyN0m4qpqcTW6uIUCRQAAACAOPLyy/9lvrKnPrdD5whcofW5X7F7pqYkQaa8CnEdb1eWPFo+5UnxuW2pjqPV4ytM37h9arepoLRdFkt9wwllydbKKT0aTHkVnpK3xtcc6k6lZEP9dUdcEddZfsQ9vk5HlItPn9sW6hyRmbVDLBMu6TN32kJ9wdpr7R7LlGAl5g2FFi4o7Ah2Y5mmhuxNFnE1t4ooA/3GFz7d0yciPvehqR9aoUy+M2VwViBaaq+1Rw8UzPnO0EbrjrhiHS01cQ31uwvt2/ZMyhrCD2v2Jotsy4owdmz6Y5GYHn7kkfnIngLM+c763bVKkttaW1If7QBF3JNRz6MpTHkV4jrkVpp9c/n0NUVvkOHV9rkdutRoGXR0mTttVlduwala+8T5zmJrKjG1ujjGPFAAAAAA4sjcsydzvlMKCnWnq3pranrFkZFaIiIillrvtJ2Gmpy6AkO5SFF1VYU0BJ70VtmMBmXa5YqmgT0meXrIEL7CaJd/yuTBgSWtVb01OV2VEzcXtuaiam+ZSUTstVaX3Wiwi6W2qarI09DlE3PmTpu1xG40dDUNlIWvU5wtQ1Gmy8m0uZt6dMH514uqvWWZImZL0e6SDE9Py1BpcU1jV6pRtzvwoYozJ09glB7jhpSFzZYimdI/KGINtj0VuwtzU10iltpqp7KPzfaqImNJhqdErFUt1Zb6hp4+mTQT+aCSx+WmhvIAZ8tQafFep72gUOcScTa2OCX3QrdI2vih3xtc1lTaW+3ISDUEDsQD3DvMlFchIvmT32je7611GHWpoZJyxNcT/PjjRy3Cfkhwa9asmfM6cnY5JbfA0FHtddtK/U2HdaEDVBPlAEVsURHPo8ghlLKkUbdbxOqsiD4Kb4YGGd6cgl8p4SFUetiJFuXbJm2XxSJi2TWpJUT6gKE1h32nTWl1CUV37do1rWsAAAAAgKjWHu5I6r8tzi/KQwvzF/S2A6lHo85ZDqjtzJD87Uf3TI/dsX1O61Jiktx766H//oFsfkT+bKvWtSCSv3xfhkeuu/K0roNReAAAAADgc9uCA2r63EfLZ5irGwAwayRQAAAAAJaM8RuohT8cdWLb53Tlphp0qYaM3TLteL1w43evm/CYzS3P5mDBtq7tx1wIrZWRPuB0E2BBJQvU2NQ94uM31JvwWBzz0M8Fo/AAAAAAxLUFH4UHaIpReJhfjMIDAAAAAADAEkECBQAAAAAAAHWRQAEAAAAAAEBdJFAAAAAAAABQFwkUAAAAgLjmT9aJiNwf07oQYEEoTT0lYa7Wg2foqNaFIIr7o5IcF80pLooAAAAAgGjG0laLiFy8oXUhwIK4eFNERvWrtK4jVmP6VaIT8d2SUb/WtWAK3y0Z8Y8q36JaI4ECAAAAENfuP54qItI+oHUhgPqGR6VjUERGlGafEJJ0959YLyN+OdmvdSmY4mS/iIxsXad1HSIkUAAAAADi3P2n00YfWy3nrss/+7SuBVCZp0vujNzfkTaWOH2gROReboaISGOP9NzUuhaE+WBQTvb7U3R3v5SudSkiJFAAAAAA4t/wv9ssIvKPF8XTJdfval0OoIJLN6WmU05dGVu/8k5httbVzM7I5kfvfmWDjI5J9Wk5+YnW5UDk7qj85pL87LyIDH99i3/tcq0LEhHRXbt2TesaAAAAAGAGy7xXVv3sI93dURGRrLWydpnWFQHzZMwvV4flkzsiMpqx5vZ/eHzssbiYtWe2VjZ2rThxWURk9TL5zGpZnqx1RUvV7fvSfVPG/CJy58XN98wZWhcUQAIFAAAAIDEkXb+34neXlnV8ohvmrltYbMbWrbxneuxu/h9oXcicpJy9uqKlN+WjIa0LWfKSdfefMtz9ymdGM9ZoXco4EigAAAAACSb5k9u62yNaVwHME52MrV0+tn6l1nXMG93wSNLAHd0It8bThn9F0mj6GknSaV3IZCRQAAAAAAAAUBczkQMAAAAAAEBdJFAAAAAAAABQFwkUAAAAAAAA1EUCBQAAAAAAAHWRQAEAAAAAAEBdJFAAAAAAAABQFwkUAAAAAAAA1EUCBQAAAAAAAHWRQAEAAAAAAEBdJFAAAAAAAABQFwkUAAAAAAAA1EUCBQAAAAAAAHWRQAEAAAAAAEBdJFAAAAAAAABQFwkUAAAAAAAA1EUCBQAAAAAAAHWRQAEAAAAAAEBdJFAAAAAAAABQFwkUAAAAAAAA1EUCBQAAAAAAAHWRQAEAAAAAAEBdJFAAAAAAAABQFwkUAAAAAAAA1EUCBQAAAAAAAHWRQAEAAAAAAEBdJFAAAAAAAABQFwkUAAAAAAAA1EUCBQAAAAAAAHWRQAEAAAAAAEBdJFAAAAAAAABQFwkUAAAAAAAA1EUCBQAAAAAAAHWRQAEAAAAAAEBdJFAAAAAAAABQFwkUAAAAAAAA1EUCBQAAAAAAAHWRQAEAAAAAAEBdJFAAAAAAAABQFwkUAAAAAAAA1EUCBQAAAAAAAHWRQAEAAAAAAEBdJFAAAAAAAABQFwkUAAAAAAAA1EUCBQAAAAAAAHWRQAEAAAAAAEBdJFAAAAAAAABQFwkUAAAAAAAA1EUCBQAAAAAAAHWRQAEAAAAAAEBdJFAAAAAAAABQFwkUAAAAAAAA1EUCBQAAAAAAAHWRQAEAAAAAAEBdJFAAAAAAAABQFwkUAAAAAAAA1EUCBQAAAAAAAHWRQAEAAAAAAEBdJFAAAAAAAABQFwkUAAAAAAAA1EUCBQAAAAAAAHWRQAEAAAAAAEBdJFAAAAAAAABQ1/8HuEmuGC5nCpgAAAAASUVORK5CYII=;" vertex="1" parent="1">
                    <mxGeometry x="256" y="580" width="772" height="252.28" as="geometry"/>
                </mxCell>
                <mxCell id="2" value="SQL" style="shape=cylinder3;whiteSpace=wrap;html=1;boundedLbl=1;backgroundOutline=1;size=15;" parent="1" vertex="1">
                    <mxGeometry x="250" y="620" width="90" height="63" as="geometry"/>
                </mxCell>
                <mxCell id="3" value="&lt;h1&gt;Script Variables&lt;/h1&gt;&lt;p&gt;SQL: Data from BigQuery SQL&lt;/p&gt;&lt;p&gt;BUCKET_ANOMALY: GCS Bucket to store anomaly images and html&lt;/p&gt;&lt;p&gt;DATE_NAME: date column from SQL&lt;/p&gt;&lt;p&gt;METRICS: list of metric columns from SQL&lt;/p&gt;&lt;p&gt;STDEV_THRESHOLD: daily metric standard deviation bound.&lt;/p&gt;&lt;p&gt;DAG_NAME:&lt;/p&gt;&lt;p&gt;DAG_DESCRIPTION:&lt;/p&gt;" style="text;html=1;strokeColor=none;fillColor=none;spacing=5;spacingTop=-20;whiteSpace=wrap;overflow=hidden;rounded=0;fontStyle=0" parent="1" vertex="1">
                    <mxGeometry x="829" y="20" width="290" height="380" as="geometry"/>
                </mxCell>
                <mxCell id="5" value="&lt;h1&gt;Many Metrics Anomaly Email Alert&lt;/h1&gt;&lt;p&gt;Input: Daily metrics from BigQuery.&lt;/p&gt;&lt;p&gt;Condition: If daily metric outside Std. Dev. bounds, then anomaly exists.&lt;/p&gt;&lt;p&gt;Output: Email with trend image of anomaly.&lt;/p&gt;" style="text;html=1;strokeColor=none;fillColor=none;spacing=5;spacingTop=-20;whiteSpace=wrap;overflow=hidden;rounded=0;" parent="1" vertex="1">
                    <mxGeometry x="25" y="20" width="315" height="180" as="geometry"/>
                </mxCell>
                <mxCell id="13" value="&lt;h1&gt;Requirements&lt;/h1&gt;&lt;p&gt;Storage:&lt;/p&gt;&lt;p&gt;gs://anom_visualizations&lt;/p&gt;&lt;p&gt;Packages:&lt;/p&gt;&lt;p&gt;plotly &amp;gt;= 5.6.0&lt;/p&gt;&lt;p&gt;kaleido &amp;gt;= 0.2.1&lt;/p&gt;" style="text;html=1;strokeColor=none;fillColor=none;spacing=5;spacingTop=-20;whiteSpace=wrap;overflow=hidden;rounded=0;" parent="1" vertex="1">
                    <mxGeometry x="340" y="20" width="210" height="215" as="geometry"/>
                </mxCell>
                <mxCell id="14" value="&lt;font style=&quot;font-size: 8px;&quot;&gt;/anomaly_visualizations&lt;/font&gt;" style="shape=cylinder3;whiteSpace=wrap;html=1;boundedLbl=1;backgroundOutline=1;size=15;" parent="1" vertex="1">
                    <mxGeometry x="890" y="640" width="91" height="60" as="geometry"/>
                </mxCell>
                <mxCell id="15" value="&lt;h1&gt;Environment Variables&lt;/h1&gt;&lt;div&gt;ANOM_EMAIL_FROM: email sender address&lt;/div&gt;&lt;div&gt;&lt;br&gt;&lt;/div&gt;&lt;div&gt;ANOM_EMAIL_FROM_PW: email sender password&lt;/div&gt;&lt;div&gt;&lt;br&gt;&lt;/div&gt;&lt;div&gt;ANOM_EMAIL_TO: email recipient address&lt;/div&gt;&lt;div style=&quot;color: rgb(204, 204, 204); background-color: rgb(31, 31, 31); font-family: Menlo, Monaco, &amp;quot;Courier New&amp;quot;, monospace; line-height: 18px;&quot;&gt;&lt;br&gt;&lt;/div&gt;" style="text;html=1;strokeColor=none;fillColor=none;spacing=5;spacingTop=-20;whiteSpace=wrap;overflow=hidden;rounded=0;" parent="1" vertex="1">
                    <mxGeometry x="540" y="20" width="300" height="220" as="geometry"/>
                </mxCell>
                <mxCell id="34" value="&lt;h1&gt;&lt;b style=&quot;background-color: initial;&quot;&gt;&lt;font style=&quot;font-size: 24px;&quot;&gt;Script Loop Variables:&lt;/font&gt;&lt;/b&gt;&lt;/h1&gt;&lt;p style=&quot;font-size: 12px;&quot;&gt;for metric in METRICS:&lt;/p&gt;&lt;blockquote style=&quot;margin: 0 0 0 40px; border: none; padding: 0px;&quot;&gt;&lt;p style=&quot;font-size: 12px;&quot;&gt;CHART_TITLE: title of visualization. {metric}&lt;/p&gt;&lt;p style=&quot;font-size: 12px;&quot;&gt;ANOMALY_IMAGE_NAME: day/type name of anomaly. Used to title png and html files. {metric}&lt;/p&gt;&lt;p style=&quot;font-size: 12px;&quot;&gt;EMAIL_SUBJECT: Subject in emailed alert. {metric}&lt;/p&gt;&lt;p style=&quot;font-size: 12px;&quot;&gt;IMG_PATH = Path to png in GCS. This will attach to Slack email. {BUCKET}&lt;/p&gt;&lt;/blockquote&gt;" style="text;html=1;strokeColor=none;fillColor=none;spacing=5;spacingTop=-20;whiteSpace=wrap;overflow=hidden;rounded=0;fontSize=8;" parent="1" vertex="1">
                    <mxGeometry x="1120" y="20" width="270" height="350" as="geometry"/>
                </mxCell>
                <mxCell id="37" style="edgeStyle=none;html=1;entryX=0;entryY=0.5;entryDx=0;entryDy=0;fontSize=10;" parent="1" source="35" target="36" edge="1">
                    <mxGeometry relative="1" as="geometry"/>
                </mxCell>
                <mxCell id="35" value="&lt;span style=&quot;font-size: 10px;&quot;&gt;get_data_from_bq&lt;/span&gt;" style="shape=process;whiteSpace=wrap;html=1;backgroundOutline=1;fontSize=24;" parent="1" vertex="1">
                    <mxGeometry x="90" y="445" width="134" height="60" as="geometry"/>
                </mxCell>
                <mxCell id="49" style="edgeStyle=none;html=1;exitX=1;exitY=0.25;exitDx=0;exitDy=0;fontSize=10;" parent="1" source="36" target="38" edge="1">
                    <mxGeometry relative="1" as="geometry"/>
                </mxCell>
                <mxCell id="63" value="" style="edgeStyle=none;html=1;fontSize=10;" parent="1" source="36" target="61" edge="1">
                    <mxGeometry relative="1" as="geometry">
                        <Array as="points">
                            <mxPoint x="330" y="490"/>
                        </Array>
                    </mxGeometry>
                </mxCell>
                <mxCell id="64" style="edgeStyle=none;html=1;exitX=1;exitY=0.75;exitDx=0;exitDy=0;fontSize=10;" parent="1" source="36" edge="1">
                    <mxGeometry relative="1" as="geometry">
                        <mxPoint x="370" y="518" as="targetPoint"/>
                    </mxGeometry>
                </mxCell>
                <mxCell id="36" value="[LOOP]&lt;br&gt;&lt;br&gt;&amp;nbsp;&lt;br&gt;run through {metric} in METRICS" style="rounded=1;whiteSpace=wrap;html=1;fontSize=10;" parent="1" vertex="1">
                    <mxGeometry x="270" y="390" width="60" height="170" as="geometry"/>
                </mxCell>
                <mxCell id="45" style="edgeStyle=none;html=1;entryX=0;entryY=0.5;entryDx=0;entryDy=0;fontSize=10;" parent="1" source="38" target="39" edge="1">
                    <mxGeometry relative="1" as="geometry"/>
                </mxCell>
                <mxCell id="38" value="format_data" style="shape=process;whiteSpace=wrap;html=1;backgroundOutline=1;fontSize=10;" parent="1" vertex="1">
                    <mxGeometry x="360" y="403" width="120" height="60" as="geometry"/>
                </mxCell>
                <mxCell id="46" style="edgeStyle=none;html=1;fontSize=10;" parent="1" source="39" target="40" edge="1">
                    <mxGeometry relative="1" as="geometry"/>
                </mxCell>
                <mxCell id="39" value="classify_anomaly" style="shape=process;whiteSpace=wrap;html=1;backgroundOutline=1;fontSize=10;" parent="1" vertex="1">
                    <mxGeometry x="550" y="403" width="120" height="60" as="geometry"/>
                </mxCell>
                <mxCell id="47" style="edgeStyle=none;html=1;entryX=0.326;entryY=1.004;entryDx=0;entryDy=0;entryPerimeter=0;fontSize=10;" parent="1" source="40" edge="1">
                    <mxGeometry relative="1" as="geometry">
                        <mxPoint x="923.54" y="434.52" as="targetPoint"/>
                    </mxGeometry>
                </mxCell>
                <mxCell id="51" style="edgeStyle=none;html=1;exitX=1;exitY=0;exitDx=0;exitDy=0;fontSize=10;" parent="1" source="40" edge="1">
                    <mxGeometry relative="1" as="geometry">
                        <mxPoint x="879.4201697828967" y="387.2997170285057" as="targetPoint"/>
                    </mxGeometry>
                </mxCell>
                <mxCell id="40" value="day_is_anomaly_branch" style="shape=process;whiteSpace=wrap;html=1;backgroundOutline=1;fontSize=10;" parent="1" vertex="1">
                    <mxGeometry x="720" y="403" width="150" height="60" as="geometry"/>
                </mxCell>
                <mxCell id="48" style="edgeStyle=none;html=1;entryX=0;entryY=0.5;entryDx=0;entryDy=0;fontSize=10;" parent="1" source="41" edge="1">
                    <mxGeometry relative="1" as="geometry">
                        <mxPoint x="1120" y="433" as="targetPoint"/>
                    </mxGeometry>
                </mxCell>
                <mxCell id="41" value="gcs_create_store_visualization" style="shape=process;whiteSpace=wrap;html=1;backgroundOutline=1;fontSize=10;" parent="1" vertex="1">
                    <mxGeometry x="920" y="403" width="170" height="60" as="geometry"/>
                </mxCell>
                <mxCell id="42" value="send_alert" style="shape=process;whiteSpace=wrap;html=1;backgroundOutline=1;fontSize=10;" parent="1" vertex="1">
                    <mxGeometry x="1120" y="402" width="120" height="60" as="geometry"/>
                </mxCell>
                <mxCell id="43" value="&lt;b&gt;Function Level:&lt;/b&gt;" style="text;html=1;strokeColor=none;fillColor=none;align=center;verticalAlign=middle;whiteSpace=wrap;rounded=0;fontSize=10;" parent="1" vertex="1">
                    <mxGeometry x="10" y="300" width="150" height="30" as="geometry"/>
                </mxCell>
                <mxCell id="44" value="&lt;b&gt;Task Level:&lt;/b&gt;" style="text;html=1;strokeColor=none;fillColor=none;align=center;verticalAlign=middle;whiteSpace=wrap;rounded=0;fontSize=10;" parent="1" vertex="1">
                    <mxGeometry x="10" y="550" width="150" height="30" as="geometry"/>
                </mxCell>
                <mxCell id="50" value="end" style="ellipse;whiteSpace=wrap;html=1;aspect=fixed;fontSize=10;" parent="1" vertex="1">
                    <mxGeometry x="841" y="308" width="80" height="80" as="geometry"/>
                </mxCell>
                <mxCell id="52" value="metric" style="text;html=1;strokeColor=none;fillColor=none;align=center;verticalAlign=middle;whiteSpace=wrap;rounded=0;fontSize=10;" parent="1" vertex="1">
                    <mxGeometry x="420" y="444" width="60" height="30" as="geometry"/>
                </mxCell>
                <mxCell id="53" value="metric" style="text;html=1;strokeColor=none;fillColor=none;align=center;verticalAlign=middle;whiteSpace=wrap;rounded=0;fontSize=10;" parent="1" vertex="1">
                    <mxGeometry x="612" y="444" width="60" height="30" as="geometry"/>
                </mxCell>
                <mxCell id="54" value="metric&lt;br&gt;CHART_TITLE&lt;br&gt;BUCKET_ANOMALY&lt;br&gt;ANOMALY_IMAGE_NAME" style="text;html=1;strokeColor=none;fillColor=none;align=center;verticalAlign=middle;whiteSpace=wrap;rounded=0;fontSize=10;" parent="1" vertex="1">
                    <mxGeometry x="1023.5" y="462" width="60" height="30" as="geometry"/>
                </mxCell>
                <mxCell id="55" value="metric" style="text;html=1;strokeColor=none;fillColor=none;align=center;verticalAlign=middle;whiteSpace=wrap;rounded=0;fontSize=10;" parent="1" vertex="1">
                    <mxGeometry x="871" y="349" width="60" height="30" as="geometry"/>
                </mxCell>
                <mxCell id="57" value="metric" style="text;html=1;strokeColor=none;fillColor=none;align=center;verticalAlign=middle;whiteSpace=wrap;rounded=0;fontSize=10;" parent="1" vertex="1">
                    <mxGeometry x="809" y="443" width="60" height="30" as="geometry"/>
                </mxCell>
                <mxCell id="58" value="EMAIL_SUBJECT&lt;br&gt;BUCKET_ANOMALY&lt;br&gt;ANOMALY_IMAGE_NAME&lt;br&gt;IMG_NAME" style="text;html=1;strokeColor=none;fillColor=none;align=center;verticalAlign=middle;whiteSpace=wrap;rounded=0;fontSize=10;" parent="1" vertex="1">
                    <mxGeometry x="1169" y="460" width="60" height="30" as="geometry"/>
                </mxCell>
                <mxCell id="61" value="..." style="shape=process;whiteSpace=wrap;html=1;backgroundOutline=1;fontSize=10;" parent="1" vertex="1">
                    <mxGeometry x="371.5" y="475" width="70" height="30" as="geometry"/>
                </mxCell>
                <mxCell id="65" value="" style="shape=image;verticalLabelPosition=bottom;labelBackgroundColor=default;verticalAlign=top;aspect=fixed;imageAspect=0;image=data:image/png,iVBORw0KGgoAAAANSUhEUgAAAIEAAAAcCAYAAABGWNzNAAAKpWlDQ1BJQ0MgUHJvZmlsZQAASImVlgdQk9kWx+/3pTda6FJCb4J0AkgJoQVQkA6iEpJAQgkxEJodWVzBtaAiAuqKrjQF1wLIWhALFhYBG9YNsggo62JBVCzvA4awu2/ee/POzM35zcm5555z57szfwAoZLZIlAorAJAmzBSH+nnRomNiabghQALqAAcA0GdzMkSMkJAghMGs/7u9vwegKX/bcqrWv///X02Ry8vgAACFIJzAzeCkIXwKWc85InEmAKhKJG6QnSma4jaElcVIgwjfmeKkGR6e4oQZ/jydEx7KBACNTIUns9niJADIWkiclsVJQuqQFyJsLeQKhAhP9euelpbORfgowqZIjgjhqfr0hL/USfpbzQRZTTY7ScYzs0wb3luQIUpl5/6f1/G/LS1VMnuGMbLIfLF/KOLlkDvrS0kPlLEwYXHwLAu40/nTzJf4R8wyJ4MZO8tctnegbG/q4qBZThT4smR1Mlnhs8zL8AmbZXF6qOysRDGTMcts8dy5kpQIWZzPY8nq5/HDo2Y5SxC5eJYzUsIC53KYsrhYEirrnyf085o711c2e1rGX+YVsGR7M/nh/rLZ2XP984SMuZoZ0bLeuDxvn7mcCFm+KNNLdpYoNUSWz0v1k8UzssJkezORD3Jub4jsDpPZASGzDJjADtgDf0AHziAHgExeTubUEMx0Ua5YkMTPpDGQ18WjsYQcq/k0W2tbOwCm3urMp/C2b/oNQqr4uRj/KQD2cUhw41xMoA5AixXyRBTnYoZSAKhZAJwr40jEWTMx9NQPBhCBPFAGGkAHGABTYAlsgSNwBZ7ABwSAYBAOYsBywAF8kAbEIBusBhtAISgG28FuUA4OgEOgBhwDJ0AzOAsugqvgJugGd8EjIAWD4CUYA+/BJARBOIgCUSENSBcygiwgW4gOuUM+UBAUCsVA8VASJIQk0GpoI1QMlUDl0EGoFvoZOgNdhK5DPdADqB8agd5An2AUTIaVYW3YGF4A02EGHAiHw8vgJHglnAcXwFvhMrgKPgo3wRfhm/BdWAq/hMdRAEVCqaL0UJYoOoqJCkbFohJRYtRaVBGqFFWFakC1ojpQt1FS1CjqIxqLpqJpaEu0K9ofHYHmoFei16K3oMvRNegm9GX0bXQ/egz9FUPBaGEsMC4YFiYak4TJxhRiSjFHMKcxVzB3MYOY91gsVhVrgnXC+mNjsMnYVdgt2H3YRmwbtgc7gB3H4XAaOAucGy4Yx8Zl4gpxe3FHcRdwvbhB3Ac8Ca+Lt8X74mPxQnw+vhRfhz+P78UP4ScJCgQjggshmMAl5BK2EQ4TWgm3CIOESaIi0YToRgwnJhM3EMuIDcQrxMfEtyQSSZ/kTFpCEpDWk8pIx0nXSP2kj2QlsjmZSY4jS8hbydXkNvID8lsKhWJM8aTEUjIpWym1lEuUp5QPclQ5KzmWHFdunVyFXJNcr9wreYK8kTxDfrl8nnyp/En5W/KjCgQFYwWmAlthrUKFwhmF+wrjilRFG8VgxTTFLYp1itcVh5VwSsZKPkpcpQKlQ0qXlAaoKKoBlUnlUDdSD1OvUAeVscomyizlZOVi5WPKXcpjKkoq9iqRKjkqFSrnVKSqKFVjVZZqquo21ROq91Q/qWmrMdR4apvVGtR61SbU56l7qvPUi9Qb1e+qf9KgafhopGjs0GjWeKKJ1jTXXKKZrblf84rm6Dzlea7zOPOK5p2Y91AL1jLXCtVapXVIq1NrXFtH209bpL1X+5L2qI6qjqdOss4unfM6I7pUXXddge4u3Qu6L2gqNAYtlVZGu0wb09PS89eT6B3U69Kb1DfRj9DP12/Uf2JANKAbJBrsMmg3GDPUNVxkuNqw3vChEcGIbsQ32mPUYTRhbGIcZbzJuNl42ETdhGWSZ1Jv8tiUYuphutK0yvSOGdaMbpZits+s2xw2dzDnm1eY37KALRwtBBb7LHrmY+Y7zxfOr5p/35JsybDMsqy37LdStQqyyrdqtnq1wHBB7IIdCzoWfLV2sE61Pmz9yEbJJsAm36bV5o2tuS3HtsL2jh3FztdunV2L3Wt7C3ue/X77PgeqwyKHTQ7tDl8cnRzFjg2OI06GTvFOlU736cr0EPoW+jVnjLOX8zrns84fXRxdMl1OuPzpauma4lrnOrzQZCFv4eGFA276bmy3g25Sd5p7vPuP7lIPPQ+2R5XHM08DT67nEc8hhhkjmXGU8crL2kvsddprgunCXMNs80Z5+3kXeXf5KPlE+JT7PPXV903yrfcd83PwW+XX5o/xD/Tf4X+fpc3isGpZYwFOAWsCLgeSA8MCywOfBZkHiYNaF8GLAhbtXPR4sdFi4eLmYBDMCt4Z/CTEJGRlyC9LsEtCllQseR5qE7o6tCOMGrYirC7sfbhX+LbwRxGmEZKI9kj5yLjI2siJKO+okihp9ILoNdE3YzRjBDEtsbjYyNgjseNLfZbuXjoY5xBXGHdvmcmynGXXl2suT11+boX8CvaKk/GY+Kj4uvjP7GB2FXs8gZVQmTDGYXL2cF5yPbm7uCM8N14JbyjRLbEkcTjJLWln0gjfg1/KHxUwBeWC18n+yQeSJ1KCU6pTvqVGpTam4dPi084IlYQpwsvpOuk56T0iC1GhSLrSZeXulWPiQPGRDChjWUZLpjIiijolppLvJP1Z7lkVWR+yI7NP5ijmCHM6c81zN+cO5fnm/bQKvYqzqn213uoNq/vXMNYcXAutTVjbvs5gXcG6wfV+62s2EDekbPg13zq/JP/dxqiNrQXaBesLBr7z+66+UK5QXHh/k+umA9+jvxd837XZbvPezV+LuEU3iq2LS4s/b+FsufGDzQ9lP3zbmri1a5vjtv3bsduF2+/t8NhRU6JYklcysHPRzqZdtF1Fu97tXrH7eql96YE9xD2SPdKyoLKWvYZ7t+/9XM4vv1vhVdFYqVW5uXJiH3df737P/Q0HtA8UH/j0o+DHvoN+B5uqjKtKD2EPZR16fjjycMdP9J9qj2geKT7ypVpYLa0Jrblc61RbW6dVt60erpfUjxyNO9p9zPtYS4Nlw8FG1cbi4+C45PiLn+N/vnci8ET7SfrJhlNGpypPU08XNUFNuU1jzfxmaUtMS8+ZgDPtra6tp3+x+qX6rN7ZinMq57adJ54vOP/tQt6F8TZR2+jFpIsD7SvaH12KvnTn8pLLXVcCr1y76nv1Ugej48I1t2tnr7tcP3ODfqP5puPNpk6HztO/Ovx6usuxq+mW062Wbufu1p6FPed7PXov3va+ffUO687Nu4vv9tyLuNd3P+6+tI/bN/wg9cHrh1kPJx+tf4x5XPRE4UnpU62nVb+Z/dYodZSe6/fu73wW9uzRAGfg5e8Zv38eLHhOeV46pDtUO2w7fHbEd6T7xdIXgy9FLydHC/9Q/KPylemrU396/tk5Fj02+Fr8+tubLW813la/s3/XPh4y/vR92vvJiaIPGh9qPtI/dnyK+jQ0mf0Z97nsi9mX1q+BXx9/S/v2TcQWs6elAApZcGIiAG+qAaDEIFqhGwDi0hktPW3QjP6fJvCfeEZvT5sjANVtAISvB2BKFu1F2MgTACWEQxAf7glgOzvZmtW90xp9yoIsEclkNEV3XniCf9qMfv9L3//0YKqqPfin/xeu1AF7GuapXgAAAFZlWElmTU0AKgAAAAgAAYdpAAQAAAABAAAAGgAAAAAAA5KGAAcAAAASAAAARKACAAQAAAABAAAAgaADAAQAAAABAAAAHAAAAABBU0NJSQAAAFNjcmVlbnNob3SlyclMAAAB1WlUWHRYTUw6Y29tLmFkb2JlLnhtcAAAAAAAPHg6eG1wbWV0YSB4bWxuczp4PSJhZG9iZTpuczptZXRhLyIgeDp4bXB0az0iWE1QIENvcmUgNi4wLjAiPgogICA8cmRmOlJERiB4bWxuczpyZGY9Imh0dHA6Ly93d3cudzMub3JnLzE5OTkvMDIvMjItcmRmLXN5bnRheC1ucyMiPgogICAgICA8cmRmOkRlc2NyaXB0aW9uIHJkZjphYm91dD0iIgogICAgICAgICAgICB4bWxuczpleGlmPSJodHRwOi8vbnMuYWRvYmUuY29tL2V4aWYvMS4wLyI+CiAgICAgICAgIDxleGlmOlBpeGVsWURpbWVuc2lvbj4yODwvZXhpZjpQaXhlbFlEaW1lbnNpb24+CiAgICAgICAgIDxleGlmOlBpeGVsWERpbWVuc2lvbj4xMjk8L2V4aWY6UGl4ZWxYRGltZW5zaW9uPgogICAgICAgICA8ZXhpZjpVc2VyQ29tbWVudD5TY3JlZW5zaG90PC9leGlmOlVzZXJDb21tZW50PgogICAgICA8L3JkZjpEZXNjcmlwdGlvbj4KICAgPC9yZGY6UkRGPgo8L3g6eG1wbWV0YT4KPrddFwAACbNJREFUaAXtWgdYVVcS/lGqBStqUAQUhViDoqISo6CILQiocSUioq4ttt3PrJo1Ev1MQDRuYltdkQiyNuyAheiCXcFegmJhjSIgiLiK0jx7Z+BeH7xHeKzifsE333fvPfecmTlz5kw77z49IQF08F5roNp7vXrd4lkDOiPQGQJ0RqAzAp0R6GwA0NekhJycHKSkpODp06d49eqVJhRd3+9QA9WqVYOpqSnMzc1Ro0YNZQV6pU8HZACJiYm6zVdUVPUaZAx2dnaKIahFAooA5P0NTWuhWYN60K9evepp4T1dUUFhIe5nZiHj6TOO9DY2NqwJtcKQUgCBzgBYDVXqRg5N+0og7zO11YxArgF0EYDUoz2kpqfjcVaW9gT/J0x5X+V9JjHUjECTbKvWB0OvnlmJa8TYcXgu1Q+VBTv2RoLmKA2Xr10vIYephTWmfTkXjzIyS6Mq7/fu38fakI38TptFNG8LDscdhUXbjmjduRusOnRCR6dPQDJWNnwTGISXublvZRqtjIBmch84AK8ep6MwMw33r1/GpavXsH333rcihCYm5f2aLcty9sghXLh8GaFbtmpiw30pqakI3hTO7fL4lslEw8CV67+g71AvrFoaiOx7d5CVfAuT/Hzh5DboN41SA6sKd/kHLEFeXl6F6TQRaG0ERKynpweqLJt+8AFq1awJff3qePDwIQaOGImgH1eicesPkZ+fj8l/ns3eRtHDd8o0FEoFyaEjsRg/fSbchn3GnuzqORzZxfXH0hWr2JvIQ8dOna5Y+O27yejuOkANX1UWu1at4OrcB2fOncO33/8NC5csVda5Yt16zJgzD+6jRiP+/AV07u3CY/959gw+k6YyX9sujorn/uvYccYhuV3cPXEj6Rbj0/oWfBfI6yMZt+zcxf3fr1qDmZMn4tMBbqyb6lLOnew3Fk7du2HdxlDEHj/B6+0zZCjP1WvgEIUnRSfiS/yoP+n2HeZJuGFbt4HkSrhwEWs2hPC8JBPp4mFaGkcbQrbv1Yf5Jd/7lXkRTltHJ0QePMS8vlq0mOnJKEkXZQIdEVUhPj5e0CWyHinXyqAA0cisoRg32lv4jvqDaGNrK3p26yqep9wTdy+dpw9QYqSXh7h0PE7sDg8VLawsRcbtmyLzzk1Ru1Ytce30cbH9pw2Mdypmv3h8N0l06thBhK1dLfZHbGXeiWdPibSbv3C/5FkK/umYAyXwaQ6a78TBaL6CV/wgmpmbM68zPx9kXvmPHrLsrW1aiqPR+0Tk1n+KDm3biEe3boiUxKtMT3OQ/NKm8brSkxK5P2JjiHiZ+kAsnDdHEH1BRio/Rw3zYnySmeYj/RDPHaEhip5knS1d9I0Y4eHO85Ks+7aEi5yHvwr/OV8yjRTFWH8rlgSI3LQHYu3yZdxP9MSb+JLcD65fYZnOxR4Weekpor+LM+PSOojvrfPxgtbq2MVBzJ7+hXiRel8c3LGdx5Ivn+d1kf5J96RzWT5lj4s3Xu2IKDHXCJJw6Ne7N4917WwP8t7wbRHo16eob82yINStUwdtbFvDpoU1omNi2JLJ6168eMl0A/q5wNHBgdu9nXoiI/OxFMqvYNJYX9i2KjquxEUVpZgDPx8B4Xdz6FwCn1+k2/zF33GzQf16WLJwATwHD4aRkSGaNGrEHtikcSMUFBTAybEbRwkjIyM0bFCfPYkIJ/qOAXmuW19nrA/dhJNnz0JSJrw+Hcx8586aga+/DQB5GcG0ieNRw8QEA/r2xeiJU7hPX1+z+qjooohJIDkLBvd35facmTNAYfz6jRs4ceYsevXogcXLlkPaC45GFB0IAvy/xsfdHbn/3tWLHMXIu09KNG4uzrwOwjNr2ABPsp/idHwCYnZFwFhao6tzb9Zb3ImThIIp4/0wzH0It8u6aV6FBmyLpk3xmedQZcTE2ERSXhgbgWRtbAA0uDtqP2bN+yv+MnM61xFyaKIxSiGlgQyEFiMDGY2c6zThy3iH9+yUmyWelJMpXDdv1oyNi1JYaSB5yQBUoaCgEAYqmyqP5xfkM1oNk9e/sMl09h3a43DcMXgOKTIcuT8mNg7OvZz41cDAQO7m9EkvOTlFTtHS2orTCPVJEU3Rj1VzC+rCneR/c8j/09TJcLD/CEPc+nO/6q2gsIBfDfRfz2NsZCzpsEjullZWquga20XmqnFIvZMsnC4qtCL27IW1pSUjmZgYK8iHjx6Fz8gR+GLCOK4daCGqxxEFsbjRtXMnbI7YiWfPn+PFy5cYPsaPo0NpPG3fR3p6YNuuPdi4eQu8RwxTyHLLqaQd7Dvi2KnTOHfxEtOEb4+AlALRoniNCiOVxqwpk7A6eAN27otkr6XaZ+U/gtkzJ/j4MCbVBfJpgYyTeNp3aAcp1aCO9BOu3+ejpPf2+OHva2FauzbTVNMr2pb4Cxdg17oVpDSCT3r2QGJSUgld0kY3NjNjXuvDwpiWcHZFRqF716KIKxuzithqTa0iAXnTnuj9qN6gscKAQnWA/3wOuUqn1PAYNAj9vYYjYu8+XiSFtQUBgfDz9lZFYw8gvt7DvTh8m9u1AxkTWTtduyKjNeKX6NTwUq9uXfbMjMxMmDdpwhgtLK1AR0MqXC8eiy1BJRe7lhYWkPI9qDCjzSHYEfoTDA0NS+G/fm0r/fRKEWnCjFlcANOItWVzHD8QBUpTBJRGPT73Yc/My8/DtpBgKSLoY9PaNRg5bgJHTUNDA6wMCuR+Jiq+ke5mz/fnoplwyGEonVC0c+71McxsbHH11DFsXr8Ow339ELD8Ry62Vy9bApJNTkmqPDW11b4dJCQkMJ6DjZUmfK36cnPzkPMiB7QhlJdzpaNMTZUPFpqYUBSgDaG89qZAVfcfx/hg6KCBFWZFUetJdjbq1yvaRG0ZpD/KgIGBPq9Zpok6FIM1wSHYu3kTMh9nlUh7Mk7WkyclaOR++UnRJetJNhsV6YdOVLKRyjjyk3hRNCnP+xNuJTOJQ3F9plUkkCfR9kkFGl0EZPVlFVCq/EyMX6cU1f6KtKmIGzdtBlLT0pVirCL0hEveU1EDIDoK82UB8VSte1TxyFF+C2hDqaCVoSwDoPHyeMk8Sj8rxQhKT/Ku3ulEsOiruWjf5kOtDK+y5aIT0Eft21X2NG/MX80IyGopJNIXJ/l35jee5R0xoFTSo2uXdzRb+dNQCiwvDZbP5e1i0L4SqNYLaqcD+tMBAX1ylAm4Q3f73WtA/pRMC5H3mdpqkYD+dUKfGembM106qHoaoChA+yyD2umABnR/L5PVU7WetPla/b2sai1btxptNKBWE2hDpMOpWhrQGUHV2s//aTX/BVQcXdOfzJsyAAAAAElFTkSuQmCC;" parent="1" vertex="1">
                    <mxGeometry x="711" y="383" width="129" height="28" as="geometry"/>
                </mxCell>
                <mxCell id="66" value="" style="shape=image;verticalLabelPosition=bottom;labelBackgroundColor=default;verticalAlign=top;aspect=fixed;imageAspect=0;image=data:image/png,iVBORw0KGgoAAAANSUhEUgAAAF0AAAAhCAYAAAC7kad5AAAKpWlDQ1BJQ0MgUHJvZmlsZQAASImVlgdQk9kWx+/3pTda6FJCb4J0AkgJoQVQkA6iEpJAQgkxEJodWVzBtaAiAuqKrjQF1wLIWhALFhYBG9YNsggo62JBVCzvA4awu2/ee/POzM35zcm5555z57szfwAoZLZIlAorAJAmzBSH+nnRomNiabghQALqAAcA0GdzMkSMkJAghMGs/7u9vwegKX/bcqrWv///X02Ry8vgAACFIJzAzeCkIXwKWc85InEmAKhKJG6QnSma4jaElcVIgwjfmeKkGR6e4oQZ/jydEx7KBACNTIUns9niJADIWkiclsVJQuqQFyJsLeQKhAhP9euelpbORfgowqZIjgjhqfr0hL/USfpbzQRZTTY7ScYzs0wb3luQIUpl5/6f1/G/LS1VMnuGMbLIfLF/KOLlkDvrS0kPlLEwYXHwLAu40/nTzJf4R8wyJ4MZO8tctnegbG/q4qBZThT4smR1Mlnhs8zL8AmbZXF6qOysRDGTMcts8dy5kpQIWZzPY8nq5/HDo2Y5SxC5eJYzUsIC53KYsrhYEirrnyf085o711c2e1rGX+YVsGR7M/nh/rLZ2XP984SMuZoZ0bLeuDxvn7mcCFm+KNNLdpYoNUSWz0v1k8UzssJkezORD3Jub4jsDpPZASGzDJjADtgDf0AHziAHgExeTubUEMx0Ua5YkMTPpDGQ18WjsYQcq/k0W2tbOwCm3urMp/C2b/oNQqr4uRj/KQD2cUhw41xMoA5AixXyRBTnYoZSAKhZAJwr40jEWTMx9NQPBhCBPFAGGkAHGABTYAlsgSNwBZ7ABwSAYBAOYsBywAF8kAbEIBusBhtAISgG28FuUA4OgEOgBhwDJ0AzOAsugqvgJugGd8EjIAWD4CUYA+/BJARBOIgCUSENSBcygiwgW4gOuUM+UBAUCsVA8VASJIQk0GpoI1QMlUDl0EGoFvoZOgNdhK5DPdADqB8agd5An2AUTIaVYW3YGF4A02EGHAiHw8vgJHglnAcXwFvhMrgKPgo3wRfhm/BdWAq/hMdRAEVCqaL0UJYoOoqJCkbFohJRYtRaVBGqFFWFakC1ojpQt1FS1CjqIxqLpqJpaEu0K9ofHYHmoFei16K3oMvRNegm9GX0bXQ/egz9FUPBaGEsMC4YFiYak4TJxhRiSjFHMKcxVzB3MYOY91gsVhVrgnXC+mNjsMnYVdgt2H3YRmwbtgc7gB3H4XAaOAucGy4Yx8Zl4gpxe3FHcRdwvbhB3Ac8Ca+Lt8X74mPxQnw+vhRfhz+P78UP4ScJCgQjggshmMAl5BK2EQ4TWgm3CIOESaIi0YToRgwnJhM3EMuIDcQrxMfEtyQSSZ/kTFpCEpDWk8pIx0nXSP2kj2QlsjmZSY4jS8hbydXkNvID8lsKhWJM8aTEUjIpWym1lEuUp5QPclQ5KzmWHFdunVyFXJNcr9wreYK8kTxDfrl8nnyp/En5W/KjCgQFYwWmAlthrUKFwhmF+wrjilRFG8VgxTTFLYp1itcVh5VwSsZKPkpcpQKlQ0qXlAaoKKoBlUnlUDdSD1OvUAeVscomyizlZOVi5WPKXcpjKkoq9iqRKjkqFSrnVKSqKFVjVZZqquo21ROq91Q/qWmrMdR4apvVGtR61SbU56l7qvPUi9Qb1e+qf9KgafhopGjs0GjWeKKJ1jTXXKKZrblf84rm6Dzlea7zOPOK5p2Y91AL1jLXCtVapXVIq1NrXFtH209bpL1X+5L2qI6qjqdOss4unfM6I7pUXXddge4u3Qu6L2gqNAYtlVZGu0wb09PS89eT6B3U69Kb1DfRj9DP12/Uf2JANKAbJBrsMmg3GDPUNVxkuNqw3vChEcGIbsQ32mPUYTRhbGIcZbzJuNl42ETdhGWSZ1Jv8tiUYuphutK0yvSOGdaMbpZits+s2xw2dzDnm1eY37KALRwtBBb7LHrmY+Y7zxfOr5p/35JsybDMsqy37LdStQqyyrdqtnq1wHBB7IIdCzoWfLV2sE61Pmz9yEbJJsAm36bV5o2tuS3HtsL2jh3FztdunV2L3Wt7C3ue/X77PgeqwyKHTQ7tDl8cnRzFjg2OI06GTvFOlU736cr0EPoW+jVnjLOX8zrns84fXRxdMl1OuPzpauma4lrnOrzQZCFv4eGFA276bmy3g25Sd5p7vPuP7lIPPQ+2R5XHM08DT67nEc8hhhkjmXGU8crL2kvsddprgunCXMNs80Z5+3kXeXf5KPlE+JT7PPXV903yrfcd83PwW+XX5o/xD/Tf4X+fpc3isGpZYwFOAWsCLgeSA8MCywOfBZkHiYNaF8GLAhbtXPR4sdFi4eLmYBDMCt4Z/CTEJGRlyC9LsEtCllQseR5qE7o6tCOMGrYirC7sfbhX+LbwRxGmEZKI9kj5yLjI2siJKO+okihp9ILoNdE3YzRjBDEtsbjYyNgjseNLfZbuXjoY5xBXGHdvmcmynGXXl2suT11+boX8CvaKk/GY+Kj4uvjP7GB2FXs8gZVQmTDGYXL2cF5yPbm7uCM8N14JbyjRLbEkcTjJLWln0gjfg1/KHxUwBeWC18n+yQeSJ1KCU6pTvqVGpTam4dPi084IlYQpwsvpOuk56T0iC1GhSLrSZeXulWPiQPGRDChjWUZLpjIiijolppLvJP1Z7lkVWR+yI7NP5ijmCHM6c81zN+cO5fnm/bQKvYqzqn213uoNq/vXMNYcXAutTVjbvs5gXcG6wfV+62s2EDekbPg13zq/JP/dxqiNrQXaBesLBr7z+66+UK5QXHh/k+umA9+jvxd837XZbvPezV+LuEU3iq2LS4s/b+FsufGDzQ9lP3zbmri1a5vjtv3bsduF2+/t8NhRU6JYklcysHPRzqZdtF1Fu97tXrH7eql96YE9xD2SPdKyoLKWvYZ7t+/9XM4vv1vhVdFYqVW5uXJiH3df737P/Q0HtA8UH/j0o+DHvoN+B5uqjKtKD2EPZR16fjjycMdP9J9qj2geKT7ypVpYLa0Jrblc61RbW6dVt60erpfUjxyNO9p9zPtYS4Nlw8FG1cbi4+C45PiLn+N/vnci8ET7SfrJhlNGpypPU08XNUFNuU1jzfxmaUtMS8+ZgDPtra6tp3+x+qX6rN7ZinMq57adJ54vOP/tQt6F8TZR2+jFpIsD7SvaH12KvnTn8pLLXVcCr1y76nv1Ugej48I1t2tnr7tcP3ODfqP5puPNpk6HztO/Ovx6usuxq+mW062Wbufu1p6FPed7PXov3va+ffUO687Nu4vv9tyLuNd3P+6+tI/bN/wg9cHrh1kPJx+tf4x5XPRE4UnpU62nVb+Z/dYodZSe6/fu73wW9uzRAGfg5e8Zv38eLHhOeV46pDtUO2w7fHbEd6T7xdIXgy9FLydHC/9Q/KPylemrU396/tk5Fj02+Fr8+tubLW813la/s3/XPh4y/vR92vvJiaIPGh9qPtI/dnyK+jQ0mf0Z97nsi9mX1q+BXx9/S/v2TcQWs6elAApZcGIiAG+qAaDEIFqhGwDi0hktPW3QjP6fJvCfeEZvT5sjANVtAISvB2BKFu1F2MgTACWEQxAf7glgOzvZmtW90xp9yoIsEclkNEV3XniCf9qMfv9L3//0YKqqPfin/xeu1AF7GuapXgAAAFZlWElmTU0AKgAAAAgAAYdpAAQAAAABAAAAGgAAAAAAA5KGAAcAAAASAAAARKACAAQAAAABAAAAXaADAAQAAAABAAAAIQAAAABBU0NJSQAAAFNjcmVlbnNob3TGNMLjAAAB1GlUWHRYTUw6Y29tLmFkb2JlLnhtcAAAAAAAPHg6eG1wbWV0YSB4bWxuczp4PSJhZG9iZTpuczptZXRhLyIgeDp4bXB0az0iWE1QIENvcmUgNi4wLjAiPgogICA8cmRmOlJERiB4bWxuczpyZGY9Imh0dHA6Ly93d3cudzMub3JnLzE5OTkvMDIvMjItcmRmLXN5bnRheC1ucyMiPgogICAgICA8cmRmOkRlc2NyaXB0aW9uIHJkZjphYm91dD0iIgogICAgICAgICAgICB4bWxuczpleGlmPSJodHRwOi8vbnMuYWRvYmUuY29tL2V4aWYvMS4wLyI+CiAgICAgICAgIDxleGlmOlBpeGVsWURpbWVuc2lvbj4zMzwvZXhpZjpQaXhlbFlEaW1lbnNpb24+CiAgICAgICAgIDxleGlmOlBpeGVsWERpbWVuc2lvbj45MzwvZXhpZjpQaXhlbFhEaW1lbnNpb24+CiAgICAgICAgIDxleGlmOlVzZXJDb21tZW50PlNjcmVlbnNob3Q8L2V4aWY6VXNlckNvbW1lbnQ+CiAgICAgIDwvcmRmOkRlc2NyaXB0aW9uPgogICA8L3JkZjpSREY+CjwveDp4bXBtZXRhPgq+f7kZAAAHCklEQVRoBe1Ze1BPWRz/9NNLeohQv0JWeiAlpZBnySvVYpce3nls47GKGbtDrd1FLEUhWnnPyiOjvJahLUQUY5mxmN0Z07Y/kWUUSS97v6e5d3/93qXkj/udOb97zvk+zrmf+72fc37n6r3nBKJ8VAQkH3U0cTCGgAh6KySCCLoIeisg0ApDipkugt4KCLTCkPqqxqyoqIBMJkNZWRnq6upUmYh9WhCQSCQwNzeHVCqFiYlJA2s9xX06Af7gwQMR7AYwNb1B4Ds7OzcAXinTKcMpu9tZmsDC2hwSfZH2mwJ5XU0dXpWU4c3LetZwcHAQwighSpRCIgIuYNSkCiUrYUjCY8oHUgKd5/BPNcPLy8rx5J8n/Pw/6SuPIY8pP1kl0HmF4jUydD5sjG0blOH9RyqaNam9eW0C3lW+0+hb9LgIQSND4NjZGQE+Y+Ha1Q2nMk5r9GkO5Y28G8i9mNscoYQYOoNOHt9vWgPZ22Kh5NzOFgJ9SGXTD5tRVVWlNkTl20qE+E3C0FG+KCp/jHt//47d6amIXhiDy9lX1Po1h6Iw/xbycq81RyghRqNAp5VYT0+vQXnx7wsEDpuIlUu+Qa9OTiwbj/+SAR+XwaydmvQzG2zO1EhEL4hhGUpZujU+CXTA6eflz/SjvcfgyIEjCJ0YLkyuIL8Q4cHTkXk8C2bmZli+KgYGBgZM7z3EG9HfLkPyxmSN8Um5d+c+ePT0ZGPTuCTxcRuwP/UAm2/ajj2gjKY3l95mmnv+1XxkHM7AlvitzH91TCzzI1uKRff69bxlKHtVjhJZCZvnjoQUNgYz1PCjtHvRYAsC8/7d+4KJ39hRGODjiVs3byMiMgJrNn6HsKAIpCSmIOPCMRAlzJg0C/OXzENxUTEqXr/B1buX8bz0OctcF1cXHPv1KPrYuiL9zGF0tOqAVdzNPbz/EE69nZB5NBM+vt549McjjPAfzh62MDhX8Rnqg4R1iaxLXfy2Jm2Rtj0NZ69wVMQlTHhQOJz7OqP0aSkIwMRdCRg60hdBo0IwN2oOwmaHYvumHeyBJOzcjD8f/YVyDtgVsSsYzdDDOp2bBRtbKRbPWYz1sesRFf0Vss9nw9zCDEfOpstPUWW9UaA7ODpgmN8wIZB9zx5CfdqMqaze170vrDp1hG1XW5iameF1+WvBJiomChaWFqzQDRJXBkwYzfQEOGVz2OwwZGWcwjLHnsg8loXz189hT8pelf8bFBcoVfENDA3QwaojDqYdYuO0t7TExXOXWH3WgpkInDSB1bOyT+J2wW3s3paGM5lnYSO1Bj0wU1NT1NbUMkCzL+QgctFclhDktHTlUszkkopAJ4lPiodF+/odC+tQ89Mo0N093RD8RVCDUE9LnnHgmjboMzY2Ym2iInkx5ADghcAgrlYUenjhwRFchvugn0c/SO2kcOEyM3HdFgY8URwveTl5GDDQg29CVXyag1VnK9h1s2N2U8LtWELQW2T/WXfWV1NTwzLdfYAb/Mf5I3hKEG5euynE5Su1nB1Pb9RnZGSEysr6eyAMdAGc/P6/A2ppEcos+dLYj04Hdx9CbW0tKt5U4ET6CXgN9hJGrK6uZnUCWGprg1XRqxE6cxrrC/w8EBUVbxkP83bXr1xH8k/bsGjFIiGGqvjE/bTFDJo8EVOnf4m8nGt4/qyU+UjatGHXZ1ziEIWtTfwR40PGMVrk3yJ6aO/e1S/yXoO8cPTgMbx88ZLhsG/Xfu4h+bEYxsbGwjy0VXQGXSLRQ+zyONiadBXKoN5DtMVvoC+RPYW7vQfc7Pujt2sfTJ42iel9RwxhvE5cTjJ93nTIimUYPd6ftY24N+fkpRNc9hWgm5k9W6zmhy0EcS758qIqPoFIGezegxu3e39UV1chiMtk+Temi00XDOdok+7Hy9GbA/Q9o6CC6wUgukxNSuX4eymjojGBARjo5MNi0Xzj4mOV1hp+PuquSmcvhYWFzNbOVarOp0n9AYPGYkNyPHo5OaANl2HEl+qEdgFEW2s2ximZvOEW43JunbDmgJIXbfGruGylt0zTuJTBtK7o6+uzXYmZualKQKurqhmtkK02Kb4nYyaenp6CaaM4XfD6gIoi/yuGWhCxkNsJ/IaLNy8oqli7nWk7UFEn6uIbGhmqcxH6LTtYCnXaiagTWo+oNFU+WqbTls6qkxWM22rmvjuFd2DNcbpiJmu7QV3ja4vT3HqdMp24ji2W3CkZf3bQHBPhdw/aYrl7umszUanXNb5K5xbqpJNGEvn1g7VZr9wPHbyT0LEk7ySnFqs6IsAf7ZI5jynvqsTp9KWDjiLpHJiKKB+GAGU5YSovSpxOSvFznTxETasT2Dp/rmvaEKJXYxDQ+c9RY4KKtpoREEHXjE+LaEXQWwRWzUFF0DXj0yJaEfQWgVVz0P8Ag9+o0NQWNgUAAAAASUVORK5CYII=;" parent="1" vertex="1">
                    <mxGeometry x="220" y="360" width="93" height="33" as="geometry"/>
                </mxCell>
                <mxCell id="67" value="" style="shape=image;verticalLabelPosition=bottom;labelBackgroundColor=default;verticalAlign=top;aspect=fixed;imageAspect=0;image=data:image/png,iVBORw0KGgoAAAANSUhEUgAAAF0AAAAhCAYAAAC7kad5AAAKpWlDQ1BJQ0MgUHJvZmlsZQAASImVlgdQk9kWx+/3pTda6FJCb4J0AkgJoQVQkA6iEpJAQgkxEJodWVzBtaAiAuqKrjQF1wLIWhALFhYBG9YNsggo62JBVCzvA4awu2/ee/POzM35zcm5555z57szfwAoZLZIlAorAJAmzBSH+nnRomNiabghQALqAAcA0GdzMkSMkJAghMGs/7u9vwegKX/bcqrWv///X02Ry8vgAACFIJzAzeCkIXwKWc85InEmAKhKJG6QnSma4jaElcVIgwjfmeKkGR6e4oQZ/jydEx7KBACNTIUns9niJADIWkiclsVJQuqQFyJsLeQKhAhP9euelpbORfgowqZIjgjhqfr0hL/USfpbzQRZTTY7ScYzs0wb3luQIUpl5/6f1/G/LS1VMnuGMbLIfLF/KOLlkDvrS0kPlLEwYXHwLAu40/nTzJf4R8wyJ4MZO8tctnegbG/q4qBZThT4smR1Mlnhs8zL8AmbZXF6qOysRDGTMcts8dy5kpQIWZzPY8nq5/HDo2Y5SxC5eJYzUsIC53KYsrhYEirrnyf085o711c2e1rGX+YVsGR7M/nh/rLZ2XP984SMuZoZ0bLeuDxvn7mcCFm+KNNLdpYoNUSWz0v1k8UzssJkezORD3Jub4jsDpPZASGzDJjADtgDf0AHziAHgExeTubUEMx0Ua5YkMTPpDGQ18WjsYQcq/k0W2tbOwCm3urMp/C2b/oNQqr4uRj/KQD2cUhw41xMoA5AixXyRBTnYoZSAKhZAJwr40jEWTMx9NQPBhCBPFAGGkAHGABTYAlsgSNwBZ7ABwSAYBAOYsBywAF8kAbEIBusBhtAISgG28FuUA4OgEOgBhwDJ0AzOAsugqvgJugGd8EjIAWD4CUYA+/BJARBOIgCUSENSBcygiwgW4gOuUM+UBAUCsVA8VASJIQk0GpoI1QMlUDl0EGoFvoZOgNdhK5DPdADqB8agd5An2AUTIaVYW3YGF4A02EGHAiHw8vgJHglnAcXwFvhMrgKPgo3wRfhm/BdWAq/hMdRAEVCqaL0UJYoOoqJCkbFohJRYtRaVBGqFFWFakC1ojpQt1FS1CjqIxqLpqJpaEu0K9ofHYHmoFei16K3oMvRNegm9GX0bXQ/egz9FUPBaGEsMC4YFiYak4TJxhRiSjFHMKcxVzB3MYOY91gsVhVrgnXC+mNjsMnYVdgt2H3YRmwbtgc7gB3H4XAaOAucGy4Yx8Zl4gpxe3FHcRdwvbhB3Ac8Ca+Lt8X74mPxQnw+vhRfhz+P78UP4ScJCgQjggshmMAl5BK2EQ4TWgm3CIOESaIi0YToRgwnJhM3EMuIDcQrxMfEtyQSSZ/kTFpCEpDWk8pIx0nXSP2kj2QlsjmZSY4jS8hbydXkNvID8lsKhWJM8aTEUjIpWym1lEuUp5QPclQ5KzmWHFdunVyFXJNcr9wreYK8kTxDfrl8nnyp/En5W/KjCgQFYwWmAlthrUKFwhmF+wrjilRFG8VgxTTFLYp1itcVh5VwSsZKPkpcpQKlQ0qXlAaoKKoBlUnlUDdSD1OvUAeVscomyizlZOVi5WPKXcpjKkoq9iqRKjkqFSrnVKSqKFVjVZZqquo21ROq91Q/qWmrMdR4apvVGtR61SbU56l7qvPUi9Qb1e+qf9KgafhopGjs0GjWeKKJ1jTXXKKZrblf84rm6Dzlea7zOPOK5p2Y91AL1jLXCtVapXVIq1NrXFtH209bpL1X+5L2qI6qjqdOss4unfM6I7pUXXddge4u3Qu6L2gqNAYtlVZGu0wb09PS89eT6B3U69Kb1DfRj9DP12/Uf2JANKAbJBrsMmg3GDPUNVxkuNqw3vChEcGIbsQ32mPUYTRhbGIcZbzJuNl42ETdhGWSZ1Jv8tiUYuphutK0yvSOGdaMbpZits+s2xw2dzDnm1eY37KALRwtBBb7LHrmY+Y7zxfOr5p/35JsybDMsqy37LdStQqyyrdqtnq1wHBB7IIdCzoWfLV2sE61Pmz9yEbJJsAm36bV5o2tuS3HtsL2jh3FztdunV2L3Wt7C3ue/X77PgeqwyKHTQ7tDl8cnRzFjg2OI06GTvFOlU736cr0EPoW+jVnjLOX8zrns84fXRxdMl1OuPzpauma4lrnOrzQZCFv4eGFA276bmy3g25Sd5p7vPuP7lIPPQ+2R5XHM08DT67nEc8hhhkjmXGU8crL2kvsddprgunCXMNs80Z5+3kXeXf5KPlE+JT7PPXV903yrfcd83PwW+XX5o/xD/Tf4X+fpc3isGpZYwFOAWsCLgeSA8MCywOfBZkHiYNaF8GLAhbtXPR4sdFi4eLmYBDMCt4Z/CTEJGRlyC9LsEtCllQseR5qE7o6tCOMGrYirC7sfbhX+LbwRxGmEZKI9kj5yLjI2siJKO+okihp9ILoNdE3YzRjBDEtsbjYyNgjseNLfZbuXjoY5xBXGHdvmcmynGXXl2suT11+boX8CvaKk/GY+Kj4uvjP7GB2FXs8gZVQmTDGYXL2cF5yPbm7uCM8N14JbyjRLbEkcTjJLWln0gjfg1/KHxUwBeWC18n+yQeSJ1KCU6pTvqVGpTam4dPi084IlYQpwsvpOuk56T0iC1GhSLrSZeXulWPiQPGRDChjWUZLpjIiijolppLvJP1Z7lkVWR+yI7NP5ijmCHM6c81zN+cO5fnm/bQKvYqzqn213uoNq/vXMNYcXAutTVjbvs5gXcG6wfV+62s2EDekbPg13zq/JP/dxqiNrQXaBesLBr7z+66+UK5QXHh/k+umA9+jvxd837XZbvPezV+LuEU3iq2LS4s/b+FsufGDzQ9lP3zbmri1a5vjtv3bsduF2+/t8NhRU6JYklcysHPRzqZdtF1Fu97tXrH7eql96YE9xD2SPdKyoLKWvYZ7t+/9XM4vv1vhVdFYqVW5uXJiH3df737P/Q0HtA8UH/j0o+DHvoN+B5uqjKtKD2EPZR16fjjycMdP9J9qj2geKT7ypVpYLa0Jrblc61RbW6dVt60erpfUjxyNO9p9zPtYS4Nlw8FG1cbi4+C45PiLn+N/vnci8ET7SfrJhlNGpypPU08XNUFNuU1jzfxmaUtMS8+ZgDPtra6tp3+x+qX6rN7ZinMq57adJ54vOP/tQt6F8TZR2+jFpIsD7SvaH12KvnTn8pLLXVcCr1y76nv1Ugej48I1t2tnr7tcP3ODfqP5puPNpk6HztO/Ovx6usuxq+mW062Wbufu1p6FPed7PXov3va+ffUO687Nu4vv9tyLuNd3P+6+tI/bN/wg9cHrh1kPJx+tf4x5XPRE4UnpU62nVb+Z/dYodZSe6/fu73wW9uzRAGfg5e8Zv38eLHhOeV46pDtUO2w7fHbEd6T7xdIXgy9FLydHC/9Q/KPylemrU396/tk5Fj02+Fr8+tubLW813la/s3/XPh4y/vR92vvJiaIPGh9qPtI/dnyK+jQ0mf0Z97nsi9mX1q+BXx9/S/v2TcQWs6elAApZcGIiAG+qAaDEIFqhGwDi0hktPW3QjP6fJvCfeEZvT5sjANVtAISvB2BKFu1F2MgTACWEQxAf7glgOzvZmtW90xp9yoIsEclkNEV3XniCf9qMfv9L3//0YKqqPfin/xeu1AF7GuapXgAAAFZlWElmTU0AKgAAAAgAAYdpAAQAAAABAAAAGgAAAAAAA5KGAAcAAAASAAAARKACAAQAAAABAAAAXaADAAQAAAABAAAAIQAAAABBU0NJSQAAAFNjcmVlbnNob3TGNMLjAAAB1GlUWHRYTUw6Y29tLmFkb2JlLnhtcAAAAAAAPHg6eG1wbWV0YSB4bWxuczp4PSJhZG9iZTpuczptZXRhLyIgeDp4bXB0az0iWE1QIENvcmUgNi4wLjAiPgogICA8cmRmOlJERiB4bWxuczpyZGY9Imh0dHA6Ly93d3cudzMub3JnLzE5OTkvMDIvMjItcmRmLXN5bnRheC1ucyMiPgogICAgICA8cmRmOkRlc2NyaXB0aW9uIHJkZjphYm91dD0iIgogICAgICAgICAgICB4bWxuczpleGlmPSJodHRwOi8vbnMuYWRvYmUuY29tL2V4aWYvMS4wLyI+CiAgICAgICAgIDxleGlmOlBpeGVsWURpbWVuc2lvbj4zMzwvZXhpZjpQaXhlbFlEaW1lbnNpb24+CiAgICAgICAgIDxleGlmOlBpeGVsWERpbWVuc2lvbj45MzwvZXhpZjpQaXhlbFhEaW1lbnNpb24+CiAgICAgICAgIDxleGlmOlVzZXJDb21tZW50PlNjcmVlbnNob3Q8L2V4aWY6VXNlckNvbW1lbnQ+CiAgICAgIDwvcmRmOkRlc2NyaXB0aW9uPgogICA8L3JkZjpSREY+CjwveDp4bXBtZXRhPgq+f7kZAAAHCklEQVRoBe1Ze1BPWRz/9NNLeohQv0JWeiAlpZBnySvVYpce3nls47GKGbtDrd1FLEUhWnnPyiOjvJahLUQUY5mxmN0Z07Y/kWUUSS97v6e5d3/93qXkj/udOb97zvk+zrmf+72fc37n6r3nBKJ8VAQkH3U0cTCGgAh6KySCCLoIeisg0ApDipkugt4KCLTCkPqqxqyoqIBMJkNZWRnq6upUmYh9WhCQSCQwNzeHVCqFiYlJA2s9xX06Af7gwQMR7AYwNb1B4Ds7OzcAXinTKcMpu9tZmsDC2hwSfZH2mwJ5XU0dXpWU4c3LetZwcHAQwighSpRCIgIuYNSkCiUrYUjCY8oHUgKd5/BPNcPLy8rx5J8n/Pw/6SuPIY8pP1kl0HmF4jUydD5sjG0blOH9RyqaNam9eW0C3lW+0+hb9LgIQSND4NjZGQE+Y+Ha1Q2nMk5r9GkO5Y28G8i9mNscoYQYOoNOHt9vWgPZ22Kh5NzOFgJ9SGXTD5tRVVWlNkTl20qE+E3C0FG+KCp/jHt//47d6amIXhiDy9lX1Po1h6Iw/xbycq81RyghRqNAp5VYT0+vQXnx7wsEDpuIlUu+Qa9OTiwbj/+SAR+XwaydmvQzG2zO1EhEL4hhGUpZujU+CXTA6eflz/SjvcfgyIEjCJ0YLkyuIL8Q4cHTkXk8C2bmZli+KgYGBgZM7z3EG9HfLkPyxmSN8Um5d+c+ePT0ZGPTuCTxcRuwP/UAm2/ajj2gjKY3l95mmnv+1XxkHM7AlvitzH91TCzzI1uKRff69bxlKHtVjhJZCZvnjoQUNgYz1PCjtHvRYAsC8/7d+4KJ39hRGODjiVs3byMiMgJrNn6HsKAIpCSmIOPCMRAlzJg0C/OXzENxUTEqXr/B1buX8bz0OctcF1cXHPv1KPrYuiL9zGF0tOqAVdzNPbz/EE69nZB5NBM+vt549McjjPAfzh62MDhX8Rnqg4R1iaxLXfy2Jm2Rtj0NZ69wVMQlTHhQOJz7OqP0aSkIwMRdCRg60hdBo0IwN2oOwmaHYvumHeyBJOzcjD8f/YVyDtgVsSsYzdDDOp2bBRtbKRbPWYz1sesRFf0Vss9nw9zCDEfOpstPUWW9UaA7ODpgmN8wIZB9zx5CfdqMqaze170vrDp1hG1XW5iameF1+WvBJiomChaWFqzQDRJXBkwYzfQEOGVz2OwwZGWcwjLHnsg8loXz189hT8pelf8bFBcoVfENDA3QwaojDqYdYuO0t7TExXOXWH3WgpkInDSB1bOyT+J2wW3s3paGM5lnYSO1Bj0wU1NT1NbUMkCzL+QgctFclhDktHTlUszkkopAJ4lPiodF+/odC+tQ89Mo0N093RD8RVCDUE9LnnHgmjboMzY2Ym2iInkx5ADghcAgrlYUenjhwRFchvugn0c/SO2kcOEyM3HdFgY8URwveTl5GDDQg29CVXyag1VnK9h1s2N2U8LtWELQW2T/WXfWV1NTwzLdfYAb/Mf5I3hKEG5euynE5Su1nB1Pb9RnZGSEysr6eyAMdAGc/P6/A2ppEcos+dLYj04Hdx9CbW0tKt5U4ET6CXgN9hJGrK6uZnUCWGprg1XRqxE6cxrrC/w8EBUVbxkP83bXr1xH8k/bsGjFIiGGqvjE/bTFDJo8EVOnf4m8nGt4/qyU+UjatGHXZ1ziEIWtTfwR40PGMVrk3yJ6aO/e1S/yXoO8cPTgMbx88ZLhsG/Xfu4h+bEYxsbGwjy0VXQGXSLRQ+zyONiadBXKoN5DtMVvoC+RPYW7vQfc7Pujt2sfTJ42iel9RwxhvE5cTjJ93nTIimUYPd6ftY24N+fkpRNc9hWgm5k9W6zmhy0EcS758qIqPoFIGezegxu3e39UV1chiMtk+Temi00XDOdok+7Hy9GbA/Q9o6CC6wUgukxNSuX4eymjojGBARjo5MNi0Xzj4mOV1hp+PuquSmcvhYWFzNbOVarOp0n9AYPGYkNyPHo5OaANl2HEl+qEdgFEW2s2ximZvOEW43JunbDmgJIXbfGruGylt0zTuJTBtK7o6+uzXYmZualKQKurqhmtkK02Kb4nYyaenp6CaaM4XfD6gIoi/yuGWhCxkNsJ/IaLNy8oqli7nWk7UFEn6uIbGhmqcxH6LTtYCnXaiagTWo+oNFU+WqbTls6qkxWM22rmvjuFd2DNcbpiJmu7QV3ja4vT3HqdMp24ji2W3CkZf3bQHBPhdw/aYrl7umszUanXNb5K5xbqpJNGEvn1g7VZr9wPHbyT0LEk7ySnFqs6IsAf7ZI5jynvqsTp9KWDjiLpHJiKKB+GAGU5YSovSpxOSvFznTxETasT2Dp/rmvaEKJXYxDQ+c9RY4KKtpoREEHXjE+LaEXQWwRWzUFF0DXj0yJaEfQWgVVz0P8Ag9+o0NQWNgUAAAAASUVORK5CYII=;" parent="1" vertex="1">
                    <mxGeometry x="770" y="300" width="93" height="33" as="geometry"/>
                </mxCell>
                <mxCell id="68" value="" style="shape=image;verticalLabelPosition=bottom;labelBackgroundColor=default;verticalAlign=top;aspect=fixed;imageAspect=0;image=data:image/png,iVBORw0KGgoAAAANSUhEUgAAAF0AAAAcCAYAAAADdbMKAAAKpWlDQ1BJQ0MgUHJvZmlsZQAASImVlgdQk9kWx+/3pTda6FJCb4J0AkgJoQVQkA6iEpJAQgkxEJodWVzBtaAiAuqKrjQF1wLIWhALFhYBG9YNsggo62JBVCzvA4awu2/ee/POzM35zcm5555z57szfwAoZLZIlAorAJAmzBSH+nnRomNiabghQALqAAcA0GdzMkSMkJAghMGs/7u9vwegKX/bcqrWv///X02Ry8vgAACFIJzAzeCkIXwKWc85InEmAKhKJG6QnSma4jaElcVIgwjfmeKkGR6e4oQZ/jydEx7KBACNTIUns9niJADIWkiclsVJQuqQFyJsLeQKhAhP9euelpbORfgowqZIjgjhqfr0hL/USfpbzQRZTTY7ScYzs0wb3luQIUpl5/6f1/G/LS1VMnuGMbLIfLF/KOLlkDvrS0kPlLEwYXHwLAu40/nTzJf4R8wyJ4MZO8tctnegbG/q4qBZThT4smR1Mlnhs8zL8AmbZXF6qOysRDGTMcts8dy5kpQIWZzPY8nq5/HDo2Y5SxC5eJYzUsIC53KYsrhYEirrnyf085o711c2e1rGX+YVsGR7M/nh/rLZ2XP984SMuZoZ0bLeuDxvn7mcCFm+KNNLdpYoNUSWz0v1k8UzssJkezORD3Jub4jsDpPZASGzDJjADtgDf0AHziAHgExeTubUEMx0Ua5YkMTPpDGQ18WjsYQcq/k0W2tbOwCm3urMp/C2b/oNQqr4uRj/KQD2cUhw41xMoA5AixXyRBTnYoZSAKhZAJwr40jEWTMx9NQPBhCBPFAGGkAHGABTYAlsgSNwBZ7ABwSAYBAOYsBywAF8kAbEIBusBhtAISgG28FuUA4OgEOgBhwDJ0AzOAsugqvgJugGd8EjIAWD4CUYA+/BJARBOIgCUSENSBcygiwgW4gOuUM+UBAUCsVA8VASJIQk0GpoI1QMlUDl0EGoFvoZOgNdhK5DPdADqB8agd5An2AUTIaVYW3YGF4A02EGHAiHw8vgJHglnAcXwFvhMrgKPgo3wRfhm/BdWAq/hMdRAEVCqaL0UJYoOoqJCkbFohJRYtRaVBGqFFWFakC1ojpQt1FS1CjqIxqLpqJpaEu0K9ofHYHmoFei16K3oMvRNegm9GX0bXQ/egz9FUPBaGEsMC4YFiYak4TJxhRiSjFHMKcxVzB3MYOY91gsVhVrgnXC+mNjsMnYVdgt2H3YRmwbtgc7gB3H4XAaOAucGy4Yx8Zl4gpxe3FHcRdwvbhB3Ac8Ca+Lt8X74mPxQnw+vhRfhz+P78UP4ScJCgQjggshmMAl5BK2EQ4TWgm3CIOESaIi0YToRgwnJhM3EMuIDcQrxMfEtyQSSZ/kTFpCEpDWk8pIx0nXSP2kj2QlsjmZSY4jS8hbydXkNvID8lsKhWJM8aTEUjIpWym1lEuUp5QPclQ5KzmWHFdunVyFXJNcr9wreYK8kTxDfrl8nnyp/En5W/KjCgQFYwWmAlthrUKFwhmF+wrjilRFG8VgxTTFLYp1itcVh5VwSsZKPkpcpQKlQ0qXlAaoKKoBlUnlUDdSD1OvUAeVscomyizlZOVi5WPKXcpjKkoq9iqRKjkqFSrnVKSqKFVjVZZqquo21ROq91Q/qWmrMdR4apvVGtR61SbU56l7qvPUi9Qb1e+qf9KgafhopGjs0GjWeKKJ1jTXXKKZrblf84rm6Dzlea7zOPOK5p2Y91AL1jLXCtVapXVIq1NrXFtH209bpL1X+5L2qI6qjqdOss4unfM6I7pUXXddge4u3Qu6L2gqNAYtlVZGu0wb09PS89eT6B3U69Kb1DfRj9DP12/Uf2JANKAbJBrsMmg3GDPUNVxkuNqw3vChEcGIbsQ32mPUYTRhbGIcZbzJuNl42ETdhGWSZ1Jv8tiUYuphutK0yvSOGdaMbpZits+s2xw2dzDnm1eY37KALRwtBBb7LHrmY+Y7zxfOr5p/35JsybDMsqy37LdStQqyyrdqtnq1wHBB7IIdCzoWfLV2sE61Pmz9yEbJJsAm36bV5o2tuS3HtsL2jh3FztdunV2L3Wt7C3ue/X77PgeqwyKHTQ7tDl8cnRzFjg2OI06GTvFOlU736cr0EPoW+jVnjLOX8zrns84fXRxdMl1OuPzpauma4lrnOrzQZCFv4eGFA276bmy3g25Sd5p7vPuP7lIPPQ+2R5XHM08DT67nEc8hhhkjmXGU8crL2kvsddprgunCXMNs80Z5+3kXeXf5KPlE+JT7PPXV903yrfcd83PwW+XX5o/xD/Tf4X+fpc3isGpZYwFOAWsCLgeSA8MCywOfBZkHiYNaF8GLAhbtXPR4sdFi4eLmYBDMCt4Z/CTEJGRlyC9LsEtCllQseR5qE7o6tCOMGrYirC7sfbhX+LbwRxGmEZKI9kj5yLjI2siJKO+okihp9ILoNdE3YzRjBDEtsbjYyNgjseNLfZbuXjoY5xBXGHdvmcmynGXXl2suT11+boX8CvaKk/GY+Kj4uvjP7GB2FXs8gZVQmTDGYXL2cF5yPbm7uCM8N14JbyjRLbEkcTjJLWln0gjfg1/KHxUwBeWC18n+yQeSJ1KCU6pTvqVGpTam4dPi084IlYQpwsvpOuk56T0iC1GhSLrSZeXulWPiQPGRDChjWUZLpjIiijolppLvJP1Z7lkVWR+yI7NP5ijmCHM6c81zN+cO5fnm/bQKvYqzqn213uoNq/vXMNYcXAutTVjbvs5gXcG6wfV+62s2EDekbPg13zq/JP/dxqiNrQXaBesLBr7z+66+UK5QXHh/k+umA9+jvxd837XZbvPezV+LuEU3iq2LS4s/b+FsufGDzQ9lP3zbmri1a5vjtv3bsduF2+/t8NhRU6JYklcysHPRzqZdtF1Fu97tXrH7eql96YE9xD2SPdKyoLKWvYZ7t+/9XM4vv1vhVdFYqVW5uXJiH3df737P/Q0HtA8UH/j0o+DHvoN+B5uqjKtKD2EPZR16fjjycMdP9J9qj2geKT7ypVpYLa0Jrblc61RbW6dVt60erpfUjxyNO9p9zPtYS4Nlw8FG1cbi4+C45PiLn+N/vnci8ET7SfrJhlNGpypPU08XNUFNuU1jzfxmaUtMS8+ZgDPtra6tp3+x+qX6rN7ZinMq57adJ54vOP/tQt6F8TZR2+jFpIsD7SvaH12KvnTn8pLLXVcCr1y76nv1Ugej48I1t2tnr7tcP3ODfqP5puPNpk6HztO/Ovx6usuxq+mW062Wbufu1p6FPed7PXov3va+ffUO687Nu4vv9tyLuNd3P+6+tI/bN/wg9cHrh1kPJx+tf4x5XPRE4UnpU62nVb+Z/dYodZSe6/fu73wW9uzRAGfg5e8Zv38eLHhOeV46pDtUO2w7fHbEd6T7xdIXgy9FLydHC/9Q/KPylemrU396/tk5Fj02+Fr8+tubLW813la/s3/XPh4y/vR92vvJiaIPGh9qPtI/dnyK+jQ0mf0Z97nsi9mX1q+BXx9/S/v2TcQWs6elAApZcGIiAG+qAaDEIFqhGwDi0hktPW3QjP6fJvCfeEZvT5sjANVtAISvB2BKFu1F2MgTACWEQxAf7glgOzvZmtW90xp9yoIsEclkNEV3XniCf9qMfv9L3//0YKqqPfin/xeu1AF7GuapXgAAAFZlWElmTU0AKgAAAAgAAYdpAAQAAAABAAAAGgAAAAAAA5KGAAcAAAASAAAARKACAAQAAAABAAAAXaADAAQAAAABAAAAHAAAAABBU0NJSQAAAFNjcmVlbnNob3ReNUBWAAAB1GlUWHRYTUw6Y29tLmFkb2JlLnhtcAAAAAAAPHg6eG1wbWV0YSB4bWxuczp4PSJhZG9iZTpuczptZXRhLyIgeDp4bXB0az0iWE1QIENvcmUgNi4wLjAiPgogICA8cmRmOlJERiB4bWxuczpyZGY9Imh0dHA6Ly93d3cudzMub3JnLzE5OTkvMDIvMjItcmRmLXN5bnRheC1ucyMiPgogICAgICA8cmRmOkRlc2NyaXB0aW9uIHJkZjphYm91dD0iIgogICAgICAgICAgICB4bWxuczpleGlmPSJodHRwOi8vbnMuYWRvYmUuY29tL2V4aWYvMS4wLyI+CiAgICAgICAgIDxleGlmOlBpeGVsWURpbWVuc2lvbj4yODwvZXhpZjpQaXhlbFlEaW1lbnNpb24+CiAgICAgICAgIDxleGlmOlBpeGVsWERpbWVuc2lvbj45MzwvZXhpZjpQaXhlbFhEaW1lbnNpb24+CiAgICAgICAgIDxleGlmOlVzZXJDb21tZW50PlNjcmVlbnNob3Q8L2V4aWY6VXNlckNvbW1lbnQ+CiAgICAgIDwvcmRmOkRlc2NyaXB0aW9uPgogICA8L3JkZjpSREY+CjwveDp4bXBtZXRhPgoXgiT4AAAHvklEQVRoBe1ZDVjNVxj/lVAhSrGyJsnHMM00zLDRpBStIjHZJszazNrMjFnMUMJmTMuzZDZbhn1gPmcfZEWx8dgI+RZWKbFb3T7Ozvvm/9+9dK9b+djz7L7P8//fc97zvuc953fe9z3nf66FkAQz3VUELO+qNbMxRsAM+j1wBDPo9wB0K12bGo0G2dnZKCwsREVFhW6TuVxNBCwtLWFnZwcXFxfY2trqaVsoGykBfuTIETPYevDUvkLgt2/fXg941dPJw8m7He0a4v6m9rCqU6f2Fv/HPZSVl+NcXj5yC69x9vDw8FDRUHM6pRQiM+AqNrUqkNMSlkQKtkqHKuhKDv+veziN8/TZsygqLlbm8J/9VbBUsFUGqoKuMHR/D/7xJyzsndTHzrUVJkx+Czm5ebpieuVdqWnY9uPPzFu3fiNCn4/Qa69phb7hPohPQJOWrdHN2we2zq4IDn8OeZfza9qlyXozY+NQXFJisvytBI2CrihXXP4L5XmXsPfHbfjt4EGsTF6tNN30m7o3HT/tSmH+7fzYXbZiJRYsWYq0H7bg0tHD+Dv7DOwaNULgiJG4nXZumpBkzIiZB61WW1VTjXgmgW5hYQHehdu0gU+/vtizbx8Cho3A5h92qEaHjxmHydEz8d78hfjok0RMnDKV27JOnsJjPn4cLT7BQ3Hl+t6xeNkncO3oCYqe5196ReUPDA1D9NxYNG/7ILclf/0N9/PO3Bh8GDsHHdq147qtjQ0+mh8LisaUtD34OWU3fIcMQ99BT7OtPgMHIfPYcZY9c+4cqF+yRfxjWSdw/sIF5sV9uIRtlZaW4sXX32AZiu7nIiegXG6Gnr2e4D669OnL/ZFDdX3Sm214BwarNqbNmo345Uno5esPmptRoiMjUXp6Oj8iP0coz4GUX+heRuzeuomfxMWLxP0uLuKzhKVi/qyZIjQokGWzjxwSjRo2FDlZmeLtSa+JCePGioLTWWLNiuWsn7Z9i7h88ph4xLMz625dt4blD6XuYrlBvgNEZMRo7qutR2sxYkiIkJ7MsmSPdGkc0sPVsSlj9PfpL+IXxomNq79gmQ3Jq4TmwlkxY8pk0bljByGjVDzevZtYPC9GlFw6LxLeX8D8kwf2s3xYSJCgeX67aqVwd2spcrOOirwTR3l8f6SliJzjmSx3fH+6oHnSONZ+miSKL54X706dImi8ZbkXRUT4M6xDc6bxKuNTca2Emd/qkdHYykyfPZebmzrYY9670QgOCED+lQJMmh6NZR8sxHebNmNk6FA4OjhAgo+ysnI0lh8GRH79vdHdqyuXn+z1OHLzLmP/gYOYOH4cOsrzK9G016MwWKYJ8lyiCS+MAXmy31NPIfyFSObRS45YLSuFClEBS4vKgJXgImCADzdNeXUip4U/MzOxe89e9OnZE7MXvM99UHRkX7zAcvEL4tCkcWMZQW3h4d4Km7ZvR8Zvv+PqtWsoKiqGY1MHlnNybMpps8ejXggZHMC8t6Im4p05MTh15izXI8eMxpDAQVw29jIpvez47mvQ81VSIoaHBKN+/Xq4r1kzDH16MDZs2Yov1qzDqOGhVdpp2KDBTXxalLp166p8a2trnqDCsLXR/4Kzb9IE0uOx89dURYR/CZiU1D3o1OFBruv2aWVV+Z2h0VSeclq3ckNLV1e4PfAAZMTKRbVlByHAib79fjN8Q4bJNHcVgQP9IL2e+bovHrfVv35a5/q3TGlZKYu1dnPTFTdYNgl0Q9pjwsMxd+EiXMrJQQ8vLxaj/F+iNb7Tk0d++mUynzzoOLU0cTn8B/Q3ZIb50W++gdemTcehw4e5rikqwvioSZApBD27Pco8yuvkxUS0FzRzckSXzp0gUwBH3uiRI2T9ISz6OEEC3gA2NtYsS68dO3diVFgoXh4bgRbOzjhx6rTe17lWWwqvLp6g09m+3w+w3qo1a9mGe8vKBVIWQe3UQOHfZTMgYIzt/URvFF69iqjI8aoYTWpy0ExOI4P9fFU+FWhB6KEQTMvIQCvPR3jibdzdsTrp5s1Hiqokcyb+llcVPX0Gss5fObkICvDH+i8/V2UoGoJGjpInjVJoS7UcmVbSMz9PiEdYxFhETX0b9erVxZK4WBBfl4L8/TEgZCjWrt/AC9T7sR6IjonFpq+S0a9Pbzh5tIPcgyD3M96slfS5buUK2Wc9Pmjo9mesrN69ZEgQiLw83PjXlBeB4NyuIzIz0uDcvLkpKnoydAyj8y8d/Uwlyuvn5JWFk6MjrOvXV9W+37Yd8YlJvAh0dqccfCPlFxSAUpUhKinRQlOkYZmysjIZsVo0uOGyinQpOguuXIGDfeUXp6H+iJ9x/BQ3e13PBFSpcXrZuHWb9Do/PDs8rEaAk3HykOoATjoUKa4tWugBTnyF6GhbFeDUbgxwaqe9SpGhSKgKcJIjG6YATrJVkX6MVSVhgNe9a1c+uXh1ediAxN1l08no4Yc63V2jNbSmgk6rR2FDt2PKnYGxPsmbDHmUMb071UZeacgz75TNW/VLWBIRtrqk1ujCnYiuIxVhXUFzuXoIKFe7pKVgq/Sgejr9w0FXkHT/S4+Zbg8C5OWErS6ppxdimv+u04WmdmUC+5Z/19XOhFm7OgioOb06SmbZ2iFgBr12+NVI2wx6jWCrndI/eUtfQN+hZqAAAAAASUVORK5CYII=;" parent="1" vertex="1">
                    <mxGeometry x="80" y="425" width="93" height="28" as="geometry"/>
                </mxCell>
                <mxCell id="69" value="" style="shape=image;verticalLabelPosition=bottom;labelBackgroundColor=default;verticalAlign=top;aspect=fixed;imageAspect=0;image=data:image/png,iVBORw0KGgoAAAANSUhEUgAAAF0AAAAcCAYAAAADdbMKAAAKpWlDQ1BJQ0MgUHJvZmlsZQAASImVlgdQk9kWx+/3pTda6FJCb4J0AkgJoQVQkA6iEpJAQgkxEJodWVzBtaAiAuqKrjQF1wLIWhALFhYBG9YNsggo62JBVCzvA4awu2/ee/POzM35zcm5555z57szfwAoZLZIlAorAJAmzBSH+nnRomNiabghQALqAAcA0GdzMkSMkJAghMGs/7u9vwegKX/bcqrWv///X02Ry8vgAACFIJzAzeCkIXwKWc85InEmAKhKJG6QnSma4jaElcVIgwjfmeKkGR6e4oQZ/jydEx7KBACNTIUns9niJADIWkiclsVJQuqQFyJsLeQKhAhP9euelpbORfgowqZIjgjhqfr0hL/USfpbzQRZTTY7ScYzs0wb3luQIUpl5/6f1/G/LS1VMnuGMbLIfLF/KOLlkDvrS0kPlLEwYXHwLAu40/nTzJf4R8wyJ4MZO8tctnegbG/q4qBZThT4smR1Mlnhs8zL8AmbZXF6qOysRDGTMcts8dy5kpQIWZzPY8nq5/HDo2Y5SxC5eJYzUsIC53KYsrhYEirrnyf085o711c2e1rGX+YVsGR7M/nh/rLZ2XP984SMuZoZ0bLeuDxvn7mcCFm+KNNLdpYoNUSWz0v1k8UzssJkezORD3Jub4jsDpPZASGzDJjADtgDf0AHziAHgExeTubUEMx0Ua5YkMTPpDGQ18WjsYQcq/k0W2tbOwCm3urMp/C2b/oNQqr4uRj/KQD2cUhw41xMoA5AixXyRBTnYoZSAKhZAJwr40jEWTMx9NQPBhCBPFAGGkAHGABTYAlsgSNwBZ7ABwSAYBAOYsBywAF8kAbEIBusBhtAISgG28FuUA4OgEOgBhwDJ0AzOAsugqvgJugGd8EjIAWD4CUYA+/BJARBOIgCUSENSBcygiwgW4gOuUM+UBAUCsVA8VASJIQk0GpoI1QMlUDl0EGoFvoZOgNdhK5DPdADqB8agd5An2AUTIaVYW3YGF4A02EGHAiHw8vgJHglnAcXwFvhMrgKPgo3wRfhm/BdWAq/hMdRAEVCqaL0UJYoOoqJCkbFohJRYtRaVBGqFFWFakC1ojpQt1FS1CjqIxqLpqJpaEu0K9ofHYHmoFei16K3oMvRNegm9GX0bXQ/egz9FUPBaGEsMC4YFiYak4TJxhRiSjFHMKcxVzB3MYOY91gsVhVrgnXC+mNjsMnYVdgt2H3YRmwbtgc7gB3H4XAaOAucGy4Yx8Zl4gpxe3FHcRdwvbhB3Ac8Ca+Lt8X74mPxQnw+vhRfhz+P78UP4ScJCgQjggshmMAl5BK2EQ4TWgm3CIOESaIi0YToRgwnJhM3EMuIDcQrxMfEtyQSSZ/kTFpCEpDWk8pIx0nXSP2kj2QlsjmZSY4jS8hbydXkNvID8lsKhWJM8aTEUjIpWym1lEuUp5QPclQ5KzmWHFdunVyFXJNcr9wreYK8kTxDfrl8nnyp/En5W/KjCgQFYwWmAlthrUKFwhmF+wrjilRFG8VgxTTFLYp1itcVh5VwSsZKPkpcpQKlQ0qXlAaoKKoBlUnlUDdSD1OvUAeVscomyizlZOVi5WPKXcpjKkoq9iqRKjkqFSrnVKSqKFVjVZZqquo21ROq91Q/qWmrMdR4apvVGtR61SbU56l7qvPUi9Qb1e+qf9KgafhopGjs0GjWeKKJ1jTXXKKZrblf84rm6Dzlea7zOPOK5p2Y91AL1jLXCtVapXVIq1NrXFtH209bpL1X+5L2qI6qjqdOss4unfM6I7pUXXddge4u3Qu6L2gqNAYtlVZGu0wb09PS89eT6B3U69Kb1DfRj9DP12/Uf2JANKAbJBrsMmg3GDPUNVxkuNqw3vChEcGIbsQ32mPUYTRhbGIcZbzJuNl42ETdhGWSZ1Jv8tiUYuphutK0yvSOGdaMbpZits+s2xw2dzDnm1eY37KALRwtBBb7LHrmY+Y7zxfOr5p/35JsybDMsqy37LdStQqyyrdqtnq1wHBB7IIdCzoWfLV2sE61Pmz9yEbJJsAm36bV5o2tuS3HtsL2jh3FztdunV2L3Wt7C3ue/X77PgeqwyKHTQ7tDl8cnRzFjg2OI06GTvFOlU736cr0EPoW+jVnjLOX8zrns84fXRxdMl1OuPzpauma4lrnOrzQZCFv4eGFA276bmy3g25Sd5p7vPuP7lIPPQ+2R5XHM08DT67nEc8hhhkjmXGU8crL2kvsddprgunCXMNs80Z5+3kXeXf5KPlE+JT7PPXV903yrfcd83PwW+XX5o/xD/Tf4X+fpc3isGpZYwFOAWsCLgeSA8MCywOfBZkHiYNaF8GLAhbtXPR4sdFi4eLmYBDMCt4Z/CTEJGRlyC9LsEtCllQseR5qE7o6tCOMGrYirC7sfbhX+LbwRxGmEZKI9kj5yLjI2siJKO+okihp9ILoNdE3YzRjBDEtsbjYyNgjseNLfZbuXjoY5xBXGHdvmcmynGXXl2suT11+boX8CvaKk/GY+Kj4uvjP7GB2FXs8gZVQmTDGYXL2cF5yPbm7uCM8N14JbyjRLbEkcTjJLWln0gjfg1/KHxUwBeWC18n+yQeSJ1KCU6pTvqVGpTam4dPi084IlYQpwsvpOuk56T0iC1GhSLrSZeXulWPiQPGRDChjWUZLpjIiijolppLvJP1Z7lkVWR+yI7NP5ijmCHM6c81zN+cO5fnm/bQKvYqzqn213uoNq/vXMNYcXAutTVjbvs5gXcG6wfV+62s2EDekbPg13zq/JP/dxqiNrQXaBesLBr7z+66+UK5QXHh/k+umA9+jvxd837XZbvPezV+LuEU3iq2LS4s/b+FsufGDzQ9lP3zbmri1a5vjtv3bsduF2+/t8NhRU6JYklcysHPRzqZdtF1Fu97tXrH7eql96YE9xD2SPdKyoLKWvYZ7t+/9XM4vv1vhVdFYqVW5uXJiH3df737P/Q0HtA8UH/j0o+DHvoN+B5uqjKtKD2EPZR16fjjycMdP9J9qj2geKT7ypVpYLa0Jrblc61RbW6dVt60erpfUjxyNO9p9zPtYS4Nlw8FG1cbi4+C45PiLn+N/vnci8ET7SfrJhlNGpypPU08XNUFNuU1jzfxmaUtMS8+ZgDPtra6tp3+x+qX6rN7ZinMq57adJ54vOP/tQt6F8TZR2+jFpIsD7SvaH12KvnTn8pLLXVcCr1y76nv1Ugej48I1t2tnr7tcP3ODfqP5puPNpk6HztO/Ovx6usuxq+mW062Wbufu1p6FPed7PXov3va+ffUO687Nu4vv9tyLuNd3P+6+tI/bN/wg9cHrh1kPJx+tf4x5XPRE4UnpU62nVb+Z/dYodZSe6/fu73wW9uzRAGfg5e8Zv38eLHhOeV46pDtUO2w7fHbEd6T7xdIXgy9FLydHC/9Q/KPylemrU396/tk5Fj02+Fr8+tubLW813la/s3/XPh4y/vR92vvJiaIPGh9qPtI/dnyK+jQ0mf0Z97nsi9mX1q+BXx9/S/v2TcQWs6elAApZcGIiAG+qAaDEIFqhGwDi0hktPW3QjP6fJvCfeEZvT5sjANVtAISvB2BKFu1F2MgTACWEQxAf7glgOzvZmtW90xp9yoIsEclkNEV3XniCf9qMfv9L3//0YKqqPfin/xeu1AF7GuapXgAAAFZlWElmTU0AKgAAAAgAAYdpAAQAAAABAAAAGgAAAAAAA5KGAAcAAAASAAAARKACAAQAAAABAAAAXaADAAQAAAABAAAAHAAAAABBU0NJSQAAAFNjcmVlbnNob3ReNUBWAAAB1GlUWHRYTUw6Y29tLmFkb2JlLnhtcAAAAAAAPHg6eG1wbWV0YSB4bWxuczp4PSJhZG9iZTpuczptZXRhLyIgeDp4bXB0az0iWE1QIENvcmUgNi4wLjAiPgogICA8cmRmOlJERiB4bWxuczpyZGY9Imh0dHA6Ly93d3cudzMub3JnLzE5OTkvMDIvMjItcmRmLXN5bnRheC1ucyMiPgogICAgICA8cmRmOkRlc2NyaXB0aW9uIHJkZjphYm91dD0iIgogICAgICAgICAgICB4bWxuczpleGlmPSJodHRwOi8vbnMuYWRvYmUuY29tL2V4aWYvMS4wLyI+CiAgICAgICAgIDxleGlmOlBpeGVsWURpbWVuc2lvbj4yODwvZXhpZjpQaXhlbFlEaW1lbnNpb24+CiAgICAgICAgIDxleGlmOlBpeGVsWERpbWVuc2lvbj45MzwvZXhpZjpQaXhlbFhEaW1lbnNpb24+CiAgICAgICAgIDxleGlmOlVzZXJDb21tZW50PlNjcmVlbnNob3Q8L2V4aWY6VXNlckNvbW1lbnQ+CiAgICAgIDwvcmRmOkRlc2NyaXB0aW9uPgogICA8L3JkZjpSREY+CjwveDp4bXBtZXRhPgoXgiT4AAAHvklEQVRoBe1ZDVjNVxj/lVAhSrGyJsnHMM00zLDRpBStIjHZJszazNrMjFnMUMJmTMuzZDZbhn1gPmcfZEWx8dgI+RZWKbFb3T7Ozvvm/9+9dK9b+djz7L7P8//fc97zvuc953fe9z3nf66FkAQz3VUELO+qNbMxRsAM+j1wBDPo9wB0K12bGo0G2dnZKCwsREVFhW6TuVxNBCwtLWFnZwcXFxfY2trqaVsoGykBfuTIETPYevDUvkLgt2/fXg941dPJw8m7He0a4v6m9rCqU6f2Fv/HPZSVl+NcXj5yC69x9vDw8FDRUHM6pRQiM+AqNrUqkNMSlkQKtkqHKuhKDv+veziN8/TZsygqLlbm8J/9VbBUsFUGqoKuMHR/D/7xJyzsndTHzrUVJkx+Czm5ebpieuVdqWnY9uPPzFu3fiNCn4/Qa69phb7hPohPQJOWrdHN2we2zq4IDn8OeZfza9qlyXozY+NQXFJisvytBI2CrihXXP4L5XmXsPfHbfjt4EGsTF6tNN30m7o3HT/tSmH+7fzYXbZiJRYsWYq0H7bg0tHD+Dv7DOwaNULgiJG4nXZumpBkzIiZB61WW1VTjXgmgW5hYQHehdu0gU+/vtizbx8Cho3A5h92qEaHjxmHydEz8d78hfjok0RMnDKV27JOnsJjPn4cLT7BQ3Hl+t6xeNkncO3oCYqe5196ReUPDA1D9NxYNG/7ILclf/0N9/PO3Bh8GDsHHdq147qtjQ0+mh8LisaUtD34OWU3fIcMQ99BT7OtPgMHIfPYcZY9c+4cqF+yRfxjWSdw/sIF5sV9uIRtlZaW4sXX32AZiu7nIiegXG6Gnr2e4D669OnL/ZFDdX3Sm214BwarNqbNmo345Uno5esPmptRoiMjUXp6Oj8iP0coz4GUX+heRuzeuomfxMWLxP0uLuKzhKVi/qyZIjQokGWzjxwSjRo2FDlZmeLtSa+JCePGioLTWWLNiuWsn7Z9i7h88ph4xLMz625dt4blD6XuYrlBvgNEZMRo7qutR2sxYkiIkJ7MsmSPdGkc0sPVsSlj9PfpL+IXxomNq79gmQ3Jq4TmwlkxY8pk0bljByGjVDzevZtYPC9GlFw6LxLeX8D8kwf2s3xYSJCgeX67aqVwd2spcrOOirwTR3l8f6SliJzjmSx3fH+6oHnSONZ+miSKL54X706dImi8ZbkXRUT4M6xDc6bxKuNTca2Emd/qkdHYykyfPZebmzrYY9670QgOCED+lQJMmh6NZR8sxHebNmNk6FA4OjhAgo+ysnI0lh8GRH79vdHdqyuXn+z1OHLzLmP/gYOYOH4cOsrzK9G016MwWKYJ8lyiCS+MAXmy31NPIfyFSObRS45YLSuFClEBS4vKgJXgImCADzdNeXUip4U/MzOxe89e9OnZE7MXvM99UHRkX7zAcvEL4tCkcWMZQW3h4d4Km7ZvR8Zvv+PqtWsoKiqGY1MHlnNybMpps8ejXggZHMC8t6Im4p05MTh15izXI8eMxpDAQVw29jIpvez47mvQ81VSIoaHBKN+/Xq4r1kzDH16MDZs2Yov1qzDqOGhVdpp2KDBTXxalLp166p8a2trnqDCsLXR/4Kzb9IE0uOx89dURYR/CZiU1D3o1OFBruv2aWVV+Z2h0VSeclq3ckNLV1e4PfAAZMTKRbVlByHAib79fjN8Q4bJNHcVgQP9IL2e+bovHrfVv35a5/q3TGlZKYu1dnPTFTdYNgl0Q9pjwsMxd+EiXMrJQQ8vLxaj/F+iNb7Tk0d++mUynzzoOLU0cTn8B/Q3ZIb50W++gdemTcehw4e5rikqwvioSZApBD27Pco8yuvkxUS0FzRzckSXzp0gUwBH3uiRI2T9ISz6OEEC3gA2NtYsS68dO3diVFgoXh4bgRbOzjhx6rTe17lWWwqvLp6g09m+3w+w3qo1a9mGe8vKBVIWQe3UQOHfZTMgYIzt/URvFF69iqjI8aoYTWpy0ExOI4P9fFU+FWhB6KEQTMvIQCvPR3jibdzdsTrp5s1Hiqokcyb+llcVPX0Gss5fObkICvDH+i8/V2UoGoJGjpInjVJoS7UcmVbSMz9PiEdYxFhETX0b9erVxZK4WBBfl4L8/TEgZCjWrt/AC9T7sR6IjonFpq+S0a9Pbzh5tIPcgyD3M96slfS5buUK2Wc9Pmjo9mesrN69ZEgQiLw83PjXlBeB4NyuIzIz0uDcvLkpKnoydAyj8y8d/Uwlyuvn5JWFk6MjrOvXV9W+37Yd8YlJvAh0dqccfCPlFxSAUpUhKinRQlOkYZmysjIZsVo0uOGyinQpOguuXIGDfeUXp6H+iJ9x/BQ3e13PBFSpcXrZuHWb9Do/PDs8rEaAk3HykOoATjoUKa4tWugBTnyF6GhbFeDUbgxwaqe9SpGhSKgKcJIjG6YATrJVkX6MVSVhgNe9a1c+uXh1ediAxN1l08no4Yc63V2jNbSmgk6rR2FDt2PKnYGxPsmbDHmUMb071UZeacgz75TNW/VLWBIRtrqk1ujCnYiuIxVhXUFzuXoIKFe7pKVgq/Sgejr9w0FXkHT/S4+Zbg8C5OWErS6ppxdimv+u04WmdmUC+5Z/19XOhFm7OgioOb06SmbZ2iFgBr12+NVI2wx6jWCrndI/eUtfQN+hZqAAAAAASUVORK5CYII=;" parent="1" vertex="1">
                    <mxGeometry x="348.5" y="383" width="93" height="28" as="geometry"/>
                </mxCell>
                <mxCell id="70" value="" style="shape=image;verticalLabelPosition=bottom;labelBackgroundColor=default;verticalAlign=top;aspect=fixed;imageAspect=0;image=data:image/png,iVBORw0KGgoAAAANSUhEUgAAAF0AAAAcCAYAAAADdbMKAAAKpWlDQ1BJQ0MgUHJvZmlsZQAASImVlgdQk9kWx+/3pTda6FJCb4J0AkgJoQVQkA6iEpJAQgkxEJodWVzBtaAiAuqKrjQF1wLIWhALFhYBG9YNsggo62JBVCzvA4awu2/ee/POzM35zcm5555z57szfwAoZLZIlAorAJAmzBSH+nnRomNiabghQALqAAcA0GdzMkSMkJAghMGs/7u9vwegKX/bcqrWv///X02Ry8vgAACFIJzAzeCkIXwKWc85InEmAKhKJG6QnSma4jaElcVIgwjfmeKkGR6e4oQZ/jydEx7KBACNTIUns9niJADIWkiclsVJQuqQFyJsLeQKhAhP9euelpbORfgowqZIjgjhqfr0hL/USfpbzQRZTTY7ScYzs0wb3luQIUpl5/6f1/G/LS1VMnuGMbLIfLF/KOLlkDvrS0kPlLEwYXHwLAu40/nTzJf4R8wyJ4MZO8tctnegbG/q4qBZThT4smR1Mlnhs8zL8AmbZXF6qOysRDGTMcts8dy5kpQIWZzPY8nq5/HDo2Y5SxC5eJYzUsIC53KYsrhYEirrnyf085o711c2e1rGX+YVsGR7M/nh/rLZ2XP984SMuZoZ0bLeuDxvn7mcCFm+KNNLdpYoNUSWz0v1k8UzssJkezORD3Jub4jsDpPZASGzDJjADtgDf0AHziAHgExeTubUEMx0Ua5YkMTPpDGQ18WjsYQcq/k0W2tbOwCm3urMp/C2b/oNQqr4uRj/KQD2cUhw41xMoA5AixXyRBTnYoZSAKhZAJwr40jEWTMx9NQPBhCBPFAGGkAHGABTYAlsgSNwBZ7ABwSAYBAOYsBywAF8kAbEIBusBhtAISgG28FuUA4OgEOgBhwDJ0AzOAsugqvgJugGd8EjIAWD4CUYA+/BJARBOIgCUSENSBcygiwgW4gOuUM+UBAUCsVA8VASJIQk0GpoI1QMlUDl0EGoFvoZOgNdhK5DPdADqB8agd5An2AUTIaVYW3YGF4A02EGHAiHw8vgJHglnAcXwFvhMrgKPgo3wRfhm/BdWAq/hMdRAEVCqaL0UJYoOoqJCkbFohJRYtRaVBGqFFWFakC1ojpQt1FS1CjqIxqLpqJpaEu0K9ofHYHmoFei16K3oMvRNegm9GX0bXQ/egz9FUPBaGEsMC4YFiYak4TJxhRiSjFHMKcxVzB3MYOY91gsVhVrgnXC+mNjsMnYVdgt2H3YRmwbtgc7gB3H4XAaOAucGy4Yx8Zl4gpxe3FHcRdwvbhB3Ac8Ca+Lt8X74mPxQnw+vhRfhz+P78UP4ScJCgQjggshmMAl5BK2EQ4TWgm3CIOESaIi0YToRgwnJhM3EMuIDcQrxMfEtyQSSZ/kTFpCEpDWk8pIx0nXSP2kj2QlsjmZSY4jS8hbydXkNvID8lsKhWJM8aTEUjIpWym1lEuUp5QPclQ5KzmWHFdunVyFXJNcr9wreYK8kTxDfrl8nnyp/En5W/KjCgQFYwWmAlthrUKFwhmF+wrjilRFG8VgxTTFLYp1itcVh5VwSsZKPkpcpQKlQ0qXlAaoKKoBlUnlUDdSD1OvUAeVscomyizlZOVi5WPKXcpjKkoq9iqRKjkqFSrnVKSqKFVjVZZqquo21ROq91Q/qWmrMdR4apvVGtR61SbU56l7qvPUi9Qb1e+qf9KgafhopGjs0GjWeKKJ1jTXXKKZrblf84rm6Dzlea7zOPOK5p2Y91AL1jLXCtVapXVIq1NrXFtH209bpL1X+5L2qI6qjqdOss4unfM6I7pUXXddge4u3Qu6L2gqNAYtlVZGu0wb09PS89eT6B3U69Kb1DfRj9DP12/Uf2JANKAbJBrsMmg3GDPUNVxkuNqw3vChEcGIbsQ32mPUYTRhbGIcZbzJuNl42ETdhGWSZ1Jv8tiUYuphutK0yvSOGdaMbpZits+s2xw2dzDnm1eY37KALRwtBBb7LHrmY+Y7zxfOr5p/35JsybDMsqy37LdStQqyyrdqtnq1wHBB7IIdCzoWfLV2sE61Pmz9yEbJJsAm36bV5o2tuS3HtsL2jh3FztdunV2L3Wt7C3ue/X77PgeqwyKHTQ7tDl8cnRzFjg2OI06GTvFOlU736cr0EPoW+jVnjLOX8zrns84fXRxdMl1OuPzpauma4lrnOrzQZCFv4eGFA276bmy3g25Sd5p7vPuP7lIPPQ+2R5XHM08DT67nEc8hhhkjmXGU8crL2kvsddprgunCXMNs80Z5+3kXeXf5KPlE+JT7PPXV903yrfcd83PwW+XX5o/xD/Tf4X+fpc3isGpZYwFOAWsCLgeSA8MCywOfBZkHiYNaF8GLAhbtXPR4sdFi4eLmYBDMCt4Z/CTEJGRlyC9LsEtCllQseR5qE7o6tCOMGrYirC7sfbhX+LbwRxGmEZKI9kj5yLjI2siJKO+okihp9ILoNdE3YzRjBDEtsbjYyNgjseNLfZbuXjoY5xBXGHdvmcmynGXXl2suT11+boX8CvaKk/GY+Kj4uvjP7GB2FXs8gZVQmTDGYXL2cF5yPbm7uCM8N14JbyjRLbEkcTjJLWln0gjfg1/KHxUwBeWC18n+yQeSJ1KCU6pTvqVGpTam4dPi084IlYQpwsvpOuk56T0iC1GhSLrSZeXulWPiQPGRDChjWUZLpjIiijolppLvJP1Z7lkVWR+yI7NP5ijmCHM6c81zN+cO5fnm/bQKvYqzqn213uoNq/vXMNYcXAutTVjbvs5gXcG6wfV+62s2EDekbPg13zq/JP/dxqiNrQXaBesLBr7z+66+UK5QXHh/k+umA9+jvxd837XZbvPezV+LuEU3iq2LS4s/b+FsufGDzQ9lP3zbmri1a5vjtv3bsduF2+/t8NhRU6JYklcysHPRzqZdtF1Fu97tXrH7eql96YE9xD2SPdKyoLKWvYZ7t+/9XM4vv1vhVdFYqVW5uXJiH3df737P/Q0HtA8UH/j0o+DHvoN+B5uqjKtKD2EPZR16fjjycMdP9J9qj2geKT7ypVpYLa0Jrblc61RbW6dVt60erpfUjxyNO9p9zPtYS4Nlw8FG1cbi4+C45PiLn+N/vnci8ET7SfrJhlNGpypPU08XNUFNuU1jzfxmaUtMS8+ZgDPtra6tp3+x+qX6rN7ZinMq57adJ54vOP/tQt6F8TZR2+jFpIsD7SvaH12KvnTn8pLLXVcCr1y76nv1Ugej48I1t2tnr7tcP3ODfqP5puPNpk6HztO/Ovx6usuxq+mW062Wbufu1p6FPed7PXov3va+ffUO687Nu4vv9tyLuNd3P+6+tI/bN/wg9cHrh1kPJx+tf4x5XPRE4UnpU62nVb+Z/dYodZSe6/fu73wW9uzRAGfg5e8Zv38eLHhOeV46pDtUO2w7fHbEd6T7xdIXgy9FLydHC/9Q/KPylemrU396/tk5Fj02+Fr8+tubLW813la/s3/XPh4y/vR92vvJiaIPGh9qPtI/dnyK+jQ0mf0Z97nsi9mX1q+BXx9/S/v2TcQWs6elAApZcGIiAG+qAaDEIFqhGwDi0hktPW3QjP6fJvCfeEZvT5sjANVtAISvB2BKFu1F2MgTACWEQxAf7glgOzvZmtW90xp9yoIsEclkNEV3XniCf9qMfv9L3//0YKqqPfin/xeu1AF7GuapXgAAAFZlWElmTU0AKgAAAAgAAYdpAAQAAAABAAAAGgAAAAAAA5KGAAcAAAASAAAARKACAAQAAAABAAAAXaADAAQAAAABAAAAHAAAAABBU0NJSQAAAFNjcmVlbnNob3ReNUBWAAAB1GlUWHRYTUw6Y29tLmFkb2JlLnhtcAAAAAAAPHg6eG1wbWV0YSB4bWxuczp4PSJhZG9iZTpuczptZXRhLyIgeDp4bXB0az0iWE1QIENvcmUgNi4wLjAiPgogICA8cmRmOlJERiB4bWxuczpyZGY9Imh0dHA6Ly93d3cudzMub3JnLzE5OTkvMDIvMjItcmRmLXN5bnRheC1ucyMiPgogICAgICA8cmRmOkRlc2NyaXB0aW9uIHJkZjphYm91dD0iIgogICAgICAgICAgICB4bWxuczpleGlmPSJodHRwOi8vbnMuYWRvYmUuY29tL2V4aWYvMS4wLyI+CiAgICAgICAgIDxleGlmOlBpeGVsWURpbWVuc2lvbj4yODwvZXhpZjpQaXhlbFlEaW1lbnNpb24+CiAgICAgICAgIDxleGlmOlBpeGVsWERpbWVuc2lvbj45MzwvZXhpZjpQaXhlbFhEaW1lbnNpb24+CiAgICAgICAgIDxleGlmOlVzZXJDb21tZW50PlNjcmVlbnNob3Q8L2V4aWY6VXNlckNvbW1lbnQ+CiAgICAgIDwvcmRmOkRlc2NyaXB0aW9uPgogICA8L3JkZjpSREY+CjwveDp4bXBtZXRhPgoXgiT4AAAHvklEQVRoBe1ZDVjNVxj/lVAhSrGyJsnHMM00zLDRpBStIjHZJszazNrMjFnMUMJmTMuzZDZbhn1gPmcfZEWx8dgI+RZWKbFb3T7Ozvvm/9+9dK9b+djz7L7P8//fc97zvuc953fe9z3nf66FkAQz3VUELO+qNbMxRsAM+j1wBDPo9wB0K12bGo0G2dnZKCwsREVFhW6TuVxNBCwtLWFnZwcXFxfY2trqaVsoGykBfuTIETPYevDUvkLgt2/fXg941dPJw8m7He0a4v6m9rCqU6f2Fv/HPZSVl+NcXj5yC69x9vDw8FDRUHM6pRQiM+AqNrUqkNMSlkQKtkqHKuhKDv+veziN8/TZsygqLlbm8J/9VbBUsFUGqoKuMHR/D/7xJyzsndTHzrUVJkx+Czm5ebpieuVdqWnY9uPPzFu3fiNCn4/Qa69phb7hPohPQJOWrdHN2we2zq4IDn8OeZfza9qlyXozY+NQXFJisvytBI2CrihXXP4L5XmXsPfHbfjt4EGsTF6tNN30m7o3HT/tSmH+7fzYXbZiJRYsWYq0H7bg0tHD+Dv7DOwaNULgiJG4nXZumpBkzIiZB61WW1VTjXgmgW5hYQHehdu0gU+/vtizbx8Cho3A5h92qEaHjxmHydEz8d78hfjok0RMnDKV27JOnsJjPn4cLT7BQ3Hl+t6xeNkncO3oCYqe5196ReUPDA1D9NxYNG/7ILclf/0N9/PO3Bh8GDsHHdq147qtjQ0+mh8LisaUtD34OWU3fIcMQ99BT7OtPgMHIfPYcZY9c+4cqF+yRfxjWSdw/sIF5sV9uIRtlZaW4sXX32AZiu7nIiegXG6Gnr2e4D669OnL/ZFDdX3Sm214BwarNqbNmo345Uno5esPmptRoiMjUXp6Oj8iP0coz4GUX+heRuzeuomfxMWLxP0uLuKzhKVi/qyZIjQokGWzjxwSjRo2FDlZmeLtSa+JCePGioLTWWLNiuWsn7Z9i7h88ph4xLMz625dt4blD6XuYrlBvgNEZMRo7qutR2sxYkiIkJ7MsmSPdGkc0sPVsSlj9PfpL+IXxomNq79gmQ3Jq4TmwlkxY8pk0bljByGjVDzevZtYPC9GlFw6LxLeX8D8kwf2s3xYSJCgeX67aqVwd2spcrOOirwTR3l8f6SliJzjmSx3fH+6oHnSONZ+miSKL54X706dImi8ZbkXRUT4M6xDc6bxKuNTca2Emd/qkdHYykyfPZebmzrYY9670QgOCED+lQJMmh6NZR8sxHebNmNk6FA4OjhAgo+ysnI0lh8GRH79vdHdqyuXn+z1OHLzLmP/gYOYOH4cOsrzK9G016MwWKYJ8lyiCS+MAXmy31NPIfyFSObRS45YLSuFClEBS4vKgJXgImCADzdNeXUip4U/MzOxe89e9OnZE7MXvM99UHRkX7zAcvEL4tCkcWMZQW3h4d4Km7ZvR8Zvv+PqtWsoKiqGY1MHlnNybMpps8ejXggZHMC8t6Im4p05MTh15izXI8eMxpDAQVw29jIpvez47mvQ81VSIoaHBKN+/Xq4r1kzDH16MDZs2Yov1qzDqOGhVdpp2KDBTXxalLp166p8a2trnqDCsLXR/4Kzb9IE0uOx89dURYR/CZiU1D3o1OFBruv2aWVV+Z2h0VSeclq3ckNLV1e4PfAAZMTKRbVlByHAib79fjN8Q4bJNHcVgQP9IL2e+bovHrfVv35a5/q3TGlZKYu1dnPTFTdYNgl0Q9pjwsMxd+EiXMrJQQ8vLxaj/F+iNb7Tk0d++mUynzzoOLU0cTn8B/Q3ZIb50W++gdemTcehw4e5rikqwvioSZApBD27Pco8yuvkxUS0FzRzckSXzp0gUwBH3uiRI2T9ISz6OEEC3gA2NtYsS68dO3diVFgoXh4bgRbOzjhx6rTe17lWWwqvLp6g09m+3w+w3qo1a9mGe8vKBVIWQe3UQOHfZTMgYIzt/URvFF69iqjI8aoYTWpy0ExOI4P9fFU+FWhB6KEQTMvIQCvPR3jibdzdsTrp5s1Hiqokcyb+llcVPX0Gss5fObkICvDH+i8/V2UoGoJGjpInjVJoS7UcmVbSMz9PiEdYxFhETX0b9erVxZK4WBBfl4L8/TEgZCjWrt/AC9T7sR6IjonFpq+S0a9Pbzh5tIPcgyD3M96slfS5buUK2Wc9Pmjo9mesrN69ZEgQiLw83PjXlBeB4NyuIzIz0uDcvLkpKnoydAyj8y8d/Uwlyuvn5JWFk6MjrOvXV9W+37Yd8YlJvAh0dqccfCPlFxSAUpUhKinRQlOkYZmysjIZsVo0uOGyinQpOguuXIGDfeUXp6H+iJ9x/BQ3e13PBFSpcXrZuHWb9Do/PDs8rEaAk3HykOoATjoUKa4tWugBTnyF6GhbFeDUbgxwaqe9SpGhSKgKcJIjG6YATrJVkX6MVSVhgNe9a1c+uXh1ediAxN1l08no4Yc63V2jNbSmgk6rR2FDt2PKnYGxPsmbDHmUMb071UZeacgz75TNW/VLWBIRtrqk1ujCnYiuIxVhXUFzuXoIKFe7pKVgq/Sgejr9w0FXkHT/S4+Zbg8C5OWErS6ppxdimv+u04WmdmUC+5Z/19XOhFm7OgioOb06SmbZ2iFgBr12+NVI2wx6jWCrndI/eUtfQN+hZqAAAAAASUVORK5CYII=;" parent="1" vertex="1">
                    <mxGeometry x="540" y="383" width="93" height="28" as="geometry"/>
                </mxCell>
                <mxCell id="71" value="" style="shape=image;verticalLabelPosition=bottom;labelBackgroundColor=default;verticalAlign=top;aspect=fixed;imageAspect=0;image=data:image/png,iVBORw0KGgoAAAANSUhEUgAAAF0AAAAcCAYAAAADdbMKAAAKpWlDQ1BJQ0MgUHJvZmlsZQAASImVlgdQk9kWx+/3pTda6FJCb4J0AkgJoQVQkA6iEpJAQgkxEJodWVzBtaAiAuqKrjQF1wLIWhALFhYBG9YNsggo62JBVCzvA4awu2/ee/POzM35zcm5555z57szfwAoZLZIlAorAJAmzBSH+nnRomNiabghQALqAAcA0GdzMkSMkJAghMGs/7u9vwegKX/bcqrWv///X02Ry8vgAACFIJzAzeCkIXwKWc85InEmAKhKJG6QnSma4jaElcVIgwjfmeKkGR6e4oQZ/jydEx7KBACNTIUns9niJADIWkiclsVJQuqQFyJsLeQKhAhP9euelpbORfgowqZIjgjhqfr0hL/USfpbzQRZTTY7ScYzs0wb3luQIUpl5/6f1/G/LS1VMnuGMbLIfLF/KOLlkDvrS0kPlLEwYXHwLAu40/nTzJf4R8wyJ4MZO8tctnegbG/q4qBZThT4smR1Mlnhs8zL8AmbZXF6qOysRDGTMcts8dy5kpQIWZzPY8nq5/HDo2Y5SxC5eJYzUsIC53KYsrhYEirrnyf085o711c2e1rGX+YVsGR7M/nh/rLZ2XP984SMuZoZ0bLeuDxvn7mcCFm+KNNLdpYoNUSWz0v1k8UzssJkezORD3Jub4jsDpPZASGzDJjADtgDf0AHziAHgExeTubUEMx0Ua5YkMTPpDGQ18WjsYQcq/k0W2tbOwCm3urMp/C2b/oNQqr4uRj/KQD2cUhw41xMoA5AixXyRBTnYoZSAKhZAJwr40jEWTMx9NQPBhCBPFAGGkAHGABTYAlsgSNwBZ7ABwSAYBAOYsBywAF8kAbEIBusBhtAISgG28FuUA4OgEOgBhwDJ0AzOAsugqvgJugGd8EjIAWD4CUYA+/BJARBOIgCUSENSBcygiwgW4gOuUM+UBAUCsVA8VASJIQk0GpoI1QMlUDl0EGoFvoZOgNdhK5DPdADqB8agd5An2AUTIaVYW3YGF4A02EGHAiHw8vgJHglnAcXwFvhMrgKPgo3wRfhm/BdWAq/hMdRAEVCqaL0UJYoOoqJCkbFohJRYtRaVBGqFFWFakC1ojpQt1FS1CjqIxqLpqJpaEu0K9ofHYHmoFei16K3oMvRNegm9GX0bXQ/egz9FUPBaGEsMC4YFiYak4TJxhRiSjFHMKcxVzB3MYOY91gsVhVrgnXC+mNjsMnYVdgt2H3YRmwbtgc7gB3H4XAaOAucGy4Yx8Zl4gpxe3FHcRdwvbhB3Ac8Ca+Lt8X74mPxQnw+vhRfhz+P78UP4ScJCgQjggshmMAl5BK2EQ4TWgm3CIOESaIi0YToRgwnJhM3EMuIDcQrxMfEtyQSSZ/kTFpCEpDWk8pIx0nXSP2kj2QlsjmZSY4jS8hbydXkNvID8lsKhWJM8aTEUjIpWym1lEuUp5QPclQ5KzmWHFdunVyFXJNcr9wreYK8kTxDfrl8nnyp/En5W/KjCgQFYwWmAlthrUKFwhmF+wrjilRFG8VgxTTFLYp1itcVh5VwSsZKPkpcpQKlQ0qXlAaoKKoBlUnlUDdSD1OvUAeVscomyizlZOVi5WPKXcpjKkoq9iqRKjkqFSrnVKSqKFVjVZZqquo21ROq91Q/qWmrMdR4apvVGtR61SbU56l7qvPUi9Qb1e+qf9KgafhopGjs0GjWeKKJ1jTXXKKZrblf84rm6Dzlea7zOPOK5p2Y91AL1jLXCtVapXVIq1NrXFtH209bpL1X+5L2qI6qjqdOss4unfM6I7pUXXddge4u3Qu6L2gqNAYtlVZGu0wb09PS89eT6B3U69Kb1DfRj9DP12/Uf2JANKAbJBrsMmg3GDPUNVxkuNqw3vChEcGIbsQ32mPUYTRhbGIcZbzJuNl42ETdhGWSZ1Jv8tiUYuphutK0yvSOGdaMbpZits+s2xw2dzDnm1eY37KALRwtBBb7LHrmY+Y7zxfOr5p/35JsybDMsqy37LdStQqyyrdqtnq1wHBB7IIdCzoWfLV2sE61Pmz9yEbJJsAm36bV5o2tuS3HtsL2jh3FztdunV2L3Wt7C3ue/X77PgeqwyKHTQ7tDl8cnRzFjg2OI06GTvFOlU736cr0EPoW+jVnjLOX8zrns84fXRxdMl1OuPzpauma4lrnOrzQZCFv4eGFA276bmy3g25Sd5p7vPuP7lIPPQ+2R5XHM08DT67nEc8hhhkjmXGU8crL2kvsddprgunCXMNs80Z5+3kXeXf5KPlE+JT7PPXV903yrfcd83PwW+XX5o/xD/Tf4X+fpc3isGpZYwFOAWsCLgeSA8MCywOfBZkHiYNaF8GLAhbtXPR4sdFi4eLmYBDMCt4Z/CTEJGRlyC9LsEtCllQseR5qE7o6tCOMGrYirC7sfbhX+LbwRxGmEZKI9kj5yLjI2siJKO+okihp9ILoNdE3YzRjBDEtsbjYyNgjseNLfZbuXjoY5xBXGHdvmcmynGXXl2suT11+boX8CvaKk/GY+Kj4uvjP7GB2FXs8gZVQmTDGYXL2cF5yPbm7uCM8N14JbyjRLbEkcTjJLWln0gjfg1/KHxUwBeWC18n+yQeSJ1KCU6pTvqVGpTam4dPi084IlYQpwsvpOuk56T0iC1GhSLrSZeXulWPiQPGRDChjWUZLpjIiijolppLvJP1Z7lkVWR+yI7NP5ijmCHM6c81zN+cO5fnm/bQKvYqzqn213uoNq/vXMNYcXAutTVjbvs5gXcG6wfV+62s2EDekbPg13zq/JP/dxqiNrQXaBesLBr7z+66+UK5QXHh/k+umA9+jvxd837XZbvPezV+LuEU3iq2LS4s/b+FsufGDzQ9lP3zbmri1a5vjtv3bsduF2+/t8NhRU6JYklcysHPRzqZdtF1Fu97tXrH7eql96YE9xD2SPdKyoLKWvYZ7t+/9XM4vv1vhVdFYqVW5uXJiH3df737P/Q0HtA8UH/j0o+DHvoN+B5uqjKtKD2EPZR16fjjycMdP9J9qj2geKT7ypVpYLa0Jrblc61RbW6dVt60erpfUjxyNO9p9zPtYS4Nlw8FG1cbi4+C45PiLn+N/vnci8ET7SfrJhlNGpypPU08XNUFNuU1jzfxmaUtMS8+ZgDPtra6tp3+x+qX6rN7ZinMq57adJ54vOP/tQt6F8TZR2+jFpIsD7SvaH12KvnTn8pLLXVcCr1y76nv1Ugej48I1t2tnr7tcP3ODfqP5puPNpk6HztO/Ovx6usuxq+mW062Wbufu1p6FPed7PXov3va+ffUO687Nu4vv9tyLuNd3P+6+tI/bN/wg9cHrh1kPJx+tf4x5XPRE4UnpU62nVb+Z/dYodZSe6/fu73wW9uzRAGfg5e8Zv38eLHhOeV46pDtUO2w7fHbEd6T7xdIXgy9FLydHC/9Q/KPylemrU396/tk5Fj02+Fr8+tubLW813la/s3/XPh4y/vR92vvJiaIPGh9qPtI/dnyK+jQ0mf0Z97nsi9mX1q+BXx9/S/v2TcQWs6elAApZcGIiAG+qAaDEIFqhGwDi0hktPW3QjP6fJvCfeEZvT5sjANVtAISvB2BKFu1F2MgTACWEQxAf7glgOzvZmtW90xp9yoIsEclkNEV3XniCf9qMfv9L3//0YKqqPfin/xeu1AF7GuapXgAAAFZlWElmTU0AKgAAAAgAAYdpAAQAAAABAAAAGgAAAAAAA5KGAAcAAAASAAAARKACAAQAAAABAAAAXaADAAQAAAABAAAAHAAAAABBU0NJSQAAAFNjcmVlbnNob3ReNUBWAAAB1GlUWHRYTUw6Y29tLmFkb2JlLnhtcAAAAAAAPHg6eG1wbWV0YSB4bWxuczp4PSJhZG9iZTpuczptZXRhLyIgeDp4bXB0az0iWE1QIENvcmUgNi4wLjAiPgogICA8cmRmOlJERiB4bWxuczpyZGY9Imh0dHA6Ly93d3cudzMub3JnLzE5OTkvMDIvMjItcmRmLXN5bnRheC1ucyMiPgogICAgICA8cmRmOkRlc2NyaXB0aW9uIHJkZjphYm91dD0iIgogICAgICAgICAgICB4bWxuczpleGlmPSJodHRwOi8vbnMuYWRvYmUuY29tL2V4aWYvMS4wLyI+CiAgICAgICAgIDxleGlmOlBpeGVsWURpbWVuc2lvbj4yODwvZXhpZjpQaXhlbFlEaW1lbnNpb24+CiAgICAgICAgIDxleGlmOlBpeGVsWERpbWVuc2lvbj45MzwvZXhpZjpQaXhlbFhEaW1lbnNpb24+CiAgICAgICAgIDxleGlmOlVzZXJDb21tZW50PlNjcmVlbnNob3Q8L2V4aWY6VXNlckNvbW1lbnQ+CiAgICAgIDwvcmRmOkRlc2NyaXB0aW9uPgogICA8L3JkZjpSREY+CjwveDp4bXBtZXRhPgoXgiT4AAAHvklEQVRoBe1ZDVjNVxj/lVAhSrGyJsnHMM00zLDRpBStIjHZJszazNrMjFnMUMJmTMuzZDZbhn1gPmcfZEWx8dgI+RZWKbFb3T7Ozvvm/9+9dK9b+djz7L7P8//fc97zvuc953fe9z3nf66FkAQz3VUELO+qNbMxRsAM+j1wBDPo9wB0K12bGo0G2dnZKCwsREVFhW6TuVxNBCwtLWFnZwcXFxfY2trqaVsoGykBfuTIETPYevDUvkLgt2/fXg941dPJw8m7He0a4v6m9rCqU6f2Fv/HPZSVl+NcXj5yC69x9vDw8FDRUHM6pRQiM+AqNrUqkNMSlkQKtkqHKuhKDv+veziN8/TZsygqLlbm8J/9VbBUsFUGqoKuMHR/D/7xJyzsndTHzrUVJkx+Czm5ebpieuVdqWnY9uPPzFu3fiNCn4/Qa69phb7hPohPQJOWrdHN2we2zq4IDn8OeZfza9qlyXozY+NQXFJisvytBI2CrihXXP4L5XmXsPfHbfjt4EGsTF6tNN30m7o3HT/tSmH+7fzYXbZiJRYsWYq0H7bg0tHD+Dv7DOwaNULgiJG4nXZumpBkzIiZB61WW1VTjXgmgW5hYQHehdu0gU+/vtizbx8Cho3A5h92qEaHjxmHydEz8d78hfjok0RMnDKV27JOnsJjPn4cLT7BQ3Hl+t6xeNkncO3oCYqe5196ReUPDA1D9NxYNG/7ILclf/0N9/PO3Bh8GDsHHdq147qtjQ0+mh8LisaUtD34OWU3fIcMQ99BT7OtPgMHIfPYcZY9c+4cqF+yRfxjWSdw/sIF5sV9uIRtlZaW4sXX32AZiu7nIiegXG6Gnr2e4D669OnL/ZFDdX3Sm214BwarNqbNmo345Uno5esPmptRoiMjUXp6Oj8iP0coz4GUX+heRuzeuomfxMWLxP0uLuKzhKVi/qyZIjQokGWzjxwSjRo2FDlZmeLtSa+JCePGioLTWWLNiuWsn7Z9i7h88ph4xLMz625dt4blD6XuYrlBvgNEZMRo7qutR2sxYkiIkJ7MsmSPdGkc0sPVsSlj9PfpL+IXxomNq79gmQ3Jq4TmwlkxY8pk0bljByGjVDzevZtYPC9GlFw6LxLeX8D8kwf2s3xYSJCgeX67aqVwd2spcrOOirwTR3l8f6SliJzjmSx3fH+6oHnSONZ+miSKL54X706dImi8ZbkXRUT4M6xDc6bxKuNTca2Emd/qkdHYykyfPZebmzrYY9670QgOCED+lQJMmh6NZR8sxHebNmNk6FA4OjhAgo+ysnI0lh8GRH79vdHdqyuXn+z1OHLzLmP/gYOYOH4cOsrzK9G016MwWKYJ8lyiCS+MAXmy31NPIfyFSObRS45YLSuFClEBS4vKgJXgImCADzdNeXUip4U/MzOxe89e9OnZE7MXvM99UHRkX7zAcvEL4tCkcWMZQW3h4d4Km7ZvR8Zvv+PqtWsoKiqGY1MHlnNybMpps8ejXggZHMC8t6Im4p05MTh15izXI8eMxpDAQVw29jIpvez47mvQ81VSIoaHBKN+/Xq4r1kzDH16MDZs2Yov1qzDqOGhVdpp2KDBTXxalLp166p8a2trnqDCsLXR/4Kzb9IE0uOx89dURYR/CZiU1D3o1OFBruv2aWVV+Z2h0VSeclq3ckNLV1e4PfAAZMTKRbVlByHAib79fjN8Q4bJNHcVgQP9IL2e+bovHrfVv35a5/q3TGlZKYu1dnPTFTdYNgl0Q9pjwsMxd+EiXMrJQQ8vLxaj/F+iNb7Tk0d++mUynzzoOLU0cTn8B/Q3ZIb50W++gdemTcehw4e5rikqwvioSZApBD27Pco8yuvkxUS0FzRzckSXzp0gUwBH3uiRI2T9ISz6OEEC3gA2NtYsS68dO3diVFgoXh4bgRbOzjhx6rTe17lWWwqvLp6g09m+3w+w3qo1a9mGe8vKBVIWQe3UQOHfZTMgYIzt/URvFF69iqjI8aoYTWpy0ExOI4P9fFU+FWhB6KEQTMvIQCvPR3jibdzdsTrp5s1Hiqokcyb+llcVPX0Gss5fObkICvDH+i8/V2UoGoJGjpInjVJoS7UcmVbSMz9PiEdYxFhETX0b9erVxZK4WBBfl4L8/TEgZCjWrt/AC9T7sR6IjonFpq+S0a9Pbzh5tIPcgyD3M96slfS5buUK2Wc9Pmjo9mesrN69ZEgQiLw83PjXlBeB4NyuIzIz0uDcvLkpKnoydAyj8y8d/Uwlyuvn5JWFk6MjrOvXV9W+37Yd8YlJvAh0dqccfCPlFxSAUpUhKinRQlOkYZmysjIZsVo0uOGyinQpOguuXIGDfeUXp6H+iJ9x/BQ3e13PBFSpcXrZuHWb9Do/PDs8rEaAk3HykOoATjoUKa4tWugBTnyF6GhbFeDUbgxwaqe9SpGhSKgKcJIjG6YATrJVkX6MVSVhgNe9a1c+uXh1ediAxN1l08no4Yc63V2jNbSmgk6rR2FDt2PKnYGxPsmbDHmUMb071UZeacgz75TNW/VLWBIRtrqk1ujCnYiuIxVhXUFzuXoIKFe7pKVgq/Sgejr9w0FXkHT/S4+Zbg8C5OWErS6ppxdimv+u04WmdmUC+5Z/19XOhFm7OgioOb06SmbZ2iFgBr12+NVI2wx6jWCrndI/eUtfQN+hZqAAAAAASUVORK5CYII=;" parent="1" vertex="1">
                    <mxGeometry x="910" y="383" width="93" height="28" as="geometry"/>
                </mxCell>
                <mxCell id="72" value="" style="shape=image;verticalLabelPosition=bottom;labelBackgroundColor=default;verticalAlign=top;aspect=fixed;imageAspect=0;image=data:image/png,iVBORw0KGgoAAAANSUhEUgAAAF0AAAAcCAYAAAADdbMKAAAKpWlDQ1BJQ0MgUHJvZmlsZQAASImVlgdQk9kWx+/3pTda6FJCb4J0AkgJoQVQkA6iEpJAQgkxEJodWVzBtaAiAuqKrjQF1wLIWhALFhYBG9YNsggo62JBVCzvA4awu2/ee/POzM35zcm5555z57szfwAoZLZIlAorAJAmzBSH+nnRomNiabghQALqAAcA0GdzMkSMkJAghMGs/7u9vwegKX/bcqrWv///X02Ry8vgAACFIJzAzeCkIXwKWc85InEmAKhKJG6QnSma4jaElcVIgwjfmeKkGR6e4oQZ/jydEx7KBACNTIUns9niJADIWkiclsVJQuqQFyJsLeQKhAhP9euelpbORfgowqZIjgjhqfr0hL/USfpbzQRZTTY7ScYzs0wb3luQIUpl5/6f1/G/LS1VMnuGMbLIfLF/KOLlkDvrS0kPlLEwYXHwLAu40/nTzJf4R8wyJ4MZO8tctnegbG/q4qBZThT4smR1Mlnhs8zL8AmbZXF6qOysRDGTMcts8dy5kpQIWZzPY8nq5/HDo2Y5SxC5eJYzUsIC53KYsrhYEirrnyf085o711c2e1rGX+YVsGR7M/nh/rLZ2XP984SMuZoZ0bLeuDxvn7mcCFm+KNNLdpYoNUSWz0v1k8UzssJkezORD3Jub4jsDpPZASGzDJjADtgDf0AHziAHgExeTubUEMx0Ua5YkMTPpDGQ18WjsYQcq/k0W2tbOwCm3urMp/C2b/oNQqr4uRj/KQD2cUhw41xMoA5AixXyRBTnYoZSAKhZAJwr40jEWTMx9NQPBhCBPFAGGkAHGABTYAlsgSNwBZ7ABwSAYBAOYsBywAF8kAbEIBusBhtAISgG28FuUA4OgEOgBhwDJ0AzOAsugqvgJugGd8EjIAWD4CUYA+/BJARBOIgCUSENSBcygiwgW4gOuUM+UBAUCsVA8VASJIQk0GpoI1QMlUDl0EGoFvoZOgNdhK5DPdADqB8agd5An2AUTIaVYW3YGF4A02EGHAiHw8vgJHglnAcXwFvhMrgKPgo3wRfhm/BdWAq/hMdRAEVCqaL0UJYoOoqJCkbFohJRYtRaVBGqFFWFakC1ojpQt1FS1CjqIxqLpqJpaEu0K9ofHYHmoFei16K3oMvRNegm9GX0bXQ/egz9FUPBaGEsMC4YFiYak4TJxhRiSjFHMKcxVzB3MYOY91gsVhVrgnXC+mNjsMnYVdgt2H3YRmwbtgc7gB3H4XAaOAucGy4Yx8Zl4gpxe3FHcRdwvbhB3Ac8Ca+Lt8X74mPxQnw+vhRfhz+P78UP4ScJCgQjggshmMAl5BK2EQ4TWgm3CIOESaIi0YToRgwnJhM3EMuIDcQrxMfEtyQSSZ/kTFpCEpDWk8pIx0nXSP2kj2QlsjmZSY4jS8hbydXkNvID8lsKhWJM8aTEUjIpWym1lEuUp5QPclQ5KzmWHFdunVyFXJNcr9wreYK8kTxDfrl8nnyp/En5W/KjCgQFYwWmAlthrUKFwhmF+wrjilRFG8VgxTTFLYp1itcVh5VwSsZKPkpcpQKlQ0qXlAaoKKoBlUnlUDdSD1OvUAeVscomyizlZOVi5WPKXcpjKkoq9iqRKjkqFSrnVKSqKFVjVZZqquo21ROq91Q/qWmrMdR4apvVGtR61SbU56l7qvPUi9Qb1e+qf9KgafhopGjs0GjWeKKJ1jTXXKKZrblf84rm6Dzlea7zOPOK5p2Y91AL1jLXCtVapXVIq1NrXFtH209bpL1X+5L2qI6qjqdOss4unfM6I7pUXXddge4u3Qu6L2gqNAYtlVZGu0wb09PS89eT6B3U69Kb1DfRj9DP12/Uf2JANKAbJBrsMmg3GDPUNVxkuNqw3vChEcGIbsQ32mPUYTRhbGIcZbzJuNl42ETdhGWSZ1Jv8tiUYuphutK0yvSOGdaMbpZits+s2xw2dzDnm1eY37KALRwtBBb7LHrmY+Y7zxfOr5p/35JsybDMsqy37LdStQqyyrdqtnq1wHBB7IIdCzoWfLV2sE61Pmz9yEbJJsAm36bV5o2tuS3HtsL2jh3FztdunV2L3Wt7C3ue/X77PgeqwyKHTQ7tDl8cnRzFjg2OI06GTvFOlU736cr0EPoW+jVnjLOX8zrns84fXRxdMl1OuPzpauma4lrnOrzQZCFv4eGFA276bmy3g25Sd5p7vPuP7lIPPQ+2R5XHM08DT67nEc8hhhkjmXGU8crL2kvsddprgunCXMNs80Z5+3kXeXf5KPlE+JT7PPXV903yrfcd83PwW+XX5o/xD/Tf4X+fpc3isGpZYwFOAWsCLgeSA8MCywOfBZkHiYNaF8GLAhbtXPR4sdFi4eLmYBDMCt4Z/CTEJGRlyC9LsEtCllQseR5qE7o6tCOMGrYirC7sfbhX+LbwRxGmEZKI9kj5yLjI2siJKO+okihp9ILoNdE3YzRjBDEtsbjYyNgjseNLfZbuXjoY5xBXGHdvmcmynGXXl2suT11+boX8CvaKk/GY+Kj4uvjP7GB2FXs8gZVQmTDGYXL2cF5yPbm7uCM8N14JbyjRLbEkcTjJLWln0gjfg1/KHxUwBeWC18n+yQeSJ1KCU6pTvqVGpTam4dPi084IlYQpwsvpOuk56T0iC1GhSLrSZeXulWPiQPGRDChjWUZLpjIiijolppLvJP1Z7lkVWR+yI7NP5ijmCHM6c81zN+cO5fnm/bQKvYqzqn213uoNq/vXMNYcXAutTVjbvs5gXcG6wfV+62s2EDekbPg13zq/JP/dxqiNrQXaBesLBr7z+66+UK5QXHh/k+umA9+jvxd837XZbvPezV+LuEU3iq2LS4s/b+FsufGDzQ9lP3zbmri1a5vjtv3bsduF2+/t8NhRU6JYklcysHPRzqZdtF1Fu97tXrH7eql96YE9xD2SPdKyoLKWvYZ7t+/9XM4vv1vhVdFYqVW5uXJiH3df737P/Q0HtA8UH/j0o+DHvoN+B5uqjKtKD2EPZR16fjjycMdP9J9qj2geKT7ypVpYLa0Jrblc61RbW6dVt60erpfUjxyNO9p9zPtYS4Nlw8FG1cbi4+C45PiLn+N/vnci8ET7SfrJhlNGpypPU08XNUFNuU1jzfxmaUtMS8+ZgDPtra6tp3+x+qX6rN7ZinMq57adJ54vOP/tQt6F8TZR2+jFpIsD7SvaH12KvnTn8pLLXVcCr1y76nv1Ugej48I1t2tnr7tcP3ODfqP5puPNpk6HztO/Ovx6usuxq+mW062Wbufu1p6FPed7PXov3va+ffUO687Nu4vv9tyLuNd3P+6+tI/bN/wg9cHrh1kPJx+tf4x5XPRE4UnpU62nVb+Z/dYodZSe6/fu73wW9uzRAGfg5e8Zv38eLHhOeV46pDtUO2w7fHbEd6T7xdIXgy9FLydHC/9Q/KPylemrU396/tk5Fj02+Fr8+tubLW813la/s3/XPh4y/vR92vvJiaIPGh9qPtI/dnyK+jQ0mf0Z97nsi9mX1q+BXx9/S/v2TcQWs6elAApZcGIiAG+qAaDEIFqhGwDi0hktPW3QjP6fJvCfeEZvT5sjANVtAISvB2BKFu1F2MgTACWEQxAf7glgOzvZmtW90xp9yoIsEclkNEV3XniCf9qMfv9L3//0YKqqPfin/xeu1AF7GuapXgAAAFZlWElmTU0AKgAAAAgAAYdpAAQAAAABAAAAGgAAAAAAA5KGAAcAAAASAAAARKACAAQAAAABAAAAXaADAAQAAAABAAAAHAAAAABBU0NJSQAAAFNjcmVlbnNob3ReNUBWAAAB1GlUWHRYTUw6Y29tLmFkb2JlLnhtcAAAAAAAPHg6eG1wbWV0YSB4bWxuczp4PSJhZG9iZTpuczptZXRhLyIgeDp4bXB0az0iWE1QIENvcmUgNi4wLjAiPgogICA8cmRmOlJERiB4bWxuczpyZGY9Imh0dHA6Ly93d3cudzMub3JnLzE5OTkvMDIvMjItcmRmLXN5bnRheC1ucyMiPgogICAgICA8cmRmOkRlc2NyaXB0aW9uIHJkZjphYm91dD0iIgogICAgICAgICAgICB4bWxuczpleGlmPSJodHRwOi8vbnMuYWRvYmUuY29tL2V4aWYvMS4wLyI+CiAgICAgICAgIDxleGlmOlBpeGVsWURpbWVuc2lvbj4yODwvZXhpZjpQaXhlbFlEaW1lbnNpb24+CiAgICAgICAgIDxleGlmOlBpeGVsWERpbWVuc2lvbj45MzwvZXhpZjpQaXhlbFhEaW1lbnNpb24+CiAgICAgICAgIDxleGlmOlVzZXJDb21tZW50PlNjcmVlbnNob3Q8L2V4aWY6VXNlckNvbW1lbnQ+CiAgICAgIDwvcmRmOkRlc2NyaXB0aW9uPgogICA8L3JkZjpSREY+CjwveDp4bXBtZXRhPgoXgiT4AAAHvklEQVRoBe1ZDVjNVxj/lVAhSrGyJsnHMM00zLDRpBStIjHZJszazNrMjFnMUMJmTMuzZDZbhn1gPmcfZEWx8dgI+RZWKbFb3T7Ozvvm/9+9dK9b+djz7L7P8//fc97zvuc953fe9z3nf66FkAQz3VUELO+qNbMxRsAM+j1wBDPo9wB0K12bGo0G2dnZKCwsREVFhW6TuVxNBCwtLWFnZwcXFxfY2trqaVsoGykBfuTIETPYevDUvkLgt2/fXg941dPJw8m7He0a4v6m9rCqU6f2Fv/HPZSVl+NcXj5yC69x9vDw8FDRUHM6pRQiM+AqNrUqkNMSlkQKtkqHKuhKDv+veziN8/TZsygqLlbm8J/9VbBUsFUGqoKuMHR/D/7xJyzsndTHzrUVJkx+Czm5ebpieuVdqWnY9uPPzFu3fiNCn4/Qa69phb7hPohPQJOWrdHN2we2zq4IDn8OeZfza9qlyXozY+NQXFJisvytBI2CrihXXP4L5XmXsPfHbfjt4EGsTF6tNN30m7o3HT/tSmH+7fzYXbZiJRYsWYq0H7bg0tHD+Dv7DOwaNULgiJG4nXZumpBkzIiZB61WW1VTjXgmgW5hYQHehdu0gU+/vtizbx8Cho3A5h92qEaHjxmHydEz8d78hfjok0RMnDKV27JOnsJjPn4cLT7BQ3Hl+t6xeNkncO3oCYqe5196ReUPDA1D9NxYNG/7ILclf/0N9/PO3Bh8GDsHHdq147qtjQ0+mh8LisaUtD34OWU3fIcMQ99BT7OtPgMHIfPYcZY9c+4cqF+yRfxjWSdw/sIF5sV9uIRtlZaW4sXX32AZiu7nIiegXG6Gnr2e4D669OnL/ZFDdX3Sm214BwarNqbNmo345Uno5esPmptRoiMjUXp6Oj8iP0coz4GUX+heRuzeuomfxMWLxP0uLuKzhKVi/qyZIjQokGWzjxwSjRo2FDlZmeLtSa+JCePGioLTWWLNiuWsn7Z9i7h88ph4xLMz625dt4blD6XuYrlBvgNEZMRo7qutR2sxYkiIkJ7MsmSPdGkc0sPVsSlj9PfpL+IXxomNq79gmQ3Jq4TmwlkxY8pk0bljByGjVDzevZtYPC9GlFw6LxLeX8D8kwf2s3xYSJCgeX67aqVwd2spcrOOirwTR3l8f6SliJzjmSx3fH+6oHnSONZ+miSKL54X706dImi8ZbkXRUT4M6xDc6bxKuNTca2Emd/qkdHYykyfPZebmzrYY9670QgOCED+lQJMmh6NZR8sxHebNmNk6FA4OjhAgo+ysnI0lh8GRH79vdHdqyuXn+z1OHLzLmP/gYOYOH4cOsrzK9G016MwWKYJ8lyiCS+MAXmy31NPIfyFSObRS45YLSuFClEBS4vKgJXgImCADzdNeXUip4U/MzOxe89e9OnZE7MXvM99UHRkX7zAcvEL4tCkcWMZQW3h4d4Km7ZvR8Zvv+PqtWsoKiqGY1MHlnNybMpps8ejXggZHMC8t6Im4p05MTh15izXI8eMxpDAQVw29jIpvez47mvQ81VSIoaHBKN+/Xq4r1kzDH16MDZs2Yov1qzDqOGhVdpp2KDBTXxalLp166p8a2trnqDCsLXR/4Kzb9IE0uOx89dURYR/CZiU1D3o1OFBruv2aWVV+Z2h0VSeclq3ckNLV1e4PfAAZMTKRbVlByHAib79fjN8Q4bJNHcVgQP9IL2e+bovHrfVv35a5/q3TGlZKYu1dnPTFTdYNgl0Q9pjwsMxd+EiXMrJQQ8vLxaj/F+iNb7Tk0d++mUynzzoOLU0cTn8B/Q3ZIb50W++gdemTcehw4e5rikqwvioSZApBD27Pco8yuvkxUS0FzRzckSXzp0gUwBH3uiRI2T9ISz6OEEC3gA2NtYsS68dO3diVFgoXh4bgRbOzjhx6rTe17lWWwqvLp6g09m+3w+w3qo1a9mGe8vKBVIWQe3UQOHfZTMgYIzt/URvFF69iqjI8aoYTWpy0ExOI4P9fFU+FWhB6KEQTMvIQCvPR3jibdzdsTrp5s1Hiqokcyb+llcVPX0Gss5fObkICvDH+i8/V2UoGoJGjpInjVJoS7UcmVbSMz9PiEdYxFhETX0b9erVxZK4WBBfl4L8/TEgZCjWrt/AC9T7sR6IjonFpq+S0a9Pbzh5tIPcgyD3M96slfS5buUK2Wc9Pmjo9mesrN69ZEgQiLw83PjXlBeB4NyuIzIz0uDcvLkpKnoydAyj8y8d/Uwlyuvn5JWFk6MjrOvXV9W+37Yd8YlJvAh0dqccfCPlFxSAUpUhKinRQlOkYZmysjIZsVo0uOGyinQpOguuXIGDfeUXp6H+iJ9x/BQ3e13PBFSpcXrZuHWb9Do/PDs8rEaAk3HykOoATjoUKa4tWugBTnyF6GhbFeDUbgxwaqe9SpGhSKgKcJIjG6YATrJVkX6MVSVhgNe9a1c+uXh1ediAxN1l08no4Yc63V2jNbSmgk6rR2FDt2PKnYGxPsmbDHmUMb071UZeacgz75TNW/VLWBIRtrqk1ujCnYiuIxVhXUFzuXoIKFe7pKVgq/Sgejr9w0FXkHT/S4+Zbg8C5OWErS6ppxdimv+u04WmdmUC+5Z/19XOhFm7OgioOb06SmbZ2iFgBr12+NVI2wx6jWCrndI/eUtfQN+hZqAAAAAASUVORK5CYII=;" parent="1" vertex="1">
                    <mxGeometry x="1110" y="383" width="93" height="28" as="geometry"/>
                </mxCell>
                <mxCell id="74" value="" style="endArrow=none;html=1;fontSize=10;" parent="1" edge="1">
                    <mxGeometry width="50" height="50" relative="1" as="geometry">
                        <mxPoint y="320" as="sourcePoint"/>
                        <mxPoint x="430" y="320" as="targetPoint"/>
                    </mxGeometry>
                </mxCell>
                <mxCell id="75" value="" style="endArrow=none;html=1;fontSize=10;" parent="1" edge="1">
                    <mxGeometry width="50" height="50" relative="1" as="geometry">
                        <mxPoint y="570" as="sourcePoint"/>
                        <mxPoint x="430" y="570" as="targetPoint"/>
                    </mxGeometry>
                </mxCell>
            </root>
        </mxGraphModel>
    </diagram>
</mxfile>